<svg width="100" height="95" viewBox="0 0 100 95" fill="none" xmlns="http://www.w3.org/2000/svg">
<path d="M91.4291 61.8674C70.4047 50.4293 112.038 20.2658 91.9024 4.31345C77.5596 -7.04964 56.1473 6.34021 45.775 17.9312C30.0666 35.4855 8.78577 12.8902 1.12288 24.7732C-3.14548 31.3924 6.54358 37.9627 0.820145 61.9476C-2.40173 75.4492 6.58909 92.3154 20.2989 94.3703C40.7535 97.4361 59.7397 83.7631 79.7229 90.9615C95.4321 96.6205 109.688 71.8006 91.4291 61.8674Z" fill="url(#paint0_linear_1287_11933)"/>
<path d="M23.8867 52.5762H88.4996C89.5783 52.5762 90.4527 53.4506 90.4527 54.5293V77.9527C90.4527 79.0314 89.5783 79.9059 88.4996 79.9059H81.626L78.5949 83.2521C78.5034 83.3532 78.3917 83.434 78.267 83.4893C78.1423 83.5446 78.0075 83.5732 77.8711 83.5732C77.7347 83.5732 77.5999 83.5446 77.4752 83.4893C77.3505 83.434 77.2388 83.3532 77.1473 83.2521L74.1162 79.9059H23.8867C22.808 79.9059 21.9336 79.0314 21.9336 77.9527V54.5293C21.9336 53.4506 22.808 52.5762 23.8867 52.5762Z" fill="#02FFB2"/>
<path d="M65.6221 76.2974C65.3631 76.2974 65.1147 76.1945 64.9315 76.0113C64.7484 75.8282 64.6455 75.5798 64.6455 75.3208V57.1616C64.6455 56.9026 64.7484 56.6542 64.9315 56.4711C65.1147 56.2879 65.3631 56.1851 65.6221 56.1851C65.8811 56.1851 66.1295 56.2879 66.3126 56.4711C66.4957 56.6542 66.5986 56.9026 66.5986 57.1616V75.3208C66.5986 75.5798 66.4957 75.8282 66.3126 76.0113C66.1295 76.1945 65.8811 76.2974 65.6221 76.2974Z" fill="#01EBA4"/>
<path d="M72.9863 63.3475V72.5127C72.9863 72.7717 73.0892 73.0201 73.2724 73.2032C73.4555 73.3864 73.7039 73.4893 73.9629 73.4893H75.2219C75.4809 73.4893 75.7293 73.3864 75.9124 73.2032C76.0956 73.0201 76.1984 72.7717 76.1984 72.5127V70.3627H79.9357V72.5127C79.9357 72.7717 80.0386 73.0201 80.2218 73.2032C80.4049 73.3864 80.6533 73.4893 80.9123 73.4893H82.1713C82.4303 73.4893 82.6787 73.3864 82.8618 73.2032C83.045 73.0201 83.1478 72.7717 83.1478 72.5127V63.3475C83.1478 61.0818 81.3111 59.2451 79.0455 59.2451H77.0891C74.823 59.2451 72.9863 61.0818 72.9863 63.3475ZM76.1984 67.1506V63.3475C76.1984 63.1113 76.2922 62.8848 76.4592 62.7178C76.6262 62.5508 76.8527 62.457 77.0889 62.457H79.0453C79.1622 62.457 79.278 62.4801 79.3861 62.5248C79.4941 62.5696 79.5923 62.6351 79.6749 62.7178C79.7576 62.8005 79.8232 62.8987 79.868 63.0067C79.9127 63.1147 79.9357 63.2305 79.9357 63.3475V67.1506H76.1984Z" fill="white"/>
<path d="M78.0664 18.7725V42.1963C78.0664 43.2744 77.1934 44.1494 76.1133 44.1494H25.8848L22.8535 47.4951C22.4648 47.9229 21.793 47.9229 21.4062 47.4951L18.375 44.1494H11.5C10.4219 44.1494 9.54688 43.2744 9.54688 42.1963V18.7725C9.54688 17.6943 10.4219 16.8193 11.5 16.8193H76.1133C77.1934 16.8193 78.0664 17.6943 78.0664 18.7725Z" fill="#9EAFFD"/>
<path d="M78.0664 18.7725V31.7607C72.4043 31.7607 67.8125 27.1689 67.8125 21.5068C67.8125 19.8174 68.2207 18.2256 68.9453 16.8193H76.1133C77.1934 16.8193 78.0664 17.6943 78.0664 18.7725Z" fill="#8298FD"/>
<path d="M27.2572 34.5198H26.9137C26.9775 34.2327 27.0139 33.9354 27.0139 33.6294V27.5901C27.0139 25.328 25.1736 23.4878 22.9115 23.4878H20.9549C18.6928 23.4878 16.8525 25.328 16.8525 27.5901V33.6294C16.8525 35.8917 18.6928 37.7319 20.9549 37.7319H27.2572C27.6788 37.7254 28.081 37.5533 28.3768 37.2528C28.6726 36.9523 28.8384 36.5475 28.8384 36.1259C28.8384 35.7042 28.6726 35.2995 28.3768 34.999C28.081 34.6985 27.6788 34.5264 27.2572 34.5198ZM20.0645 33.6294V27.5901C20.0648 27.3541 20.1587 27.1278 20.3256 26.9608C20.4925 26.7939 20.7188 26.7 20.9549 26.6997H22.9115C23.1476 26.7 23.3739 26.7939 23.5408 26.9608C23.7077 27.1278 23.8016 27.3541 23.802 27.5901V33.6294C23.8017 33.8655 23.7078 34.0918 23.5409 34.2587C23.3739 34.4257 23.1476 34.5196 22.9115 34.5198H20.9549C20.7188 34.5195 20.4925 34.4256 20.3256 34.2587C20.1587 34.0918 20.0648 33.8655 20.0645 33.6294Z" fill="white"/>
<path d="M34.3789 40.54C34.1199 40.54 33.8715 40.4372 33.6884 40.254C33.5052 40.0709 33.4023 39.8225 33.4023 39.5635V21.4043C33.4023 21.1453 33.5052 20.8969 33.6884 20.7138C33.8715 20.5306 34.1199 20.4277 34.3789 20.4277C34.6379 20.4277 34.8863 20.5306 35.0694 20.7138C35.2526 20.8969 35.3555 21.1453 35.3555 21.4043V39.5635C35.3555 39.8225 35.2526 40.0709 35.0694 40.254C34.8863 40.4372 34.6379 40.54 34.3789 40.54Z" fill="#B6C4FF"/>
<path d="M28.2969 62.1826C28.0379 62.1826 27.7895 62.0797 27.6063 61.8966C27.4232 61.7134 27.3203 61.4651 27.3203 61.2061V61.1836C27.3203 60.9246 27.4232 60.6762 27.6063 60.4931C27.7895 60.3099 28.0379 60.207 28.2969 60.207C28.5559 60.207 28.8043 60.3099 28.9874 60.4931C29.1706 60.6762 29.2734 60.9246 29.2734 61.1836V61.2061C29.2734 61.4651 29.1706 61.7134 28.9874 61.8966C28.8043 62.0797 28.5559 62.1826 28.2969 62.1826Z" fill="#6582FD"/>
<path d="M41.7918 62.1826H32.0342C31.7752 62.1826 31.5268 62.0797 31.3436 61.8966C31.1605 61.7135 31.0576 61.4651 31.0576 61.2061C31.0576 60.9471 31.1605 60.6987 31.3436 60.5155C31.5268 60.3324 31.7752 60.2295 32.0342 60.2295H41.7918C42.0508 60.2295 42.2992 60.3324 42.4823 60.5155C42.6655 60.6987 42.7684 60.9471 42.7684 61.2061C42.7684 61.4651 42.6655 61.7135 42.4823 61.8966C42.2992 62.0797 42.0508 62.1826 41.7918 62.1826Z" fill="white"/>
<path d="M28.2969 67.355C28.0379 67.355 27.7895 67.2521 27.6063 67.0689C27.4232 66.8858 27.3203 66.6374 27.3203 66.3784V66.356C27.3203 66.097 27.4232 65.8486 27.6063 65.6654C27.7895 65.4823 28.0379 65.3794 28.2969 65.3794C28.5559 65.3794 28.8043 65.4823 28.9874 65.6654C29.1706 65.8486 29.2734 66.097 29.2734 66.356V66.3784C29.2734 66.6374 29.1706 66.8858 28.9874 67.0689C28.8043 67.2521 28.5559 67.355 28.2969 67.355Z" fill="#FF7EB7"/>
<path d="M41.7918 67.355H32.0342C31.7752 67.355 31.5268 67.2521 31.3436 67.0689C31.1605 66.8858 31.0576 66.6374 31.0576 66.3784C31.0576 66.1194 31.1605 65.871 31.3436 65.6879C31.5268 65.5047 31.7752 65.4019 32.0342 65.4019H41.7918C42.0508 65.4019 42.2992 65.5047 42.4823 65.6879C42.6655 65.871 42.7684 66.1194 42.7684 66.3784C42.7684 66.6374 42.6655 66.8858 42.4823 67.0689C42.2992 67.2521 42.0508 67.355 41.7918 67.355Z" fill="white"/>
<path d="M28.2969 72.5273C28.0379 72.5273 27.7895 72.4245 27.6063 72.2413C27.4232 72.0582 27.3203 71.8098 27.3203 71.5508V71.5283C27.3203 71.2693 27.4232 71.0209 27.6063 70.8378C27.7895 70.6546 28.0379 70.5518 28.2969 70.5518C28.5559 70.5518 28.8043 70.6546 28.9874 70.8378C29.1706 71.0209 29.2734 71.2693 29.2734 71.5283V71.5508C29.2734 71.8098 29.1706 72.0582 28.9874 72.2413C28.8043 72.4245 28.5559 72.5273 28.2969 72.5273Z" fill="#6582FD"/>
<path d="M41.7918 72.5273H32.0342C31.7752 72.5273 31.5268 72.4245 31.3436 72.2413C31.1605 72.0582 31.0576 71.8098 31.0576 71.5508C31.0576 71.2918 31.1605 71.0434 31.3436 70.8602C31.5268 70.6771 31.7752 70.5742 32.0342 70.5742H41.7918C42.0508 70.5742 42.2992 70.6771 42.4823 70.8602C42.6655 71.0434 42.7684 71.2918 42.7684 71.5508C42.7684 71.8098 42.6655 72.0582 42.4823 72.2413C42.2992 72.4245 42.0508 72.5273 41.7918 72.5273Z" fill="white"/>
<path d="M46.6064 62.1826C46.3474 62.1826 46.0991 62.0797 45.9159 61.8966C45.7328 61.7134 45.6299 61.4651 45.6299 61.2061V61.1836C45.6299 60.9246 45.7328 60.6762 45.9159 60.4931C46.0991 60.3099 46.3474 60.207 46.6064 60.207C46.8654 60.207 47.1138 60.3099 47.297 60.4931C47.4801 60.6762 47.583 60.9246 47.583 61.1836V61.2061C47.583 61.4651 47.4801 61.7134 47.297 61.8966C47.1138 62.0797 46.8654 62.1826 46.6064 62.1826Z" fill="#6582FD"/>
<path d="M60.1014 62.1826H50.3438C50.0848 62.1826 49.8364 62.0797 49.6532 61.8966C49.4701 61.7135 49.3672 61.4651 49.3672 61.2061C49.3672 60.9471 49.4701 60.6987 49.6532 60.5155C49.8364 60.3324 50.0848 60.2295 50.3438 60.2295H60.1014C60.3604 60.2295 60.6088 60.3324 60.7919 60.5155C60.975 60.6987 61.0779 60.9471 61.0779 61.2061C61.0779 61.4651 60.975 61.7135 60.7919 61.8966C60.6088 62.0797 60.3604 62.1826 60.1014 62.1826Z" fill="white"/>
<path d="M46.6064 67.355C46.3474 67.355 46.0991 67.2521 45.9159 67.0689C45.7328 66.8858 45.6299 66.6374 45.6299 66.3784V66.356C45.6299 66.097 45.7328 65.8486 45.9159 65.6654C46.0991 65.4823 46.3474 65.3794 46.6064 65.3794C46.8654 65.3794 47.1138 65.4823 47.297 65.6654C47.4801 65.8486 47.583 66.097 47.583 66.356V66.3784C47.583 66.6374 47.4801 66.8858 47.297 67.0689C47.1138 67.2521 46.8654 67.355 46.6064 67.355Z" fill="#6582FD"/>
<path d="M60.1014 67.355H50.3438C50.0848 67.355 49.8364 67.2521 49.6532 67.0689C49.4701 66.8858 49.3672 66.6374 49.3672 66.3784C49.3672 66.1194 49.4701 65.871 49.6532 65.6879C49.8364 65.5047 50.0848 65.4019 50.3438 65.4019H60.1014C60.3604 65.4019 60.6088 65.5047 60.7919 65.6879C60.975 65.871 61.0779 66.1194 61.0779 66.3784C61.0779 66.6374 60.975 66.8858 60.7919 67.0689C60.6088 67.2521 60.3604 67.355 60.1014 67.355Z" fill="white"/>
<path d="M23.8867 52.5762H88.4996C89.5783 52.5762 90.4527 53.4506 90.4527 54.5293V77.9527C90.4527 79.0314 89.5783 79.9059 88.4996 79.9059H81.626L78.5949 83.2521C78.5034 83.3532 78.3917 83.434 78.267 83.4893C78.1423 83.5446 78.0075 83.5732 77.8711 83.5732C77.7347 83.5732 77.5999 83.5446 77.4752 83.4893C77.3505 83.434 77.2388 83.3532 77.1473 83.2521L74.1162 79.9059H23.8867C22.808 79.9059 21.9336 79.0314 21.9336 77.9527V54.5293C21.9336 53.4506 22.808 52.5762 23.8867 52.5762Z" fill="url(#paint1_linear_1287_11933)"/>
<path d="M64.7795 26.646H40.2881C40.0291 26.646 39.7807 26.5431 39.5976 26.36C39.4144 26.1768 39.3115 25.9284 39.3115 25.6694C39.3115 25.4104 39.4144 25.162 39.5976 24.9789C39.7807 24.7958 40.0291 24.6929 40.2881 24.6929H64.7795C65.0385 24.6929 65.2869 24.7958 65.47 24.9789C65.6532 25.162 65.7561 25.4104 65.7561 25.6694C65.7561 25.9284 65.6532 26.1768 65.47 26.36C65.2869 26.5431 65.0385 26.646 64.7795 26.646ZM69.7344 31.5866H40.2881C40.0291 31.5866 39.7807 31.4837 39.5976 31.3006C39.4144 31.1175 39.3115 30.8691 39.3115 30.6101C39.3115 30.3511 39.4144 30.1027 39.5976 29.9195C39.7807 29.7364 40.0291 29.6335 40.2881 29.6335H69.7344C69.9934 29.6335 70.2418 29.7364 70.4249 29.9195C70.6081 30.1027 70.7109 30.3511 70.7109 30.6101C70.7109 30.8691 70.6081 31.1175 70.4249 31.3006C70.2418 31.4837 69.9934 31.5866 69.7344 31.5866Z" fill="white"/>
<path d="M53.0922 36.5273H40.2881C40.0291 36.5273 39.7807 36.4245 39.5976 36.2413C39.4144 36.0582 39.3115 35.8098 39.3115 35.5508C39.3115 35.2918 39.4144 35.0434 39.5976 34.8602C39.7807 34.6771 40.0291 34.5742 40.2881 34.5742H53.0922C53.3512 34.5742 53.5996 34.6771 53.7827 34.8602C53.9659 35.0434 54.0688 35.2918 54.0688 35.5508C54.0688 35.8098 53.9659 36.0582 53.7827 36.2413C53.5996 36.4245 53.3512 36.5273 53.0922 36.5273Z" fill="#FF7EB7"/>
<path d="M67.1873 39.9404H65.6221C65.3631 39.9404 65.1147 39.8375 64.9315 39.6544C64.7484 39.4713 64.6455 39.2229 64.6455 38.9639C64.6455 38.7049 64.7484 38.4565 64.9315 38.2733C65.1147 38.0902 65.3631 37.9873 65.6221 37.9873H67.1873C67.4463 37.9873 67.6947 38.0902 67.8778 38.2733C68.061 38.4565 68.1639 38.7049 68.1639 38.9639C68.1639 39.2229 68.061 39.4713 67.8778 39.6544C67.6947 39.8375 67.4463 39.9404 67.1873 39.9404ZM72.6334 39.9404H71.0682C70.8092 39.9404 70.5608 39.8375 70.3776 39.6544C70.1945 39.4713 70.0916 39.2229 70.0916 38.9639C70.0916 38.7049 70.1945 38.4565 70.3776 38.2733C70.5608 38.0902 70.8092 37.9873 71.0682 37.9873H72.6334C72.8924 37.9873 73.1408 38.0902 73.3239 38.2733C73.5071 38.4565 73.61 38.7049 73.61 38.9639C73.61 39.2229 73.5071 39.4713 73.3239 39.6544C73.1408 39.8375 72.8924 39.9404 72.6334 39.9404Z" fill="#B6C4FF"/>
<path d="M78.0664 18.7725V42.1963C78.0664 43.2744 77.1934 44.1494 76.1133 44.1494H25.8848L22.8535 47.4951C22.4648 47.9229 21.793 47.9229 21.4062 47.4951L18.375 44.1494H11.5C10.4219 44.1494 9.54688 43.2744 9.54688 42.1963V18.7725C9.54688 17.6943 10.4219 16.8193 11.5 16.8193H76.1133C77.1934 16.8193 78.0664 17.6943 78.0664 18.7725Z" fill="url(#paint2_linear_1287_11933)"/>
<path d="M78.0674 27.0732C83.7305 27.0732 88.3213 22.4824 88.3213 16.8193C88.3213 11.1563 83.7305 6.56543 78.0674 6.56543C72.4043 6.56543 67.8135 11.1563 67.8135 16.8193C67.8135 22.4824 72.4043 27.0732 78.0674 27.0732Z" fill="#FF7EB7"/>
<path d="M77.2353 23.0996C77.8782 23.0996 78.3994 22.5784 78.3994 21.9355C78.3994 21.2927 77.8782 20.7715 77.2353 20.7715C76.5925 20.7715 76.0713 21.2927 76.0713 21.9355C76.0713 22.5784 76.5925 23.0996 77.2353 23.0996Z" fill="white"/>
<path d="M77.2357 19.6906C76.9767 19.6906 76.7284 19.5877 76.5452 19.4046C76.3621 19.2215 76.2592 18.9731 76.2592 18.7141V17.7836C76.2592 16.7066 77.1354 15.8305 78.2123 15.8305H80.0961C80.3752 15.8302 80.6427 15.7192 80.8401 15.5219C81.0374 15.3246 81.1484 15.057 81.1486 14.7779V13.6307C81.1484 13.3516 81.0374 13.084 80.8401 12.8867C80.6427 12.6894 80.3752 12.5784 80.0961 12.5781H76.0379C75.7588 12.5784 75.4913 12.6894 75.2939 12.8867C75.0966 13.084 74.9856 13.3516 74.9854 13.6307C74.9854 13.8897 74.8825 14.1381 74.6993 14.3212C74.5162 14.5043 74.2678 14.6072 74.0088 14.6072C73.7498 14.6072 73.5014 14.5043 73.3183 14.3212C73.1351 14.1381 73.0322 13.8897 73.0322 13.6307C73.0322 11.9732 74.3805 10.625 76.0379 10.625H80.0961C81.7535 10.625 83.1018 11.9732 83.1018 13.6307V14.7779C83.1018 16.4354 81.7535 17.7836 80.0961 17.7836H78.2123V18.7141C78.2123 18.9731 78.1094 19.2215 77.9263 19.4046C77.7431 19.5877 77.4947 19.6906 77.2357 19.6906Z" fill="white"/>
<path d="M45.6002 10.9626C45.3412 10.9626 45.0928 10.8597 44.9097 10.6766C44.7265 10.4934 44.6236 10.245 44.6236 9.98604C44.6233 9.6581 44.4928 9.34369 44.2609 9.1118C44.0291 8.87992 43.7147 8.74948 43.3867 8.74912C43.1277 8.74912 42.8793 8.64623 42.6962 8.46309C42.513 8.27995 42.4102 8.03156 42.4102 7.77256C42.4102 7.51356 42.513 7.26517 42.6962 7.08202C42.8793 6.89888 43.1277 6.796 43.3867 6.796C43.7147 6.79563 44.0291 6.6652 44.2609 6.43331C44.4928 6.20142 44.6233 5.88702 44.6236 5.55908C44.6236 5.30008 44.7265 5.05169 44.9097 4.86855C45.0928 4.68541 45.3412 4.58252 45.6002 4.58252C45.8592 4.58252 46.1076 4.68541 46.2907 4.86855C46.4739 5.05169 46.5768 5.30008 46.5768 5.55908C46.5771 5.88702 46.7076 6.20142 46.9394 6.43331C47.1713 6.6652 47.4857 6.79563 47.8137 6.796C48.0727 6.796 48.3211 6.89888 48.5042 7.08202C48.6873 7.26517 48.7902 7.51356 48.7902 7.77256C48.7902 8.03156 48.6873 8.27995 48.5042 8.46309C48.3211 8.64623 48.0727 8.74912 47.8137 8.74912C47.4857 8.74948 47.1713 8.87992 46.9394 9.1118C46.7076 9.34369 46.5771 9.6581 46.5768 9.98604C46.5768 10.245 46.4739 10.4934 46.2907 10.6766C46.1076 10.8597 45.8592 10.9626 45.6002 10.9626Z" fill="#01EBA4"/>
<path d="M64.1914 91.4511C63.9324 91.4511 63.684 91.3482 63.5009 91.165C63.3177 90.9819 63.2148 90.7335 63.2148 90.4745C63.2145 90.1466 63.0841 89.8322 62.8522 89.6003C62.6203 89.3684 62.3059 89.238 61.9779 89.2376C61.7189 89.2376 61.4705 89.1347 61.2874 88.9516C61.1043 88.7684 61.0014 88.52 61.0014 88.261C61.0014 88.002 61.1043 87.7536 61.2874 87.5705C61.4705 87.3874 61.7189 87.2845 61.9779 87.2845C62.3059 87.2841 62.6203 87.1537 62.8522 86.9218C63.0841 86.6899 63.2145 86.3755 63.2148 86.0476C63.2148 85.7886 63.3177 85.5402 63.5009 85.357C63.684 85.1739 63.9324 85.071 64.1914 85.071C64.4504 85.071 64.6988 85.1739 64.8819 85.357C65.0651 85.5402 65.168 85.7886 65.168 86.0476C65.1683 86.3755 65.2988 86.6899 65.5307 86.9218C65.7625 87.1537 66.0769 87.2841 66.4049 87.2845C66.6639 87.2845 66.9123 87.3874 67.0954 87.5705C67.2786 87.7536 67.3815 88.002 67.3815 88.261C67.3815 88.52 67.2786 88.7684 67.0954 88.9516C66.9123 89.1347 66.6639 89.2376 66.4049 89.2376C66.0769 89.238 65.7625 89.3684 65.5307 89.6003C65.2988 89.8322 65.1683 90.1466 65.168 90.4745C65.168 90.7335 65.0651 90.9819 64.8819 91.165C64.6988 91.3482 64.4504 91.4511 64.1914 91.4511ZM11.0191 58.3474C10.7601 58.3474 10.5117 58.2445 10.3286 58.0613C10.1455 57.8782 10.0426 57.6298 10.0426 57.3708C10.0422 57.0429 9.91178 56.7285 9.6799 56.4966C9.44801 56.2647 9.1336 56.1343 8.80566 56.1339C8.54666 56.1339 8.29827 56.031 8.11513 55.8479C7.93199 55.6647 7.8291 55.4163 7.8291 55.1573C7.8291 54.8983 7.93199 54.6499 8.11513 54.4668C8.29827 54.2837 8.54666 54.1808 8.80566 54.1808C9.1336 54.1804 9.44801 54.05 9.6799 53.8181C9.91178 53.5862 10.0422 53.2718 10.0426 52.9438C10.0426 52.6848 10.1455 52.4365 10.3286 52.2533C10.5117 52.0702 10.7601 51.9673 11.0191 51.9673C11.2781 51.9673 11.5265 52.0702 11.7097 52.2533C11.8928 52.4365 11.9957 52.6848 11.9957 52.9438C11.9961 53.2718 12.1265 53.5862 12.3584 53.8181C12.5903 54.05 12.9047 54.1804 13.2326 54.1808C13.4916 54.1808 13.74 54.2837 13.9232 54.4668C14.1063 54.6499 14.2092 54.8983 14.2092 55.1573C14.2092 55.4163 14.1063 55.6647 13.9232 55.8479C13.74 56.031 13.4916 56.1339 13.2326 56.1339C12.9047 56.1343 12.5903 56.2647 12.3584 56.4966C12.1265 56.7285 11.9961 57.0429 11.9957 57.3708C11.9957 57.6298 11.8928 57.8782 11.7097 58.0613C11.5265 58.2445 11.2781 58.3474 11.0191 58.3474Z" fill="#FF7EB7"/>
<path d="M88.3213 36.8101C86.7059 36.8101 85.3916 35.4958 85.3916 33.8804C85.3916 32.2649 86.7059 30.9507 88.3213 30.9507C89.9367 30.9507 91.251 32.2649 91.251 33.8804C91.251 35.4958 89.9367 36.8101 88.3213 36.8101ZM88.3213 32.9038C87.7828 32.9038 87.3447 33.3419 87.3447 33.8804C87.3447 34.4188 87.7828 34.8569 88.3213 34.8569C88.8598 34.8569 89.2979 34.4188 89.2979 33.8804C89.2979 33.3419 88.8598 32.9038 88.3213 32.9038Z" fill="#8298FD"/>
<path d="M13.2324 70.0801C11.617 70.0801 10.3027 68.7658 10.3027 67.1504C10.3027 65.535 11.617 64.2207 13.2324 64.2207C14.8479 64.2207 16.1621 65.535 16.1621 67.1504C16.1621 68.7658 14.8479 70.0801 13.2324 70.0801ZM13.2324 66.1738C12.6939 66.1738 12.2559 66.6119 12.2559 67.1504C12.2559 67.6889 12.6939 68.127 13.2324 68.127C13.7709 68.127 14.209 67.6889 14.209 67.1504C14.209 66.6119 13.7709 66.1738 13.2324 66.1738Z" fill="#01EBA4"/>
<defs>
<linearGradient id="paint0_linear_1287_11933" x1="12.0996" y1="91.7131" x2="95.7889" y2="8.0238" gradientUnits="userSpaceOnUse">
<stop stop-color="#FFFCFF" stop-opacity="0"/>
<stop offset="1" stop-color="#FFDAEC"/>
</linearGradient>
<linearGradient id="paint1_linear_1287_11933" x1="21.9336" y1="52.5762" x2="90.4527" y2="52.5762" gradientUnits="userSpaceOnUse">
<stop stop-color="#6582FD" stop-opacity="0.6"/>
<stop offset="0.05" stop-color="#839AFD" stop-opacity="0.57"/>
<stop offset="0.116" stop-color="#A4B5FE" stop-opacity="0.53"/>
<stop offset="0.19" stop-color="#C1CCFE" stop-opacity="0.486"/>
<stop offset="0.273" stop-color="#D8DFFE" stop-opacity="0.436"/>
<stop offset="0.368" stop-color="#E9EDFF" stop-opacity="0.379"/>
<stop offset="0.482" stop-color="#F6F8FF" stop-opacity="0.31"/>
<stop offset="0.635" stop-color="#FDFDFF" stop-opacity="0.218"/>
<stop offset="0.997" stop-color="white" stop-opacity="0"/>
</linearGradient>
<linearGradient id="paint2_linear_1287_11933" x1="9.54688" y1="16.8193" x2="78.0664" y2="16.8193" gradientUnits="userSpaceOnUse">
<stop stop-color="#6582FD" stop-opacity="0.6"/>
<stop offset="0.05" stop-color="#839AFD" stop-opacity="0.57"/>
<stop offset="0.116" stop-color="#A4B5FE" stop-opacity="0.53"/>
<stop offset="0.19" stop-color="#C1CCFE" stop-opacity="0.486"/>
<stop offset="0.273" stop-color="#D8DFFE" stop-opacity="0.436"/>
<stop offset="0.368" stop-color="#E9EDFF" stop-opacity="0.379"/>
<stop offset="0.482" stop-color="#F6F8FF" stop-opacity="0.31"/>
<stop offset="0.635" stop-color="#FDFDFF" stop-opacity="0.218"/>
<stop offset="0.997" stop-color="white" stop-opacity="0"/>
</linearGradient>
</defs>
</svg>
