<svg width="20" height="20" viewBox="0 0 20 20" fill="none" xmlns="http://www.w3.org/2000/svg">
<path d="M16.6667 8.33333C16.8877 8.33333 17.0996 8.24554 17.2559 8.08926C17.4122 7.93298 17.5 7.72101 17.5 7.5V5C17.5 4.77899 17.4122 4.56702 17.2559 4.41074C17.0996 4.25446 16.8877 4.16667 16.6667 4.16667H14.5833C14.454 4.16667 14.3264 4.13655 14.2107 4.07869C14.0949 4.02083 13.9943 3.93683 13.9167 3.83333L13.1667 2.83333C13.089 2.72984 12.9884 2.64583 12.8727 2.58798C12.757 2.53012 12.6294 2.5 12.5 2.5H10.8333C10.6123 2.5 10.4004 2.5878 10.2441 2.74408C10.0878 2.90036 10 3.11232 10 3.33333V7.5C10 7.72101 10.0878 7.93298 10.2441 8.08926C10.4004 8.24554 10.6123 8.33333 10.8333 8.33333H16.6667Z" stroke="#0A0A0A" stroke-width="1.66667" stroke-linecap="round" stroke-linejoin="round"/>
<path d="M16.6667 17.5001C16.8877 17.5001 17.0996 17.4123 17.2559 17.256C17.4122 17.0997 17.5 16.8878 17.5 16.6668V14.1668C17.5 13.9457 17.4122 13.7338 17.2559 13.5775C17.0996 13.4212 16.8877 13.3334 16.6667 13.3334H14.25C14.0975 13.3314 13.9485 13.2876 13.8192 13.2068C13.6899 13.126 13.5853 13.0113 13.5167 12.8751L13.1667 12.1668C13.1016 12.0177 12.9944 11.8909 12.8581 11.8021C12.7219 11.7132 12.5626 11.6662 12.4 11.6668H10.8333C10.6123 11.6668 10.4004 11.7546 10.2441 11.9108C10.0878 12.0671 10 12.2791 10 12.5001V16.6668C10 16.8878 10.0878 17.0997 10.2441 17.256C10.4004 17.4123 10.6123 17.5001 10.8333 17.5001H16.6667Z" stroke="#0A0A0A" stroke-width="1.66667" stroke-linecap="round" stroke-linejoin="round"/>
<path d="M2.5 4.16675C2.5 4.60878 2.67559 5.0327 2.98816 5.34526C3.30072 5.65782 3.72464 5.83341 4.16667 5.83341H6.66667" stroke="#0A0A0A" stroke-width="1.66667" stroke-linecap="round" stroke-linejoin="round"/>
<path d="M2.5 2.5V13.3333C2.5 13.7754 2.67559 14.1993 2.98816 14.5118C3.30072 14.8244 3.72464 15 4.16667 15H6.66667" stroke="#0A0A0A" stroke-width="1.66667" stroke-linecap="round" stroke-linejoin="round"/>
</svg>
