<?xml version="1.0" encoding="UTF-8"?>
<svg id="Layer_1" data-name="Layer 1" xmlns="http://www.w3.org/2000/svg" xmlns:xlink="http://www.w3.org/1999/xlink" viewBox="0 0 1000 1000">
  <defs>
    <style>
      .cls-1 {
        fill: url(#linear-gradient-2);
      }

      .cls-2 {
        fill: #fff;
      }

      .cls-3 {
        mask: url(#mask);
      }

      .cls-4 {
        fill: url(#linear-gradient);
      }
    </style>
    <linearGradient id="linear-gradient" x1="10" y1="256.66" x2="990" y2="256.66" gradientUnits="userSpaceOnUse">
      <stop offset=".17" stop-color="#69abf7"/>
      <stop offset="1" stop-color="#0a5bb8"/>
    </linearGradient>
    <linearGradient id="linear-gradient-2" x1="40.64" y1="830.43" x2="959.36" y2="830.43" xlink:href="#linear-gradient"/>
    <mask id="mask" x="168.32" y="111.8" width="663.63" height="322.84" maskUnits="userSpaceOnUse">
      <g id="mask0_53_6734" data-name="mask0 53 6734">
        <path class="cls-2" d="M831.94,111.8H168.32v322.84h663.63V111.8Z"/>
      </g>
    </mask>
  </defs>
  <circle class="cls-2" cx="500" cy="500" r="490"/>
  <g>
    <g>
      <path class="cls-4" d="M989.96,503.33c0-1.11.04-2.22.04-3.33,0-270.62-219.38-490-490-490S10,229.38,10,500c0,1.11.03,2.22.04,3.33h979.92Z"/>
      <path class="cls-1" d="M40.64,670.87c69.35,186.36,248.84,319.13,459.36,319.13s390.01-132.77,459.36-319.13H40.64Z"/>
    </g>
    <g class="cls-3">
      <g>
        <path class="cls-2" d="M272.98,280.71l-47.23,57.21v21.23h85.85v-28.4h-39.02l37.54-48.14v-30.3h-82.75v28.4h45.61ZM356.27,324.13v35.3h33.78v-35.3l35.12-71.96h-34.85l-17.22,40.58-17.1-40.58h-34.85l35.12,71.96ZM525.68,325.62v-73.45h-33.64v61.55c0,12.57-2.56,18.39-9.83,18.39h-4.17c-5.64,0-9.68-5.82-9.68-18.39v-61.55h-33.64v73.45c0,21.23,16.28,33.68,39.82,33.68h12.65c24.36,0,38.48-12.45,38.48-33.68ZM546.55,359.15h33.64v-29.89h6.85l17.49,29.89h34.86l-20.46-32.32c8.48-5.14,13.85-17.04,13.85-34.89,0-26.91-12.11-39.63-37-39.63h-49.24v106.85ZM591.62,304.92h-11.43v-25.56h11.43c8.07,0,11.7,4.06,11.7,13.12s-3.63,12.45-11.7,12.45ZM697.51,319.38l9.03-29.74,7.39,29.74h-16.42ZM648.81,359.29h36.47l3.9-12.98h31.48l3.24,12.84h36.33l-37.41-106.98h-35.53l-38.48,107.12Z"/>
        <path class="cls-2" d="M309.51,221.06c57.81-79.19,165.96-113.98,260.11-86.72,32.05,9.25,64.35,23.5,88.48,47.32,17.75,18.9-5.99,46.59-27.17,31.94-11.58-8.5-22.74-17.28-34.7-25.25-88.95-59.79-211.96-43.61-286.73,32.72Z"/>
        <path class="cls-2" d="M179.39,409.37h-2.2c0,3.44,2.03,5.47,5.5,5.47h3.09c3.22,0,4.72-1.42,4.72-4.48v-.26c0-2.08-1.07-3.47-3.1-4.02l-6.51-1.72c-1.06-.29-1.5-.86-1.5-2v-.22c0-1.6.98-2.43,3.3-2.43h2.3c2.23,0,3.3,1.11,3.3,3.42l2.2-.03c0-3.44-2.03-5.48-5.5-5.48h-2.3c-3.4,0-5.5,1.63-5.5,4.49v.25c0,2.08,1.07,3.47,3.11,4.02l6.5,1.72c1.06.29,1.5.86,1.5,1.99v.26c0,1.6-.73,2.39-3.06,2.39h-2.3c-2.23,0-3.55-1.05-3.55-3.37ZM206.7,399.71v15.12h2.2v-15.12h5.87v-2.09h-13.95v2.09h5.87ZM238.02,409.37v-11.75h-2.2v11.75c0,2.32-1.07,3.37-3.3,3.37h-2.05c-2.23,0-3.3-1.05-3.3-3.37v-11.75h-2.2v11.75c0,3.44,2.03,5.47,5.5,5.47h2.05c3.47,0,5.5-2.02,5.5-5.47ZM258.81,412.74h-6.33v-13.03h6.33c2.23,0,3.3,1.11,3.3,3.42v6.24c0,2.32-1.07,3.37-3.3,3.37ZM258.81,397.62h-8.54v17.21h8.54c3.47,0,5.51-2.02,5.51-5.47v-6.24c0-3.44-2.04-5.51-5.51-5.51ZM280.49,409.18v5.66h2.2v-5.66l5.75-11.56h-2.43l-4.42,9.22-4.43-9.22h-2.42l5.75,11.56ZM315.64,409.37h-2.2c0,3.44,2.04,5.47,5.51,5.47h3.09c3.23,0,4.72-1.42,4.72-4.48v-.26c0-2.08-1.07-3.47-3.1-4.02l-6.51-1.72c-1.05-.29-1.5-.86-1.5-2v-.22c0-1.6.98-2.43,3.3-2.43h2.3c2.23,0,3.3,1.11,3.3,3.42l2.2-.03c0-3.44-2.03-5.48-5.5-5.48h-2.3c-3.4,0-5.51,1.63-5.51,4.49v.25c0,2.08,1.07,3.47,3.11,4.02l6.51,1.72c1.05.29,1.48.86,1.48,1.99v.26c0,1.6-.73,2.39-3.06,2.39h-2.3c-2.23,0-3.55-1.05-3.55-3.37ZM338.76,397.62v17.21h2.2v-12.3l4.89,12.3h2.45l4.89-12.3v12.3h2.2v-17.21h-2.54l-5.78,14.51-5.78-14.51h-2.54ZM377.96,408.86h-6.66l3.33-8.48,3.33,8.48ZM382.7,414.83l-6.97-17.21h-2.2l-6.97,17.21h2.42l1.52-3.88h8.26l1.52,3.88h2.42ZM400.86,405.95h-4.8v-6.24h4.8c2.32,0,2.91,1.01,2.91,3.01,0,2.46-.69,3.24-2.91,3.24ZM396.06,414.83v-6.79h4.38l3.74,6.79h2.77l-3.91-7.08c2.12-.6,2.94-2.09,2.94-4.95,0-3.65-1.52-5.19-5.1-5.19h-7.01v17.21h2.2ZM423.13,399.71v15.12h2.2v-15.12h5.87v-2.09h-13.95v2.09h5.87ZM442.47,397.62v17.21h12.48v-2.09h-10.28v-5.48h9.05v-2.09h-9.05v-5.47h10.28v-2.09h-12.48ZM473.71,405.95h-4.8v-6.24h4.8c2.32,0,2.91,1.01,2.91,3.01,0,2.46-.68,3.24-2.91,3.24ZM468.92,414.83v-6.79h4.38l3.75,6.79h2.76l-3.91-7.08c2.13-.6,2.94-2.09,2.94-4.95,0-3.65-1.51-5.19-5.08-5.19h-7.03v17.21h2.2ZM494.21,412.16h-3v3.22h3v-3.22ZM528.27,407.33h-4.87v-7.6h4.87c2.23,0,3.3,1.08,3.3,3.39v.83c0,2.32-1.07,3.37-3.3,3.37ZM523.41,414.83v-5.41h4.87c3.48,0,5.51-2.02,5.51-5.46v-.83c0-3.44-2.03-5.48-5.51-5.48h-7.07v17.19h2.2ZM553.59,408.86h-6.66l3.33-8.48,3.33,8.48ZM558.34,414.83l-6.97-17.21h-2.2l-6.97,17.21h2.42l1.52-3.88h8.26l1.52,3.88h2.42ZM570.91,409.37h-2.2c0,3.44,2.04,5.47,5.51,5.47h3.09c3.23,0,4.73-1.42,4.73-4.48v-.26c0-2.08-1.09-3.47-3.11-4.02l-6.51-1.72c-1.05-.29-1.49-.86-1.49-2v-.22c0-1.6.98-2.43,3.3-2.43h2.31c2.22,0,3.3,1.11,3.3,3.42l2.2-.03c0-3.44-2.04-5.48-5.51-5.48h-2.31c-3.4,0-5.51,1.63-5.51,4.49v.25c0,2.08,1.09,3.47,3.11,4.02l6.51,1.72c1.05.29,1.5.86,1.5,1.99v.26c0,1.6-.73,2.39-3.06,2.39h-2.31c-2.22,0-3.55-1.05-3.55-3.37ZM595.87,409.37h-2.2c0,3.44,2.04,5.47,5.5,5.47h3.08c3.24,0,4.73-1.42,4.73-4.48v-.26c0-2.08-1.09-3.47-3.11-4.02l-6.51-1.72c-1.05-.29-1.49-.86-1.49-2v-.22c0-1.6.98-2.43,3.3-2.43h2.31c2.22,0,3.3,1.11,3.3,3.42l2.2-.03c0-3.44-2.04-5.48-5.5-5.48h-2.31c-3.4,0-5.5,1.63-5.5,4.49v.25c0,2.08,1.09,3.47,3.11,4.02l6.51,1.72c1.05.29,1.5.86,1.5,1.99v.26c0,1.6-.73,2.39-3.06,2.39h-2.31c-2.22,0-3.55-1.05-3.55-3.37ZM635.4,409.37h-2.2c0,3.44,2.04,5.47,5.51,5.47h3.08c3.24,0,4.72-1.42,4.72-4.48v-.26c0-2.08-1.07-3.47-3.1-4.02l-6.51-1.72c-1.05-.29-1.5-.86-1.5-2v-.22c0-1.6.98-2.43,3.3-2.43h2.3c2.23,0,3.3,1.11,3.3,3.42l2.2-.03c0-3.44-2.02-5.48-5.5-5.48h-2.3c-3.4,0-5.51,1.63-5.51,4.49v.25c0,2.08,1.07,3.47,3.11,4.02l6.51,1.72c1.05.29,1.48.86,1.48,1.99v.26c0,1.6-.73,2.39-3.06,2.39h-2.3c-2.23,0-3.55-1.05-3.55-3.37ZM662.71,399.71v15.12h2.2v-15.12h5.87v-2.09h-13.95v2.09h5.87ZM689.07,405.95h-4.8v-6.24h4.8c2.32,0,2.91,1.01,2.91,3.01,0,2.46-.69,3.24-2.91,3.24ZM684.27,414.83v-6.79h4.38l3.74,6.79h2.77l-3.91-7.08c2.12-.6,2.94-2.09,2.94-4.95,0-3.65-1.52-5.19-5.1-5.19h-7.01v17.21h2.2ZM714.97,412.74h-3.03c-2.23,0-3.3-1.05-3.3-3.37v-6.24c0-2.31,1.07-3.39,3.3-3.39h3.03c2.23,0,3.3,1.08,3.3,3.39v6.24c0,2.32-1.07,3.37-3.3,3.37ZM711.94,414.83h3.03c3.47,0,5.5-2.02,5.5-5.47v-6.24c0-3.44-2.04-5.48-5.5-5.48h-3.03c-3.48,0-5.5,2.04-5.5,5.48v6.24c0,3.44,2.02,5.47,5.5,5.47ZM732.74,397.62v17.21h2.15v-14.14l9.35,14.14h2.69v-17.21h-2.16v14.14l-9.34-14.14h-2.69ZM773.23,409.37v-4.19h-6.73v2.09h4.53v2.1c0,2.32-1.09,3.37-3.31,3.37h-3.04c-2.22,0-3.3-1.05-3.3-3.37v-6.24c0-2.31,1.09-3.39,3.3-3.39h3.04c2.22,0,3.31,1.08,3.31,3.39h2.2c0-3.44-2.04-5.48-5.51-5.48h-3.04c-3.47,0-5.5,2.04-5.5,5.48v6.24c0,3.44,2.04,5.47,5.5,5.47h3.04c3.47,0,5.51-2.02,5.51-5.47ZM785.47,397.62v17.21h12.48v-2.09h-10.27v-5.48h9.05v-2.09h-9.05v-5.47h10.27v-2.09h-12.48ZM816.72,405.95h-4.8v-6.24h4.8c2.33,0,2.91,1.01,2.91,3.01,0,2.46-.68,3.24-2.91,3.24ZM811.92,414.83v-6.79h4.38l3.75,6.79h2.76l-3.91-7.08c2.13-.6,2.94-2.09,2.94-4.95,0-3.65-1.51-5.19-5.09-5.19h-7.02v17.21h2.2Z"/>
      </g>
    </g>
    <g>
      <path d="M107.99,613.05l28.97-68.01h21.49l29.07,68.01v4.67h-14.54l-24.3-59.5h-2.18l-24.4,59.5h-14.12v-4.67ZM131.04,588.34h33.54l4.98,13.19h-43.51l4.98-13.19Z"/>
      <path d="M195.31,605.79h14.54v-48.8h-14.54v-11.94h44.13v11.94h-14.54v48.8h14.54v11.94h-44.13v-11.94Z"/>
      <path d="M247.74,576.3h32.81v12.25h-32.81v-12.25Z"/>
      <path d="M297.17,545.04h52.33l13.5,13.5v24.4l-13.5,13.5h-37.28v21.28h-15.06v-72.68ZM342.23,583.26l5.71-5.71v-13.6l-5.71-5.71h-30.01v25.03h30.01Z"/>
      <path d="M375.97,602.78v-42.78l14.95-14.95h42.99l14.95,14.95v42.78l-14.95,14.95h-42.99l-14.95-14.95ZM426.75,604.54l7.06-7.06v-32.19l-7.06-7.06h-28.66l-7.06,7.06v32.19l7.06,7.06h28.66Z"/>
      <path d="M457.17,549.72v-4.67h14.23l17.75,58.56h2.49l12.67-39.25-4.36-14.64v-4.67h14.02l16.93,58.56h2.49l17.34-58.56h13.91v4.67l-20.56,68.01h-22.53l-9.76-32.08h-1.56l-10.18,32.08h-22.12l-20.77-68.01Z"/>
      <path d="M577.1,545.04h62.72v13.19h-47.66v16.61h36.24v12.56h-36.24v17.13h48.7v13.19h-63.75v-72.68Z"/>
      <path d="M654.76,545.04h53.06l13.5,13.5v21.39l-12.56,12.56,14.85,20.56v4.67h-14.74l-16.82-23.88h-22.22v23.88h-15.06v-72.68ZM700.03,581.28l6.23-6.23v-11.21l-6.23-6.23h-30.22v23.67h30.22Z"/>
      <path d="M739.38,545.04h62.71v13.19h-47.66v16.61h36.24v12.56h-36.24v17.13h48.7v13.19h-63.75v-72.68Z"/>
      <path d="M817.05,545.04h54.51l14.95,14.95v42.78l-14.95,14.95h-54.51v-72.68ZM864.4,604.54l7.06-7.06v-32.19l-7.06-7.06h-32.29v46.31h32.29Z"/>
    </g>
    <g>
      <path class="cls-2" d="M263.91,742.15c.57-1.16,1.97-1.63,3.13-1.06.46.23.83.6,1.06,1.06l10.18,20.62c1.36,2.76,3.99,4.67,7.03,5.11l22.77,3.33c1.28.19,2.16,1.37,1.98,2.65-.07.51-.31.98-.68,1.34l-16.47,16.04c-2.2,2.15-3.21,5.24-2.69,8.28l3.89,22.66c.22,1.27-.62,2.48-1.89,2.71-.51.09-1.04,0-1.5-.24l-20.36-10.7c-2.72-1.43-5.97-1.43-8.7,0l-20.35,10.7c-1.14.6-2.55.17-3.16-.97-.24-.46-.33-.99-.24-1.5l3.88-22.65c.52-3.04-.49-6.13-2.69-8.28l-16.47-16.03c-.93-.9-.95-2.38-.06-3.3.36-.37.84-.62,1.35-.69l22.77-3.33c3.04-.44,5.68-2.35,7.04-5.11l10.18-20.62Z"/>
      <path class="cls-2" d="M497.91,742.15c.57-1.16,1.97-1.63,3.13-1.06.46.23.83.6,1.06,1.06l10.18,20.62c1.36,2.76,3.99,4.67,7.03,5.11l22.77,3.33c1.28.19,2.16,1.37,1.98,2.65-.07.51-.31.98-.68,1.34l-16.47,16.04c-2.2,2.15-3.21,5.24-2.69,8.28l3.89,22.66c.22,1.27-.62,2.48-1.89,2.71-.51.09-1.04,0-1.5-.24l-20.36-10.7c-2.72-1.43-5.97-1.43-8.7,0l-20.35,10.7c-1.14.6-2.55.17-3.16-.97-.24-.46-.33-.99-.24-1.5l3.88-22.65c.52-3.04-.49-6.13-2.69-8.28l-16.47-16.03c-.93-.9-.95-2.38-.06-3.3.36-.37.84-.62,1.35-.69l22.77-3.33c3.04-.44,5.68-2.35,7.04-5.11l10.18-20.62Z"/>
      <path class="cls-2" d="M380.91,742.15c.57-1.16,1.97-1.63,3.13-1.06.46.23.83.6,1.06,1.06l10.18,20.62c1.36,2.76,3.99,4.67,7.03,5.11l22.77,3.33c1.28.19,2.16,1.37,1.98,2.65-.07.51-.31.98-.68,1.34l-16.47,16.04c-2.2,2.15-3.21,5.24-2.69,8.28l3.89,22.66c.22,1.27-.62,2.48-1.89,2.71-.51.09-1.04,0-1.5-.24l-20.36-10.7c-2.72-1.43-5.97-1.43-8.7,0l-20.35,10.7c-1.14.6-2.55.17-3.16-.97-.24-.46-.33-.99-.24-1.5l3.88-22.65c.52-3.04-.49-6.13-2.69-8.28l-16.47-16.03c-.93-.9-.95-2.38-.06-3.3.36-.37.84-.62,1.35-.69l22.77-3.33c3.04-.44,5.68-2.35,7.04-5.11l10.18-20.62Z"/>
      <path class="cls-2" d="M614.91,742.15c.57-1.16,1.97-1.63,3.13-1.06.46.23.83.6,1.06,1.06l10.18,20.62c1.36,2.76,3.99,4.67,7.03,5.11l22.77,3.33c1.28.19,2.16,1.37,1.98,2.65-.07.51-.31.98-.68,1.34l-16.47,16.04c-2.2,2.15-3.21,5.24-2.69,8.28l3.89,22.66c.22,1.27-.62,2.48-1.89,2.71-.51.09-1.04,0-1.5-.24l-20.36-10.7c-2.72-1.43-5.97-1.43-8.7,0l-20.35,10.7c-1.14.6-2.55.17-3.16-.97-.24-.46-.33-.99-.24-1.5l3.88-22.65c.52-3.04-.49-6.13-2.69-8.28l-16.47-16.03c-.93-.9-.95-2.38-.06-3.3.36-.37.84-.62,1.35-.69l22.77-3.33c3.04-.44,5.68-2.35,7.04-5.11l10.18-20.62Z"/>
      <path class="cls-2" d="M731.91,742.15c.57-1.16,1.97-1.63,3.13-1.06.46.23.83.6,1.06,1.06l10.18,20.62c1.36,2.76,3.99,4.67,7.03,5.11l22.77,3.33c1.28.19,2.16,1.37,1.98,2.65-.07.51-.31.98-.68,1.34l-16.47,16.04c-2.2,2.15-3.21,5.24-2.69,8.28l3.89,22.66c.22,1.27-.62,2.48-1.89,2.71-.51.09-1.04,0-1.5-.24l-20.36-10.7c-2.72-1.43-5.97-1.43-8.7,0l-20.35,10.7c-1.14.6-2.55.17-3.16-.97-.24-.46-.33-.99-.24-1.5l3.88-22.65c.52-3.04-.49-6.13-2.69-8.28l-16.47-16.03c-.93-.9-.95-2.38-.06-3.3.36-.37.84-.62,1.35-.69l22.77-3.33c3.04-.44,5.68-2.35,7.04-5.11l10.18-20.62Z"/>
    </g>
  </g>
</svg>