<svg width="32" height="33" viewBox="0 0 32 33" fill="none" xmlns="http://www.w3.org/2000/svg">
<path d="M13.4012 7.03721H18.6652C18.811 7.03237 18.9495 6.97206 19.0524 6.86859C19.1553 6.76511 19.2148 6.62627 19.2188 6.48041C19.2215 6.32948 19.1651 6.18348 19.0617 6.0735C18.9583 5.96352 18.816 5.89826 18.6652 5.89161H13.4012C13.3228 5.8899 13.2449 5.90388 13.172 5.9327C13.099 5.96153 13.0326 6.00463 12.9766 6.05947C12.9205 6.11432 12.876 6.17981 12.8456 6.25209C12.8152 6.32437 12.7996 6.402 12.7996 6.48041C12.8062 6.63151 12.8714 6.77409 12.9813 6.87801C13.0912 6.98192 13.2372 7.03902 13.3884 7.03721H13.4012ZM28.2108 19.2612C28.7108 18.9715 29.1272 18.5572 29.4194 18.0586C29.7116 17.56 29.8696 16.9942 29.878 16.4164C29.885 15.8374 29.7388 15.2667 29.4543 14.7623C29.1699 14.2579 28.7571 13.8377 28.258 13.5441C27.7588 13.2505 27.1909 13.094 26.6119 13.0905C26.0328 13.0869 25.463 13.2365 24.9603 13.524C24.4576 13.8115 24.0398 14.2267 23.7492 14.7276C23.4586 15.2285 23.3055 15.7973 23.3054 16.3764C23.3054 16.9555 23.4583 17.5243 23.7488 18.0253C24.0393 18.5263 24.457 18.9416 24.9596 19.2292C24.3 19.5457 23.7429 20.0417 23.3524 20.6603C22.9619 21.279 22.7536 21.9952 22.7516 22.7268V24.1796H20.102C19.7841 24.1788 19.4691 24.2408 19.1752 24.362C18.8813 24.4833 18.6143 24.6615 18.3895 24.8863C18.1647 25.1111 17.9865 25.3781 17.8652 25.672C17.744 25.9659 17.682 26.2809 17.6828 26.5988C17.6821 27.0383 17.8064 27.4689 18.0412 27.8404H13.99C14.2248 27.4689 14.3491 27.0383 14.3484 26.5988C14.3411 25.965 14.0883 25.3586 13.6431 24.9074C13.1978 24.4562 12.5949 24.1953 11.9612 24.1796H9.24761V22.7396C9.25517 22.0125 9.05265 21.2987 8.66438 20.684C8.2761 20.0692 7.71859 19.5796 7.05881 19.274C7.55883 18.9843 7.97523 18.57 8.26742 18.0714C8.55961 17.5728 8.71761 17.007 8.72601 16.4292C8.72981 15.9967 8.64811 15.5677 8.48562 15.1669C8.32312 14.7661 8.08303 14.4013 7.77913 14.0935C7.47524 13.7858 7.11353 13.5411 6.71479 13.3735C6.31604 13.206 5.88812 13.1189 5.45561 13.1172C4.72517 13.1077 4.01253 13.3428 3.43112 13.7851C2.84971 14.2273 2.43293 14.8514 2.24711 15.5578C2.0613 16.2643 2.11712 17.0126 2.40569 17.6837C2.69427 18.3548 3.19902 18.9101 3.83961 19.2612C3.17246 19.5622 2.60629 20.0493 2.20898 20.664C1.81168 21.2787 1.6001 21.9949 1.59961 22.7268V30.8996H30.3996V22.7268C30.4068 21.9998 30.2041 21.2862 29.8159 20.6715C29.4276 20.0568 28.8703 19.5671 28.2108 19.2612ZM26.6076 14.2596C27.1746 14.2664 27.716 14.4968 28.1139 14.9007C28.5118 15.3046 28.7341 15.8494 28.7324 16.4164C28.7324 16.9842 28.5069 17.5287 28.1054 17.9302C27.7039 18.3317 27.1594 18.5572 26.5916 18.5572C26.0238 18.5572 25.4793 18.3317 25.0778 17.9302C24.6764 17.5287 24.4508 16.9842 24.4508 16.4164C24.4508 15.8444 24.678 15.2958 25.0825 14.8913C25.487 14.4868 26.0356 14.2596 26.6076 14.2596ZM5.45561 14.2596C6.02259 14.2664 6.56396 14.4968 6.9619 14.9007C7.35984 15.3046 7.58214 15.8494 7.58041 16.4164C7.58125 16.6957 7.52687 16.9724 7.42039 17.2305C7.31391 17.4887 7.15743 17.7233 6.95995 17.9208C6.76248 18.1182 6.52791 18.2747 6.26973 18.3812C6.01156 18.4877 5.73488 18.5421 5.45561 18.5412C4.88783 18.5412 4.34331 18.3157 3.94184 17.9142C3.54036 17.5127 3.31481 16.9682 3.31481 16.4004C3.31481 15.8326 3.54036 15.2881 3.94184 14.8866C4.34331 14.4852 4.88783 14.2596 5.45561 14.2596ZM2.74521 22.7268C2.74521 22.371 2.81534 22.0187 2.95159 21.6901C3.08784 21.3614 3.28753 21.0628 3.53926 20.8114C3.79099 20.56 4.0898 20.3606 4.41863 20.2248C4.74745 20.0889 5.09983 20.0192 5.45561 20.0196C6.16415 20.0363 6.83804 20.3296 7.33317 20.8367C7.82831 21.3438 8.10541 22.0245 8.10521 22.7332V23.9428L7.41721 22.538C7.35313 22.4031 7.23808 22.2991 7.09735 22.249C6.95662 22.1989 6.80175 22.2067 6.66681 22.2708C6.53187 22.3349 6.42791 22.4499 6.3778 22.5907C6.32769 22.7314 6.33553 22.8863 6.39961 23.0212L7.51001 25.3092H11.9612C12.2842 25.3255 12.5886 25.4653 12.8114 25.6996C13.0342 25.934 13.1585 26.245 13.1585 26.5684C13.1585 26.8918 13.0342 27.2028 12.8114 27.4372C12.5886 27.6716 12.2842 27.8113 11.9612 27.8276H7.32121C6.89996 27.8351 6.48532 27.7223 6.12595 27.5023C5.76659 27.2824 5.47743 26.9645 5.29241 26.586L4.73881 25.4404C4.67325 25.307 4.55757 25.2048 4.41701 25.1563C4.27645 25.1078 4.12242 25.1169 3.98851 25.1815C3.8546 25.2462 3.75168 25.3611 3.7022 25.5013C3.65273 25.6416 3.66071 25.7957 3.72441 25.93L4.28121 27.0756C4.49346 27.5223 4.80313 27.9157 5.18745 28.2269C5.57177 28.5381 6.02097 28.7593 6.50201 28.874C6.39404 29.1557 6.38279 29.4652 6.47001 29.754H2.74521V22.7268ZM7.97401 29.7668C7.91955 29.7717 7.86467 29.7653 7.81286 29.7478C7.76104 29.7303 7.71344 29.7023 7.67307 29.6654C7.6327 29.6285 7.60046 29.5836 7.5784 29.5336C7.55635 29.4836 7.54496 29.4295 7.54496 29.3748C7.54496 29.3201 7.55635 29.2661 7.5784 29.216C7.60046 29.166 7.6327 29.1211 7.67307 29.0842C7.71344 29.0473 7.76104 29.0193 7.81286 29.0018C7.86467 28.9844 7.91955 28.9779 7.97401 28.9828H8.10521V29.7668H7.97401ZM9.25401 29.7668V28.9796H22.7516V29.7636L9.25401 29.7668ZM23.9004 29.7668V28.9796H24.0636C24.1181 28.9747 24.1729 28.9812 24.2248 28.9986C24.2766 29.0161 24.3242 29.0441 24.3645 29.081C24.4049 29.1179 24.4372 29.1628 24.4592 29.2128C24.4813 29.2629 24.4927 29.3169 24.4927 29.3716C24.4927 29.4263 24.4813 29.4804 24.4592 29.5304C24.4372 29.5804 24.4049 29.6253 24.3645 29.6622C24.3242 29.6991 24.2766 29.7271 24.2248 29.7446C24.1729 29.7621 24.1181 29.7685 24.0636 29.7636L23.9004 29.7668ZM29.2604 29.7668H25.5292C25.6341 29.4806 25.6226 29.1647 25.4972 28.8868C25.9782 28.7721 26.4274 28.5509 26.8118 28.2397C27.1961 27.9285 27.5058 27.5351 27.718 27.0884L28.2748 25.9428C28.3385 25.8085 28.3465 25.6544 28.297 25.5141C28.2475 25.3739 28.1446 25.259 28.0107 25.1943C27.8768 25.1297 27.7228 25.1206 27.5822 25.1691C27.4416 25.2176 27.326 25.3198 27.2604 25.4532L26.7068 26.5988C26.5254 26.9733 26.2415 27.2888 25.888 27.5085C25.5346 27.7283 25.1262 27.8433 24.71 27.8404H20.102C19.9313 27.849 19.7606 27.8228 19.6004 27.7634C19.4401 27.704 19.2936 27.6127 19.1697 27.4949C19.0459 27.3771 18.9472 27.2354 18.8799 27.0783C18.8125 26.9213 18.7777 26.7521 18.7777 26.5812C18.7777 26.4103 18.8125 26.2412 18.8799 26.0841C18.9472 25.927 19.0459 25.7853 19.1697 25.6675C19.2936 25.5497 19.4401 25.4584 19.6004 25.399C19.7606 25.3396 19.9313 25.3134 20.102 25.322H24.5148L25.5996 23.0212C25.6523 22.8889 25.6529 22.7416 25.6014 22.6089C25.5498 22.4762 25.45 22.3679 25.3218 22.3059C25.1937 22.2439 25.0468 22.2327 24.9107 22.2745C24.7747 22.3164 24.6595 22.4083 24.5884 22.5316L23.9004 23.9364V22.7268C23.9004 22.0088 24.1856 21.3202 24.6933 20.8125C25.201 20.3048 25.8896 20.0196 26.6076 20.0196C26.9599 20.0229 27.308 20.0959 27.632 20.2343C27.9559 20.3727 28.2493 20.5737 28.4953 20.8259C28.7412 21.0781 28.9349 21.3765 29.0651 21.7038C29.1953 22.0311 29.2595 22.381 29.254 22.7332L29.2604 29.7668ZM18.6652 8.99881H16.6396C16.561 8.99292 16.482 9.00332 16.4076 9.02936C16.3332 9.0554 16.265 9.09651 16.2072 9.15013C16.1494 9.20374 16.1033 9.26871 16.0718 9.34096C16.0403 9.41321 16.024 9.49118 16.024 9.57001C16.024 9.64884 16.0403 9.72681 16.0718 9.79906C16.1033 9.87131 16.1494 9.93628 16.2072 9.98989C16.265 10.0435 16.3332 10.0846 16.4076 10.1107C16.482 10.1367 16.561 10.1471 16.6396 10.1412H18.6684C18.8125 10.1304 18.9472 10.0656 19.0455 9.95962C19.1438 9.85369 19.1984 9.71452 19.1984 9.57001C19.1984 9.4255 19.1438 9.28633 19.0455 9.1804C18.9472 9.07447 18.8125 9.0096 18.6684 8.99881H18.6652ZM13.4012 10.1412H14.2492C14.3933 10.1304 14.528 10.0656 14.6263 9.95962C14.7246 9.85369 14.7792 9.71452 14.7792 9.57001C14.7792 9.4255 14.7246 9.28633 14.6263 9.1804C14.528 9.07447 14.3933 9.0096 14.2492 8.99881H13.4012C13.3226 8.99292 13.2436 9.00332 13.1692 9.02936C13.0948 9.0554 13.0266 9.09651 12.9688 9.15013C12.911 9.20374 12.8649 9.26871 12.8334 9.34096C12.8019 9.41321 12.7856 9.49118 12.7856 9.57001C12.7856 9.64884 12.8019 9.72681 12.8334 9.79906C12.8649 9.87131 12.911 9.93628 12.9688 9.98989C13.0266 10.0435 13.0948 10.0846 13.1692 10.1107C13.2436 10.1367 13.3226 10.1471 13.4012 10.1412ZM11.5196 14.0964L12.3068 14.0644V15.9844C12.3078 16.1895 12.3666 16.3901 12.4764 16.5633C12.5862 16.7365 12.7426 16.8752 12.9276 16.9636C13.0827 17.0285 13.2491 17.0622 13.4172 17.0628C13.6404 17.0672 13.8588 16.9975 14.038 16.8644L17.6668 14.0868H20.5468C20.856 14.0881 21.1624 14.0281 21.4484 13.9104C21.7343 13.7926 21.9941 13.6194 22.2128 13.4008C22.4314 13.1821 22.6046 12.9223 22.7224 12.6364C22.8401 12.3504 22.9001 12.044 22.8988 11.7348V4.48681C22.9009 4.17408 22.8411 3.86401 22.7229 3.57448C22.6047 3.28494 22.4304 3.02165 22.21 2.79976C21.9896 2.57788 21.7275 2.40179 21.4387 2.28162C21.15 2.16146 20.8404 2.0996 20.5276 2.09961H11.5196C10.8881 2.10381 10.2837 2.35677 9.83738 2.80364C9.39111 3.25051 9.13896 3.85527 9.13561 4.48681V11.7444C9.14068 12.3722 9.3945 12.9723 9.84141 13.4132C10.2883 13.8541 10.8918 14.0998 11.5196 14.0964ZM10.278 4.49641C10.2767 4.33255 10.3079 4.17007 10.3698 4.01832C10.4316 3.86657 10.5228 3.72857 10.6383 3.61225C10.7537 3.49594 10.891 3.40363 11.0422 3.34063C11.1935 3.27763 11.3557 3.2452 11.5196 3.24521H20.5436C20.8679 3.25193 21.1765 3.3859 21.4028 3.6182C21.6291 3.8505 21.755 4.1625 21.7532 4.48681V11.7444C21.7483 12.0637 21.6192 12.3685 21.3934 12.5943C21.1677 12.82 20.8629 12.9491 20.5436 12.954H17.6636C17.4172 12.9619 17.1783 13.0408 16.9756 13.1812L13.4396 15.8596V14.0644C13.4417 13.9207 13.4155 13.778 13.3625 13.6444C13.3094 13.5108 13.2306 13.3889 13.1304 13.2858C13.0303 13.1827 12.9108 13.1003 12.7788 13.0434C12.6468 12.9865 12.5049 12.9561 12.3612 12.954H11.5196C11.1953 12.9558 10.8833 12.8299 10.651 12.6036C10.4187 12.3773 10.2847 12.0687 10.278 11.7444V4.49641Z" fill="#1D4ED8"/>
</svg>
