<svg width="28" height="28" viewBox="0 0 28 28" fill="none" xmlns="http://www.w3.org/2000/svg">
<g clip-path="url(#clip0_6437_24120)">
<path d="M27.154 7.10172C26.4195 4.39578 23.6053 1.58211 20.8994 0.847109C19.2402 0.433672 17.0177 0.00765625 14.0005 0C10.9834 0.00765625 8.76094 0.433125 7.10172 0.847109C4.39633 1.58211 1.58211 4.39578 0.847109 7.10172C0.433672 8.76039 0.00765625 10.9834 0 14.0005C0.00765625 17.0177 0.433125 19.2402 0.847109 20.8994C1.58211 23.6053 4.39578 26.419 7.10172 27.154C8.76094 27.568 10.9834 27.9934 14.0005 28.0011C17.0171 27.9934 19.2402 27.568 20.8994 27.154C23.6053 26.419 26.419 23.6053 27.154 20.8994C27.568 19.2407 27.9934 17.0177 28.0011 14.0005C27.9934 10.9834 27.568 8.76094 27.154 7.10172Z" fill="#E6F1F4"/>
<path d="M19.4392 21.3816C21.0235 21.0742 22.5553 19.6267 22.9053 18.0467C23.1043 17.087 23.3001 15.7821 23.3034 14.0004C23.3001 12.2187 23.1049 10.9138 22.9053 9.95408C22.5553 8.37416 21.0235 6.92658 19.4392 6.61924C18.474 6.42619 15.7811 6.18775 14 6.20744C12.2188 6.18775 9.52599 6.42619 8.56075 6.61924C6.97645 6.92658 5.44466 8.37416 5.09466 9.95408C4.89505 10.9133 4.69981 12.2187 4.69653 14.0004C4.69981 15.7821 4.8956 17.087 5.09466 18.0467C5.44466 19.6267 6.97645 21.0742 8.56075 21.3816C9.52653 21.5746 12.2188 21.8131 14 21.7934C15.7811 21.8131 18.474 21.5746 19.4392 21.3816Z" fill="url(#paint0_linear_6437_24120)"/>
<path d="M14.2126 7.58716C15.967 7.58716 18.3913 7.81794 19.1689 7.97325H19.1727L19.1766 7.97489C20.2364 8.18052 21.3242 9.21903 21.5555 10.245C21.8032 11.4426 21.9202 12.6365 21.9224 14.0004C21.9197 15.3654 21.8032 16.5592 21.5555 17.7558C21.3242 18.7817 20.2364 19.8202 19.1766 20.0258H19.1727L19.1689 20.0275C18.3913 20.1828 15.967 20.4136 14.2126 20.4136C14.1459 20.4136 14.0802 20.4136 14.0157 20.4125H14.0004H13.9851C13.9206 20.413 13.8555 20.4136 13.7888 20.4136C12.0344 20.4136 9.61009 20.1828 8.83189 20.0275H8.82806L8.82423 20.0258C7.76439 19.8202 6.67665 18.7822 6.44532 17.7558C6.19759 16.5581 6.08056 15.3643 6.07837 14.0004C6.0811 12.6343 6.19759 11.4404 6.44532 10.245C6.67665 9.21903 7.76439 8.18052 8.82423 7.97489H8.82806L8.83189 7.97325C9.60954 7.81794 12.0338 7.58716 13.7882 7.58716C13.8549 7.58716 13.9206 7.58716 13.9851 7.58825H14.0004H14.0157C14.0797 7.58771 14.1448 7.58716 14.2109 7.58716H14.2126ZM14.2126 6.2063C14.1404 6.2063 14.0699 6.2063 14.0004 6.20739C13.9309 6.20685 13.8604 6.2063 13.7888 6.2063C12.0125 6.2063 9.48923 6.4338 8.56173 6.61919C6.97743 6.92653 5.44563 8.37411 5.09563 9.95403C4.89603 10.9133 4.70079 12.2186 4.69751 14.0004C4.70079 15.7821 4.89657 17.0869 5.09563 18.0467C5.44563 19.6266 6.97743 21.0742 8.56173 21.3815C9.48978 21.5669 12.0131 21.7944 13.7893 21.7944C13.8615 21.7944 13.9315 21.7944 14.0009 21.7933C14.0704 21.7939 14.1409 21.7944 14.2126 21.7944C15.9888 21.7944 18.5121 21.5669 19.4396 21.3815C21.0239 21.0742 22.5557 19.6266 22.9057 18.0467C23.1048 17.0869 23.3006 15.7821 23.3038 14.0004C23.3006 12.2186 23.1053 10.9138 22.9057 9.95403C22.5557 8.37411 21.0239 6.92653 19.4396 6.61919C18.5116 6.4338 15.9888 6.2063 14.2126 6.2063Z" fill="url(#paint1_linear_6437_24120)"/>
<path d="M8.82868 20.0267H8.83251C9.61071 20.1831 12.035 20.4133 13.7894 20.4133C13.8561 20.4133 13.9217 20.4133 13.9857 20.4122H14.001H14.0163C14.0809 20.4128 14.1465 20.4133 14.2132 20.4133C15.9681 20.4133 18.3919 20.1825 19.1695 20.0272H19.1734L19.1772 20.0256C20.237 19.8199 21.3248 18.7814 21.5561 17.7555C21.6529 17.2874 21.7295 16.8192 21.7874 16.3413C21.0152 15.2984 20.1282 14.2008 19.274 13.2443C18.8217 12.7417 18.1507 12.5208 17.4835 12.5181C16.8163 12.5208 16.1448 12.7412 15.6931 13.2443C14.6119 14.454 13.5242 15.8458 12.6142 17.1331C12.1674 16.5551 11.6943 15.9803 11.2229 15.4526C10.8909 15.0835 10.3982 14.9216 9.90821 14.9194C9.41821 14.9216 8.92548 15.0835 8.59353 15.4526C7.91376 16.2133 7.12954 17.1731 6.51978 18.006C6.85501 18.9449 7.85142 19.8363 8.82485 20.025H8.82868V20.0267Z" fill="url(#paint2_linear_6437_24120)"/>
<path d="M9.90754 13.1808C10.7976 13.1808 11.5192 12.4592 11.5192 11.5692C11.5192 10.6791 10.7976 9.95752 9.90754 9.95752C9.01745 9.95752 8.2959 10.6791 8.2959 11.5692C8.2959 12.4592 9.01745 13.1808 9.90754 13.1808Z" fill="url(#paint3_linear_6437_24120)"/>
</g>
<defs>
<linearGradient id="paint0_linear_6437_24120" x1="19.2943" y1="19.2942" x2="5.46653" y2="5.46643" gradientUnits="userSpaceOnUse">
<stop stop-color="#BCE4ED"/>
<stop offset="0.49" stop-color="white"/>
<stop offset="1" stop-color="white"/>
</linearGradient>
<linearGradient id="paint1_linear_6437_24120" x1="19.2367" y1="19.2361" x2="5.40899" y2="5.40841" gradientUnits="userSpaceOnUse">
<stop stop-color="#34344F"/>
<stop offset="0.99" stop-color="#666684"/>
</linearGradient>
<linearGradient id="paint2_linear_6437_24120" x1="18.4777" y1="21.3993" x2="10.5617" y2="13.4828" gradientUnits="userSpaceOnUse">
<stop stop-color="#13B601"/>
<stop offset="0.49" stop-color="#13B601"/>
<stop offset="0.68" stop-color="#5BCE47"/>
<stop offset="0.9" stop-color="#ABE995"/>
<stop offset="1" stop-color="#CBF4B4"/>
</linearGradient>
<linearGradient id="paint3_linear_6437_24120" x1="11.0472" y1="12.7088" x2="8.76785" y2="10.4295" gradientUnits="userSpaceOnUse">
<stop stop-color="#FE7838"/>
<stop offset="0.43" stop-color="#FE7636"/>
<stop offset="0.97" stop-color="#FFAD8A"/>
</linearGradient>
<clipPath id="clip0_6437_24120">
<rect width="28" height="28" fill="white"/>
</clipPath>
</defs>
</svg>
