<svg width="200" height="201" viewBox="0 0 200 201" fill="none" xmlns="http://www.w3.org/2000/svg">
<path d="M197.603 169.664C184.562 145.077 169.5 119.048 177.652 89.7915C180.569 79.3254 186.07 67.1347 180.143 58.1155C151.677 14.8044 125.857 65.4562 96.5673 54.1169C75.0372 45.7808 87.6048 7.70659 52.2852 1.24878C3.22823 -7.72092 -19.3315 106.807 20.2685 142.077C41.2181 160.735 73.5942 134.533 99.9551 152.934C119.297 166.435 133.427 187.868 154.414 198.41C170.301 206.389 210.122 193.266 197.603 169.664Z" fill="url(#paint0_linear_3317_24914)"/>
<path d="M42.2402 181.329C53.5664 181.329 62.748 171.88 62.748 160.223C62.748 148.566 53.5664 139.116 42.2402 139.116C30.9141 139.116 21.7324 148.566 21.7324 160.223C21.7324 171.88 30.9141 181.329 42.2402 181.329Z" fill="#6B21A8"/>
<path d="M42.2398 139.116C39.6778 139.115 37.1384 139.609 34.7539 140.574C40.1289 153.077 48.7957 163.745 59.6254 171.414C61.6703 168.061 62.7528 164.182 62.748 160.223C62.7476 148.566 53.5656 139.116 42.2398 139.116Z" fill="#A855F7"/>
<path d="M40.5781 173.15C41.8639 173.15 42.9062 172.077 42.9062 170.754C42.9062 169.43 41.8639 168.357 40.5781 168.357C39.2923 168.357 38.25 169.43 38.25 170.754C38.25 172.077 39.2923 173.15 40.5781 173.15Z" fill="white"/>
<path d="M40.5773 166.132C40.0593 166.132 39.5626 165.92 39.1963 165.543C38.83 165.166 38.6242 164.655 38.6242 164.122V162.206C38.6242 159.99 40.3766 158.186 42.5305 158.186H46.298C46.8562 158.185 47.3914 157.957 47.786 157.551C48.1807 157.144 48.4026 156.594 48.4031 156.019V153.658C48.4026 153.083 48.1806 152.532 47.786 152.126C47.3913 151.72 46.8562 151.492 46.298 151.491H38.1812C37.6231 151.492 37.088 151.72 36.6933 152.126C36.2986 152.532 36.0767 153.083 36.0762 153.658C36.0762 154.191 35.8704 154.702 35.5041 155.079C35.1378 155.456 34.641 155.668 34.123 155.668C33.605 155.668 33.1083 155.456 32.742 155.079C32.3757 154.702 32.1699 154.191 32.1699 153.658C32.1699 150.246 34.8664 147.471 38.1812 147.471H46.298C49.6129 147.471 52.3094 150.246 52.3094 153.658V156.019C52.3094 159.431 49.6129 162.206 46.298 162.206H42.5305V164.122C42.5305 164.655 42.3247 165.166 41.9584 165.543C41.5921 165.92 41.0953 166.132 40.5773 166.132Z" fill="white"/>
<path d="M46.2984 158.187H45.4625C46.4608 159.407 47.4973 160.594 48.5703 161.745C50.7613 160.82 52.3098 158.604 52.3098 156.02V153.659C52.3098 150.247 49.6133 147.472 46.2984 147.472H38.1816C38.173 147.472 38.1648 147.473 38.1562 147.473C38.9216 148.839 39.7294 150.179 40.5785 151.492H46.2984C46.8566 151.493 47.3917 151.721 47.7864 152.127C48.181 152.533 48.403 153.084 48.4035 153.659V156.02C48.4029 156.594 48.1809 157.145 47.7863 157.551C47.3916 157.957 46.8565 158.186 46.2984 158.187Z" fill="#C4B5FD"/>
<path d="M157.76 62.3841C169.086 62.3841 178.268 52.9343 178.268 41.2775C178.268 29.6206 169.086 20.1709 157.76 20.1709C146.434 20.1709 137.252 29.6206 137.252 41.2775C137.252 52.9343 146.434 62.3841 157.76 62.3841Z" fill="#9EAFFD"/>
<path d="M156.098 54.2053C157.383 54.2053 158.426 53.1325 158.426 51.8092C158.426 50.4859 157.383 49.4131 156.098 49.4131C154.812 49.4131 153.77 50.4859 153.77 51.8092C153.77 53.1325 154.812 54.2053 156.098 54.2053Z" fill="white"/>
<path d="M156.098 47.1874C155.58 47.1874 155.083 46.9756 154.717 46.5986C154.35 46.2217 154.145 45.7104 154.145 45.1772V43.262C154.145 41.0452 155.897 39.2417 158.051 39.2417H161.819C162.377 39.241 162.912 39.0125 163.307 38.6063C163.701 38.2 163.923 37.6492 163.924 37.0747V34.7132C163.923 34.1388 163.701 33.588 163.306 33.1818C162.912 32.7756 162.377 32.5472 161.819 32.5467H153.702C153.144 32.5472 152.609 32.7756 152.214 33.1818C151.819 33.588 151.597 34.1387 151.597 34.7132C151.597 35.2463 151.391 35.7576 151.025 36.1346C150.658 36.5116 150.162 36.7234 149.644 36.7234C149.126 36.7234 148.629 36.5116 148.262 36.1346C147.896 35.7576 147.69 35.2463 147.69 34.7132C147.69 31.3016 150.387 28.5264 153.702 28.5264H161.819C165.133 28.5264 167.83 31.3016 167.83 34.7132V37.0747C167.83 40.4864 165.133 43.262 161.819 43.262H158.051V45.1772C158.051 45.7104 157.845 46.2217 157.479 46.5986C157.113 46.9756 156.616 47.1874 156.098 47.1874Z" fill="white"/>
<path d="M100 174.658C139.387 174.658 171.316 141.797 171.316 101.26C171.316 60.7236 139.387 27.8623 100 27.8623C60.6136 27.8623 28.6846 60.7236 28.6846 101.26C28.6846 141.797 60.6136 174.658 100 174.658Z" fill="#8298FD"/>
<path d="M35.1309 70.7289C37.4065 71.5939 39.8135 72.0355 42.2395 72.0331C53.5656 72.0331 62.7473 62.5834 62.7473 50.9265C62.7511 47.2531 61.8188 43.6428 60.0434 40.4561C49.2695 47.97 40.6012 58.4381 35.1309 70.7289Z" fill="#6582FD"/>
<path d="M143.691 146.225C151.348 138.324 156.861 128.497 159.681 117.722L159.672 84.804C156.759 73.6147 151.12 63.9262 143.688 56.2924L115.99 39.8353C105.852 37.0296 94.8816 36.8487 84.0117 39.8462L56.3129 56.2924C48.6545 64.1938 43.1406 74.0219 40.3203 84.7984L40.3297 117.715C43.243 128.905 48.8816 138.594 56.3137 146.228L84.009 162.684C94.148 165.49 105.119 165.672 115.99 162.674L143.691 146.225Z" fill="#D1DDFF"/>
<path d="M45.2568 71.8035C55.1521 70.3015 62.7478 61.528 62.7478 50.9261C62.7478 50.7934 62.7439 50.6616 62.7416 50.5293C55.4006 56.2446 49.4549 63.5438 45.2568 71.8035Z" fill="#B6C4FF"/>
<path d="M100 127.011C111.326 127.011 120.508 117.561 120.508 105.904C120.508 94.2476 111.326 84.7979 100 84.7979C88.6738 84.7979 79.4922 94.2476 79.4922 105.904C79.4922 117.561 88.6738 127.011 100 127.011Z" fill="#B6C4FF"/>
<path d="M99.9957 101.26L40.327 117.715C37.4133 106.523 37.5914 95.2319 40.3188 84.7988L99.9957 101.26Z" fill="white"/>
<path d="M99.9961 101.258L79.5156 106.906C79.5 106.577 79.4922 106.243 79.4922 105.905C79.4922 102.42 80.3125 99.1311 81.7734 96.2324L99.9961 101.258Z" fill="#D1DDFF"/>
<path d="M100.001 101.263L84.0078 162.686C73.5387 159.782 63.9905 154.108 56.3125 146.229L100.001 101.263Z" fill="white"/>
<path d="M100 101.263L93.5703 125.951C89.457 124.556 85.9219 121.859 83.4219 118.329L100 101.263Z" fill="#D1DDFF"/>
<path d="M159.673 84.8027C162.586 95.9944 162.409 107.289 159.682 117.723L100.001 101.263L100 101.259L159.673 84.8027Z" fill="white"/>
<path d="M120.508 105.905C120.508 106.243 120.5 106.577 120.484 106.91L100 101.262V101.258L118.227 96.2324C119.687 99.1311 120.508 102.42 120.508 105.905Z" fill="#D1DDFF"/>
<path d="M143.689 56.2924L100.004 101.258L100 101.259L115.989 39.8369C126.46 42.7374 136.011 48.411 143.689 56.2924Z" fill="white"/>
<path d="M84.0113 39.8477L99.9996 101.258L56.3125 56.2931C63.7281 48.6461 73.1406 42.8452 84.0113 39.8477Z" fill="white"/>
<path d="M60.4758 60.5785C61.9716 57.5944 62.7505 54.2848 62.7473 50.927C62.7473 50.7955 62.7434 50.6648 62.741 50.5342C60.4713 52.2987 58.3233 54.2231 56.3125 56.2937L60.4758 60.5785Z" fill="#D1DDFF"/>
<path d="M143.692 146.226C136.276 153.873 126.86 159.675 115.989 162.673L100.001 101.262L143.692 146.226Z" fill="white"/>
<path d="M116.582 118.325C114.082 121.855 110.543 124.556 106.43 125.951L100 101.263L116.582 118.325Z" fill="#D1DDFF"/>
<path d="M100 122.366C111.326 122.366 120.508 112.917 120.508 101.26C120.508 89.6031 111.326 80.1533 100 80.1533C88.6738 80.1533 79.4922 89.6031 79.4922 101.26C79.4922 112.917 88.6738 122.366 100 122.366Z" fill="#FF7EB7"/>
<path d="M98.3379 114.187C99.6237 114.187 100.666 113.114 100.666 111.791C100.666 110.467 99.6237 109.395 98.3379 109.395C97.0521 109.395 96.0098 110.467 96.0098 111.791C96.0098 113.114 97.0521 114.187 98.3379 114.187Z" fill="white"/>
<path d="M98.3381 107.169C97.8201 107.169 97.3233 106.958 96.957 106.581C96.5907 106.204 96.385 105.692 96.385 105.159V103.244C96.385 101.027 98.1373 99.2237 100.291 99.2237H104.059C104.617 99.2232 105.152 98.9947 105.547 98.5885C105.941 98.1824 106.163 97.6316 106.164 97.0572V94.6956C106.163 94.1212 105.941 93.5704 105.547 93.1642C105.152 92.7581 104.617 92.5296 104.059 92.5291H95.942C95.3838 92.5296 94.8487 92.7581 94.454 93.1642C94.0594 93.5704 93.8374 94.1212 93.8369 94.6956C93.8369 95.2288 93.6311 95.7401 93.2649 96.117C92.8986 96.494 92.4018 96.7058 91.8838 96.7058C91.3658 96.7058 90.869 96.494 90.5027 96.117C90.1364 95.7401 89.9307 95.2288 89.9307 94.6956C89.9307 91.284 92.6271 88.5088 95.942 88.5088H104.059C107.373 88.5088 110.07 91.284 110.07 94.6956V97.0572C110.07 100.469 107.374 103.244 104.059 103.244H100.291V105.159C100.291 105.692 100.085 106.204 99.7191 106.581C99.3529 106.958 98.8561 107.169 98.3381 107.169Z" fill="white"/>
<path d="M101.546 46.1551H98.4537C97.9357 46.1551 97.4389 45.9433 97.0727 45.5663C96.7064 45.1893 96.5006 44.678 96.5006 44.1449C96.5006 43.6118 96.7064 43.1005 97.0727 42.7235C97.4389 42.3466 97.9357 42.1348 98.4537 42.1348H101.546C102.064 42.1348 102.561 42.3466 102.927 42.7235C103.293 43.1005 103.499 43.6118 103.499 44.1449C103.499 44.678 103.293 45.1893 102.927 45.5663C102.561 45.9433 102.064 46.1551 101.546 46.1551ZM101.546 160.385H98.4537C97.9357 160.385 97.4389 160.173 97.0727 159.796C96.7064 159.419 96.5006 158.908 96.5006 158.375C96.5006 157.842 96.7064 157.331 97.0727 156.954C97.4389 156.577 97.9357 156.365 98.4537 156.365H101.546C102.064 156.365 102.561 156.577 102.927 156.954C103.293 157.331 103.499 157.842 103.499 158.375C103.499 158.908 103.293 159.419 102.927 159.796C102.561 160.173 102.064 160.385 101.546 160.385ZM51.1651 76.091C50.8223 76.0907 50.4857 75.9976 50.189 75.821C49.8923 75.6444 49.646 75.3906 49.4748 75.085C49.3036 74.7794 49.2136 74.4328 49.2137 74.0801C49.2139 73.7273 49.3042 73.3808 49.4756 73.0754L51.0217 70.3195C51.1498 70.0908 51.3205 69.8903 51.524 69.7295C51.7275 69.5687 51.9597 69.4508 52.2075 69.3825C52.4553 69.3142 52.7137 69.2968 52.9681 69.3313C53.2224 69.3658 53.4676 69.4516 53.6897 69.5838C54.1383 69.8503 54.4656 70.2894 54.5996 70.8043C54.7337 71.3193 54.6635 71.868 54.4045 72.3296L52.8584 75.0856C52.6869 75.3915 52.4401 75.6456 52.1428 75.8221C51.8455 75.9986 51.5083 76.0914 51.1651 76.091ZM147.285 133.206C146.942 133.206 146.605 133.113 146.309 132.936C146.012 132.76 145.766 132.506 145.594 132.2C145.423 131.895 145.333 131.548 145.333 131.195C145.334 130.843 145.424 130.496 145.595 130.191L147.142 127.435C147.27 127.206 147.441 127.006 147.644 126.845C147.847 126.684 148.08 126.566 148.327 126.498C148.575 126.43 148.834 126.412 149.088 126.447C149.342 126.481 149.587 126.567 149.81 126.699C150.032 126.831 150.226 127.007 150.383 127.216C150.539 127.425 150.653 127.665 150.72 127.92C150.786 128.175 150.803 128.44 150.769 128.702C150.736 128.964 150.653 129.216 150.524 129.445L148.978 132.201C148.807 132.507 148.56 132.761 148.263 132.937C147.965 133.114 147.628 133.207 147.285 133.206ZM52.7147 133.206C52.3714 133.207 52.0342 133.114 51.7369 132.937C51.4396 132.761 51.1928 132.507 51.0213 132.201L49.4752 129.445C49.345 129.216 49.2599 128.963 49.225 128.701C49.1901 128.438 49.2061 128.171 49.2719 127.914C49.3377 127.658 49.4522 127.418 49.6087 127.207C49.7651 126.997 49.9605 126.82 50.1836 126.687C50.4066 126.555 50.653 126.469 50.9084 126.435C51.1638 126.401 51.4233 126.419 51.6719 126.488C51.9205 126.558 52.1532 126.677 52.3568 126.84C52.5604 127.002 52.7307 127.204 52.858 127.435L54.4041 130.191C54.5756 130.496 54.6659 130.843 54.666 131.195C54.6662 131.548 54.5761 131.895 54.4049 132.2C54.2337 132.506 53.9874 132.76 53.6907 132.936C53.394 133.113 53.0574 133.206 52.7147 133.206ZM148.835 76.091C148.492 76.0915 148.154 75.9987 147.857 75.8222C147.56 75.6457 147.313 75.3916 147.142 75.0856L145.595 72.3296C145.467 72.1011 145.384 71.8487 145.35 71.587C145.317 71.3252 145.334 71.0593 145.4 70.8043C145.467 70.5493 145.581 70.3103 145.737 70.1009C145.893 69.8914 146.088 69.7157 146.31 69.5838C146.532 69.4517 146.778 69.366 147.032 69.3316C147.286 69.2971 147.545 69.3145 147.792 69.3828C148.04 69.4511 148.272 69.569 148.476 69.7297C148.679 69.8904 148.85 70.0909 148.978 70.3195L150.524 73.0754C150.696 73.3808 150.786 73.7273 150.787 74.0801C150.787 74.4329 150.697 74.7795 150.526 75.0852C150.354 75.3908 150.108 75.6446 149.811 75.8212C149.514 75.9978 149.178 76.0908 148.835 76.091Z" fill="#FF7EB7"/>
<path d="M70.9154 54.6023C70.4852 54.6028 70.0668 54.4572 69.7253 54.188C69.3837 53.9187 69.1381 53.541 69.0265 53.1133C68.915 52.6857 68.9438 52.2321 69.1084 51.823C69.273 51.4139 69.5642 51.0722 69.9369 50.8509L72.6146 49.2597C73.063 48.9973 73.594 48.9281 74.0917 49.0672C74.5895 49.2063 75.0135 49.5423 75.2714 50.002C75.5293 50.4617 75.6001 51.0078 75.4682 51.5209C75.3364 52.0341 75.0127 52.4728 74.5678 52.7413L71.89 54.3325C71.5939 54.5092 71.2577 54.6023 70.9154 54.6023ZM126.41 153.529C125.98 153.53 125.561 153.384 125.219 153.115C124.877 152.846 124.632 152.468 124.52 152.04C124.408 151.612 124.437 151.158 124.602 150.749C124.767 150.34 125.058 149.998 125.431 149.777L128.109 148.186C128.331 148.054 128.576 147.968 128.831 147.934C129.085 147.899 129.343 147.917 129.591 147.985C129.839 148.053 130.071 148.171 130.275 148.332C130.478 148.493 130.649 148.693 130.777 148.922C130.905 149.15 130.989 149.403 131.022 149.664C131.056 149.926 131.039 150.192 130.972 150.447C130.906 150.702 130.791 150.941 130.635 151.151C130.479 151.36 130.284 151.536 130.062 151.668L127.385 153.259C127.088 153.436 126.752 153.529 126.41 153.529ZM44.5049 104.861C43.9869 104.861 43.4901 104.649 43.1238 104.272C42.7575 103.895 42.5518 103.384 42.5518 102.851V99.6682C42.5518 99.1351 42.7575 98.6238 43.1238 98.2468C43.4901 97.8699 43.9869 97.6581 44.5049 97.6581C45.0229 97.6581 45.5197 97.8699 45.886 98.2468C46.2522 98.6238 46.458 99.1351 46.458 99.6682V102.851C46.458 103.384 46.2522 103.895 45.886 104.272C45.5197 104.649 45.0229 104.861 44.5049 104.861ZM155.494 104.861C154.976 104.861 154.479 104.649 154.113 104.272C153.747 103.895 153.541 103.384 153.541 102.851V99.6682C153.541 99.1351 153.747 98.6238 154.113 98.2468C154.479 97.8699 154.976 97.6581 155.494 97.6581C156.012 97.6581 156.509 97.8699 156.875 98.2468C157.242 98.6238 157.447 99.1351 157.447 99.6682V102.851C157.447 103.384 157.242 103.895 156.875 104.272C156.509 104.649 156.012 104.861 155.494 104.861ZM73.5892 153.529C73.247 153.529 72.9107 153.436 72.6146 153.259L69.9369 151.668C69.713 151.537 69.5165 151.361 69.3586 151.152C69.2008 150.942 69.0848 150.703 69.0174 150.447C68.9499 150.191 68.9322 149.924 68.9654 149.661C68.9986 149.398 69.082 149.145 69.2108 148.915C69.3396 148.685 69.5112 148.484 69.7158 148.323C69.9205 148.162 70.154 148.045 70.403 147.977C70.652 147.909 70.9116 147.893 71.1668 147.929C71.422 147.964 71.6678 148.052 71.89 148.186L74.5678 149.777C74.9404 149.999 75.2317 150.34 75.3963 150.749C75.5609 151.158 75.5897 151.612 75.4781 152.04C75.3666 152.467 75.121 152.845 74.7794 153.114C74.4378 153.384 74.0195 153.529 73.5892 153.529ZM129.084 54.6023C128.742 54.6023 128.406 54.5092 128.11 54.3325L125.432 52.7413C125.21 52.6093 125.015 52.4336 124.859 52.2242C124.703 52.0148 124.588 51.7757 124.522 51.5207C124.455 51.2658 124.438 50.9998 124.472 50.7381C124.505 50.4764 124.589 50.224 124.717 49.9954C124.845 49.7668 125.016 49.5664 125.219 49.4056C125.423 49.2449 125.655 49.127 125.903 49.0587C126.151 48.9904 126.409 48.973 126.663 49.0075C126.918 49.0419 127.163 49.1276 127.385 49.2597L130.063 50.8509C130.436 51.072 130.727 51.4137 130.892 51.8228C131.057 52.232 131.086 52.6858 130.974 53.1136C130.863 53.5414 130.617 53.9193 130.275 54.1885C129.933 54.4577 129.515 54.6032 129.084 54.6023Z" fill="#FFA7CE"/>
<path d="M157.76 181.329C169.086 181.329 178.268 171.88 178.268 160.223C178.268 148.566 169.086 139.116 157.76 139.116C146.434 139.116 137.252 148.566 137.252 160.223C137.252 171.88 146.434 181.329 157.76 181.329Z" fill="#FF7EB7"/>
<path d="M156.098 173.15C157.383 173.15 158.426 172.077 158.426 170.754C158.426 169.43 157.383 168.357 156.098 168.357C154.812 168.357 153.77 169.43 153.77 170.754C153.77 172.077 154.812 173.15 156.098 173.15Z" fill="white"/>
<path d="M156.098 166.132C155.58 166.132 155.083 165.92 154.717 165.543C154.35 165.166 154.145 164.655 154.145 164.122V162.206C154.145 159.99 155.897 158.186 158.051 158.186H161.819C162.377 158.185 162.912 157.957 163.307 157.551C163.701 157.144 163.923 156.594 163.924 156.019V153.658C163.923 153.083 163.701 152.532 163.306 152.126C162.912 151.72 162.377 151.492 161.819 151.491H153.702C153.144 151.492 152.609 151.72 152.214 152.126C151.819 152.532 151.597 153.083 151.597 153.658C151.597 154.191 151.391 154.702 151.025 155.079C150.658 155.456 150.162 155.668 149.644 155.668C149.126 155.668 148.629 155.456 148.262 155.079C147.896 154.702 147.69 154.191 147.69 153.658C147.69 150.246 150.387 147.471 153.702 147.471H161.819C165.133 147.471 167.83 150.246 167.83 153.658V156.019C167.83 159.431 165.133 162.206 161.819 162.206H158.051V164.122C158.051 164.655 157.845 165.166 157.479 165.543C157.113 165.92 156.616 166.132 156.098 166.132Z" fill="white"/>
<path d="M42.2402 62.385C53.5664 62.385 62.748 52.9353 62.748 41.2785C62.748 29.6216 53.5664 20.1719 42.2402 20.1719C30.9141 20.1719 21.7324 29.6216 21.7324 41.2785C21.7324 52.9353 30.9141 62.385 42.2402 62.385Z" fill="#6B21A8"/>
<path d="M40.5781 54.2053C41.8639 54.2053 42.9062 53.1325 42.9062 51.8092C42.9062 50.4859 41.8639 49.4131 40.5781 49.4131C39.2923 49.4131 38.25 50.4859 38.25 51.8092C38.25 53.1325 39.2923 54.2053 40.5781 54.2053Z" fill="white"/>
<path d="M40.5773 47.188C40.0593 47.188 39.5626 46.9762 39.1963 46.5992C38.83 46.2222 38.6242 45.7109 38.6242 45.1778V43.2626C38.6242 41.0458 40.3766 39.2423 42.5305 39.2423H46.298C46.8562 39.2417 47.3913 39.0133 47.786 38.6071C48.1806 38.2009 48.4026 37.6501 48.4031 37.0757V34.7142C48.4026 34.1397 48.1806 33.589 47.786 33.1828C47.3913 32.7766 46.8562 32.5482 46.298 32.5476H38.1812C37.6231 32.5482 37.088 32.7766 36.6933 33.1828C36.2986 33.589 36.0767 34.1397 36.0762 34.7142C36.0762 35.2473 35.8704 35.7586 35.5041 36.1356C35.1378 36.5126 34.641 36.7243 34.123 36.7243C33.605 36.7243 33.1083 36.5126 32.742 36.1356C32.3757 35.7586 32.1699 35.2473 32.1699 34.7142C32.1699 31.3026 34.8664 28.5273 38.1812 28.5273H46.298C49.6129 28.5273 52.3094 31.3026 52.3094 34.7142V37.0757C52.3094 40.4873 49.6129 43.2626 46.298 43.2626H42.5305V45.1778C42.5305 45.7109 42.3247 46.2222 41.9584 46.5992C41.5921 46.9762 41.0953 47.188 40.5773 47.188Z" fill="white"/>
<path d="M160.959 139.373C167.53 128.264 171.316 115.217 171.316 101.26C171.316 86.9061 167.308 73.5173 160.388 62.2065C170.472 60.8778 178.268 52.0183 178.268 41.2785C178.268 29.6216 169.086 20.1719 157.76 20.1719C147.262 20.1719 138.612 28.2913 137.402 38.7601C126.528 31.8521 113.718 27.8623 100 27.8623C86.2824 27.8623 73.4719 31.8521 62.5976 38.7601C61.3875 28.2913 52.7379 20.1719 42.2402 20.1719C30.9141 20.1719 21.7324 29.6216 21.7324 41.2785C21.7324 52.0183 29.5281 60.8778 39.6121 62.2065C32.6918 73.5177 28.6844 86.9065 28.6844 101.26C28.6844 115.217 32.4699 128.264 39.0414 139.373C29.2348 140.954 21.7324 149.686 21.7324 160.223C21.7324 171.88 30.9141 181.329 42.2402 181.329C52.4223 181.329 60.8672 173.691 62.4699 163.678C73.3719 170.636 86.2289 174.658 100 174.658C113.772 174.658 126.629 170.636 137.531 163.678C139.134 173.69 147.578 181.329 157.76 181.329C169.087 181.329 178.268 171.88 178.268 160.223C178.268 149.686 170.765 140.954 160.959 139.373Z" fill="url(#paint1_linear_3317_24914)"/>
<path d="M104.331 17.9169C103.813 17.9169 103.316 17.7051 102.95 17.3281C102.583 16.9512 102.378 16.4399 102.378 15.9067C102.377 15.2317 102.116 14.5845 101.652 14.1072C101.188 13.6299 100.559 13.3614 99.9033 13.3607C99.3853 13.3607 98.8885 13.1489 98.5223 12.7719C98.156 12.395 97.9502 11.8837 97.9502 11.3505C97.9502 10.8174 98.156 10.3061 98.5223 9.92915C98.8885 9.55217 99.3853 9.34039 99.9033 9.34039C100.559 9.33964 101.188 9.07117 101.652 8.59387C102.116 8.11656 102.377 7.46939 102.378 6.79433C102.378 6.26121 102.583 5.74992 102.95 5.37294C103.316 4.99596 103.813 4.78418 104.331 4.78418C104.849 4.78418 105.345 4.99596 105.712 5.37294C106.078 5.74992 106.284 6.26121 106.284 6.79433C106.285 7.46936 106.545 8.11652 107.009 8.59384C107.473 9.07116 108.102 9.33964 108.758 9.34039C109.276 9.34039 109.772 9.55217 110.139 9.92915C110.505 10.3061 110.711 10.8174 110.711 11.3505C110.711 11.8837 110.505 12.395 110.139 12.7719C109.772 13.1489 109.276 13.3607 108.758 13.3607C108.102 13.3614 107.473 13.6299 107.009 14.1072C106.545 14.5846 106.285 15.2317 106.284 15.9067C106.284 16.4399 106.078 16.9512 105.712 17.3281C105.345 17.7051 104.849 17.9169 104.331 17.9169Z" fill="#A855F7"/>
<path d="M182.695 138.541C182.177 138.541 181.68 138.329 181.314 137.952C180.948 137.575 180.742 137.064 180.742 136.531C180.741 135.856 180.48 135.209 180.016 134.731C179.552 134.254 178.923 133.985 178.268 133.985C177.75 133.985 177.253 133.773 176.887 133.396C176.52 133.019 176.314 132.508 176.314 131.975C176.314 131.441 176.52 130.93 176.887 130.553C177.253 130.176 177.75 129.964 178.268 129.964C178.923 129.964 179.552 129.695 180.016 129.218C180.48 128.741 180.741 128.093 180.742 127.418C180.742 126.885 180.948 126.374 181.314 125.997C181.68 125.62 182.177 125.408 182.695 125.408C183.213 125.408 183.71 125.62 184.076 125.997C184.442 126.374 184.648 126.885 184.648 127.418C184.649 128.093 184.91 128.741 185.373 129.218C185.837 129.695 186.466 129.964 187.122 129.964C187.64 129.964 188.137 130.176 188.503 130.553C188.869 130.93 189.075 131.441 189.075 131.975C189.075 132.508 188.869 133.019 188.503 133.396C188.137 133.773 187.64 133.985 187.122 133.985C186.466 133.985 185.837 134.254 185.373 134.731C184.91 135.209 184.649 135.856 184.648 136.531C184.648 137.064 184.442 137.575 184.076 137.952C183.71 138.329 183.213 138.541 182.695 138.541Z" fill="#FF7EB7"/>
<path d="M127.747 194.32C127.229 194.32 126.732 194.108 126.366 193.731C126 193.354 125.794 192.843 125.794 192.31C125.793 191.635 125.533 190.988 125.069 190.511C124.605 190.033 123.976 189.765 123.32 189.764C122.802 189.764 122.306 189.552 121.939 189.175C121.573 188.798 121.367 188.287 121.367 187.754C121.367 187.221 121.573 186.709 121.939 186.332C122.306 185.955 122.802 185.744 123.32 185.744C123.976 185.743 124.605 185.474 125.069 184.997C125.533 184.52 125.793 183.873 125.794 183.198C125.794 182.665 126 182.153 126.366 181.776C126.732 181.399 127.229 181.188 127.747 181.188C128.265 181.188 128.762 181.399 129.128 181.776C129.495 182.153 129.7 182.665 129.7 183.198C129.701 183.873 129.962 184.52 130.426 184.997C130.89 185.474 131.519 185.743 132.175 185.744C132.693 185.744 133.189 185.955 133.556 186.332C133.922 186.709 134.128 187.221 134.128 187.754C134.128 188.287 133.922 188.798 133.556 189.175C133.189 189.552 132.693 189.764 132.175 189.764C131.519 189.765 130.89 190.033 130.426 190.511C129.962 190.988 129.701 191.635 129.7 192.31C129.7 192.843 129.495 193.354 129.128 193.731C128.762 194.108 128.265 194.32 127.747 194.32Z" fill="#A855F7"/>
<path d="M129.086 21.9369C125.855 21.9369 123.227 19.2316 123.227 15.9064C123.227 12.5812 125.855 9.87598 129.086 9.87598C132.317 9.87598 134.945 12.5812 134.945 15.9064C134.945 19.2316 132.317 21.9369 129.086 21.9369ZM129.086 13.8963C128.009 13.8963 127.133 14.798 127.133 15.9064C127.133 17.0148 128.009 17.9166 129.086 17.9166C130.163 17.9166 131.039 17.0148 131.039 15.9064C131.039 14.798 130.163 13.8963 129.086 13.8963Z" fill="#8298FD"/>
<path d="M17.8262 78.0638C14.5953 78.0638 11.9668 75.3586 11.9668 72.0334C11.9668 68.7082 14.5953 66.0029 17.8262 66.0029C21.057 66.0029 23.6855 68.7082 23.6855 72.0334C23.6855 75.3586 21.057 78.0638 17.8262 78.0638ZM17.8262 70.0232C16.7492 70.0232 15.873 70.925 15.873 72.0334C15.873 73.1418 16.7492 74.0435 17.8262 74.0435C18.9031 74.0435 19.7793 73.1418 19.7793 72.0334C19.7793 70.925 18.9031 70.0232 17.8262 70.0232Z" fill="#FF7EB7"/>
<defs>
<linearGradient id="paint0_linear_3317_24914" x1="44.6446" y1="167.324" x2="169.769" y2="45.7492" gradientUnits="userSpaceOnUse">
<stop stop-color="white" stop-opacity="0"/>
<stop offset="1" stop-color="#DDADF3"/>
</linearGradient>
<linearGradient id="paint1_linear_3317_24914" x1="100" y1="184.1" x2="100" y2="12.6374" gradientUnits="userSpaceOnUse">
<stop stop-color="#6582FD" stop-opacity="0.6"/>
<stop offset="0.05" stop-color="#839AFD" stop-opacity="0.57"/>
<stop offset="0.116" stop-color="#A4B5FE" stop-opacity="0.53"/>
<stop offset="0.19" stop-color="#C1CCFE" stop-opacity="0.486"/>
<stop offset="0.273" stop-color="#D8DFFE" stop-opacity="0.436"/>
<stop offset="0.368" stop-color="#E9EDFF" stop-opacity="0.379"/>
<stop offset="0.482" stop-color="#F6F8FF" stop-opacity="0.31"/>
<stop offset="0.635" stop-color="#FDFDFF" stop-opacity="0.218"/>
<stop offset="0.997" stop-color="white" stop-opacity="0"/>
</linearGradient>
</defs>
</svg>
