<svg width="100" height="100" viewBox="0 0 100 100" fill="none" xmlns="http://www.w3.org/2000/svg">
<g clip-path="url(#clip0_1287_11971)">
<path d="M87.9966 61.1628C81.0546 50.7739 90.9038 39.9602 90.9038 27.4858C90.9038 14.6753 86.9583 4.71744 76.7121 1.53131C62.29 -2.95346 44.6351 2.61666 35.6251 15.568C25.2579 30.4708 16.1394 47.1044 9.38158 63.9493C0.7267 85.5227 24.4048 99.1762 43.3333 99.21C55.0013 99.2309 67.4261 101.565 78.5302 98.109C92.4535 93.7753 96.5667 73.9882 87.9966 61.1628Z" fill="url(#paint0_linear_1287_11971)"/>
<path d="M78.9102 42.4302H68.4492C67.3705 42.4302 66.4961 41.5558 66.4961 40.4771V35.7896H80.8633V40.4771C80.8633 41.5556 79.9889 42.4302 78.9102 42.4302Z" fill="#6582FD"/>
<path d="M78.9102 37.7427H68.4492C67.3705 37.7427 66.4961 36.8683 66.4961 35.7896V25.3286C66.4961 24.2499 67.3705 23.3755 68.4492 23.3755H78.9102C79.9889 23.3755 80.8633 24.2499 80.8633 25.3286V35.7896C80.8633 36.8681 79.9889 37.7427 78.9102 37.7427Z" fill="#9EAFFD"/>
<path d="M31.5518 42.4302H21.0908C20.0121 42.4302 19.1377 41.5558 19.1377 40.4771V35.7896H33.5049V40.4771C33.5049 41.5556 32.6305 42.4302 31.5518 42.4302Z" fill="#FF5BA7"/>
<path d="M31.5518 37.7427H21.0908C20.0121 37.7427 19.1377 36.8683 19.1377 35.7896V25.3286C19.1377 24.2499 20.0121 23.3755 21.0908 23.3755H31.5518C32.6305 23.3755 33.5049 24.2499 33.5049 25.3286V35.7896C33.5049 36.8681 32.6305 37.7427 31.5518 37.7427Z" fill="#FFA7CE"/>
<path d="M26.8416 26.647H25.8004C24.5293 26.647 23.4951 27.6812 23.4951 28.9522V33.495C23.4951 34.0345 23.9322 34.4716 24.4717 34.4716C25.0111 34.4716 25.4482 34.0345 25.4482 33.495V33.219H27.1937V33.495C27.1937 34.0345 27.6309 34.4716 28.1703 34.4716C28.7098 34.4716 29.1469 34.0345 29.1469 33.495V28.9522C29.1467 27.6812 28.1127 26.647 26.8416 26.647ZM25.4482 31.2657V28.952C25.4482 28.7579 25.6063 28.5999 25.8004 28.5999H26.8416C27.0357 28.5999 27.1937 28.7579 27.1937 28.952V31.2657H25.4482Z" fill="#FF5BA7"/>
<path d="M42.9553 78.697H46.6066C46.8656 78.697 47.114 78.5941 47.2972 78.4109C47.4803 78.2278 47.5832 77.9794 47.5832 77.7204V72.4136L43.0648 71.437L37.0576 72.4136C37.0576 72.4136 40.1342 73.7407 42.0607 78.1093C42.1367 78.2835 42.2618 78.4318 42.4206 78.5361C42.5795 78.6405 42.7652 78.6964 42.9553 78.697Z" fill="#8298FD"/>
<path d="M36.4295 36.1162C30.5783 36.1162 25.7826 40.6229 25.3164 46.3539C24.8081 46.2494 24.2906 46.1968 23.7717 46.1971C19.8332 46.1971 16.593 49.1852 16.1934 53.0178C12.0914 54.2273 9.09668 58.0193 9.09668 62.5131C9.09668 67.9811 13.5293 72.4137 18.9973 72.4137H47.5832V47.2699C47.5832 41.11 42.5895 36.1162 36.4295 36.1162Z" fill="#9EAFFD"/>
<path d="M47.582 47.2695V56.0527C43.0859 54.9668 39.7461 50.916 39.7461 46.0859C39.7461 43.0313 41.082 40.2871 43.2031 38.4102C45.8652 40.4473 47.582 43.6582 47.582 47.2695ZM39.5391 67.0254C39.5391 67.5664 39.1016 68.002 38.5625 68.002C37.0781 68.002 35.9512 68.4043 35.2129 69.1953C34.0488 70.4434 34.1484 72.3262 34.1484 72.3457C34.1504 72.3672 34.1504 72.3906 34.1504 72.4141H32.1973C32.1797 71.9746 32.1641 69.6035 33.7832 67.8652C34.9062 66.6602 36.5137 66.0488 38.5625 66.0488C39.1016 66.0488 39.5391 66.4863 39.5391 67.0254ZM39.709 62.2539C39.709 62.793 39.2715 63.2305 38.7324 63.2305C35.7207 63.2305 33.3691 62.4023 31.7461 60.7715C29.8457 58.8594 28.9316 55.877 28.9551 51.6563C28.9707 48.666 26.8555 47.0801 25.3184 46.3242C25.377 45.6387 25.4961 44.9727 25.6719 44.3281C28.0098 45.3438 30.9297 47.6484 30.9082 51.666C30.8887 55.3418 31.6152 57.8691 33.1309 59.3945C34.3926 60.6602 36.2246 61.2773 38.7324 61.2773C39.2715 61.2773 39.709 61.7148 39.709 62.2539Z" fill="#8298FD"/>
<path d="M23.9447 67.6955C23.6857 67.6955 23.4373 67.5926 23.2542 67.4095C23.0711 67.2263 22.9682 66.978 22.9682 66.719C22.9682 61.9596 26.84 58.0877 31.5994 58.0877C32.1389 58.0877 32.576 58.5248 32.576 59.0643C32.576 59.6037 32.1389 60.0408 31.5994 60.0408C27.917 60.0408 24.9213 63.0367 24.9213 66.719C24.9213 66.978 24.8184 67.2263 24.6353 67.4095C24.4521 67.5926 24.2037 67.6955 23.9447 67.6955ZM23.4002 57.0762C23.2557 57.1523 23.1014 57.1875 22.9471 57.1875C22.5955 57.1875 22.2576 56.9981 22.0818 56.666C20.5389 53.7305 17.9549 53.0313 16.2049 52.9258C16.2811 52.2539 16.4471 51.6094 16.6893 51.002C19.1053 51.252 22.0643 52.4356 23.8104 55.7578C23.8702 55.8713 23.9071 55.9954 23.9189 56.1231C23.9306 56.2509 23.9171 56.3797 23.879 56.5021C23.8409 56.6246 23.779 56.7384 23.6968 56.8369C23.6146 56.9354 23.5138 57.0167 23.4002 57.0762ZM47.5818 52.9766V57.0742C46.5916 58.5078 44.9354 59.4473 43.0643 59.4473C40.035 59.4473 37.5701 56.9824 37.5701 53.9531C37.5701 53.4121 38.0057 52.9766 38.5467 52.9766C39.0857 52.9766 39.5232 53.4121 39.5232 53.9531C39.5232 55.9063 41.1111 57.4941 43.0643 57.4941C45.0174 57.4941 46.6053 55.9063 46.6053 53.9531C46.6053 53.4121 47.0428 52.9766 47.5818 52.9766ZM41.8141 47.7703C41.5551 47.7703 41.3067 47.6674 41.1235 47.4843C40.9404 47.3011 40.8375 47.0528 40.8375 46.7938C40.8375 44.4939 38.9664 42.6229 36.6666 42.6229C35.6157 42.6216 34.6033 43.0183 33.833 43.7332C33.643 43.9092 33.3908 44.0025 33.132 43.9926C32.8732 43.9826 32.6289 43.8703 32.4529 43.6803C32.2769 43.4903 32.1836 43.2381 32.1936 42.9793C32.2035 42.7205 32.3158 42.4762 32.5059 42.3002C33.637 41.2506 35.1235 40.6681 36.6666 40.6699C40.0434 40.6699 42.7906 43.4172 42.7906 46.794C42.7906 46.9222 42.7654 47.0492 42.7163 47.1676C42.6672 47.2861 42.5953 47.3937 42.5046 47.4844C42.4139 47.5751 42.3062 47.647 42.1878 47.6961C42.0693 47.7451 41.9423 47.7703 41.8141 47.7703ZM18.4299 67.3234C15.7811 67.3234 13.626 65.1686 13.626 62.5195C13.626 61.9801 14.0631 61.543 14.6025 61.543C15.142 61.543 15.5791 61.9801 15.5791 62.5195C15.5791 64.0914 16.858 65.3703 18.4299 65.3703C18.9693 65.3703 19.4064 65.8074 19.4064 66.3469C19.4064 66.8863 18.9693 67.3234 18.4299 67.3234Z" fill="#8298FD"/>
<path d="M57.0449 78.697H53.3936C53.1346 78.697 52.8862 78.5941 52.703 78.4109C52.5199 78.2278 52.417 77.9794 52.417 77.7204V72.4136L56.9354 71.437L62.9426 72.4136C62.9426 72.4136 59.866 73.7407 57.9395 78.1093C57.8634 78.2835 57.7384 78.4318 57.5796 78.5361C57.4207 78.6405 57.235 78.6964 57.0449 78.697Z" fill="#FF5BA7"/>
<path d="M63.5707 36.1162C69.4219 36.1162 74.2176 40.6229 74.6838 46.3539C75.192 46.2494 75.7096 46.1968 76.2285 46.1971C80.167 46.1971 83.4072 49.1852 83.8068 53.0178C87.9088 54.2273 90.9035 58.0193 90.9035 62.5131C90.9035 67.9811 86.4709 72.4137 81.0029 72.4137H52.417V47.2699C52.417 41.11 57.4107 36.1162 63.5707 36.1162Z" fill="#FF7EB7"/>
<path d="M60.2539 46.0859C60.2539 50.916 56.9141 54.9668 52.418 56.0527V47.2695C52.418 43.6582 54.1348 40.4473 56.7969 38.4102C58.918 40.2871 60.2539 43.0313 60.2539 46.0859ZM67.8027 72.4141H65.8496C65.8496 72.3926 65.8496 72.3711 65.8516 72.3496C65.8535 72.3047 65.9453 70.4277 64.7773 69.1855C64.0391 68.4004 62.916 68.002 61.4375 68.002C60.8984 68.002 60.4609 67.5664 60.4609 67.0254C60.4609 66.4863 60.8984 66.0488 61.4375 66.0488C63.4863 66.0488 65.0937 66.6602 66.2168 67.8652C67.8359 69.6035 67.8203 71.9746 67.8027 72.4141ZM74.6816 46.3242C73.1504 47.0781 71.0449 48.6543 71.0449 51.625V51.6563C71.0684 55.877 70.1543 58.8594 68.2539 60.7715C66.6309 62.4023 64.2793 63.2305 61.2676 63.2305C60.7285 63.2305 60.291 62.793 60.291 62.2539C60.291 61.7148 60.7285 61.2773 61.2676 61.2773C63.7754 61.2773 65.6074 60.6602 66.8691 59.3945C68.3848 57.8691 69.1113 55.3418 69.0918 51.666C69.0703 47.6484 71.9902 45.3438 74.3281 44.3281C74.5039 44.9727 74.623 45.6387 74.6816 46.3242Z" fill="#FF5BA7"/>
<path d="M76.0549 67.6957C75.7959 67.6957 75.5475 67.5928 75.3643 67.4097C75.1812 67.2265 75.0783 66.9781 75.0783 66.7191C75.0783 63.0367 72.0826 60.041 68.4004 60.041C67.8609 60.041 67.4238 59.6039 67.4238 59.0645C67.4238 58.525 67.8609 58.0879 68.4004 58.0879C73.1596 58.0879 77.0314 61.9598 77.0314 66.7191C77.0314 66.9781 76.9286 67.2265 76.7454 67.4097C76.5623 67.5928 76.3139 67.6957 76.0549 67.6957ZM83.9062 53.049C82.2285 53.0842 79.502 53.6506 77.918 56.6662C77.7422 56.9982 77.4043 57.1877 77.0527 57.1877C76.8847 57.1879 76.7194 57.1447 76.5729 57.0622C76.4265 56.9797 76.3039 56.8608 76.217 56.7169C76.1301 56.573 76.0819 56.4091 76.0771 56.2411C76.0723 56.073 76.111 55.9066 76.1895 55.758C77.9453 52.4162 80.9648 51.3029 83.3555 51.1154C83.584 51.717 83.7383 52.3557 83.8066 53.0178C83.8398 53.0275 83.873 53.0373 83.9062 53.049ZM62.4297 53.9533C62.4297 56.9826 59.9648 59.4475 56.9355 59.4475C55.0645 59.4475 53.4082 58.508 52.418 57.0744V52.9768C52.957 52.9768 53.3945 53.4123 53.3945 53.9533C53.3945 55.9064 54.9824 57.4943 56.9355 57.4943C58.8887 57.4943 60.4766 55.9064 60.4766 53.9533C60.4766 53.4123 60.9141 52.9768 61.4531 52.9768C61.9941 52.9768 62.4297 53.4123 62.4297 53.9533ZM58.1855 47.7705C57.9265 47.7705 57.6782 47.6676 57.495 47.4845C57.3119 47.3013 57.209 47.0529 57.209 46.7939C57.209 43.4172 59.9563 40.6699 63.333 40.6699C64.8761 40.668 66.3627 41.2506 67.4937 42.3004C67.5902 42.3869 67.6684 42.4917 67.7239 42.6088C67.7794 42.7258 67.8111 42.8527 67.817 42.9821C67.823 43.1115 67.8032 43.2408 67.7587 43.3625C67.7143 43.4841 67.646 43.5957 67.558 43.6908C67.47 43.7858 67.364 43.8624 67.2461 43.9161C67.1282 43.9697 67.0008 43.9994 66.8713 44.0033C66.7418 44.0073 66.6128 43.9854 66.4919 43.9391C66.371 43.8927 66.2604 43.8227 66.1668 43.7332C65.3965 43.0183 64.3841 42.6217 63.3332 42.6231C61.0334 42.6231 59.1623 44.4941 59.1623 46.7939C59.1623 46.9222 59.137 47.0492 59.0879 47.1677C59.0389 47.2862 58.9669 47.3939 58.8762 47.4846C58.7855 47.5752 58.6778 47.6472 58.5593 47.6962C58.4408 47.7453 58.3138 47.7705 58.1855 47.7705ZM81.5697 67.3236C81.0303 67.3236 80.5932 66.8865 80.5932 66.3471C80.5932 65.8076 81.0303 65.3705 81.5697 65.3705C83.1418 65.3705 84.4207 64.0916 84.4207 62.5197C84.4207 61.9803 84.8578 61.5432 85.3973 61.5432C85.9367 61.5432 86.3738 61.9803 86.3738 62.5197C86.3736 65.1688 84.2186 67.3236 81.5697 67.3236Z" fill="#FF5BA7"/>
<path d="M31.5518 84.4224H21.0908C20.0121 84.4224 19.1377 83.5479 19.1377 82.4692V77.7817H33.5049V82.4692C33.5049 83.5478 32.6305 84.4224 31.5518 84.4224Z" fill="#01EBA4"/>
<path d="M31.5518 79.7349H21.0908C20.0121 79.7349 19.1377 78.8604 19.1377 77.7817V67.3208C19.1377 66.2421 20.0121 65.3677 21.0908 65.3677H31.5518C32.6305 65.3677 33.5049 66.2421 33.5049 67.3208V77.7817C33.5049 78.8603 32.6305 79.7349 31.5518 79.7349Z" fill="#96FFD1"/>
<path d="M28.4365 72.1593C28.6457 71.8025 28.7561 71.3965 28.7563 70.9829C28.7563 69.6905 27.7049 68.6392 26.4125 68.6392H24.4717C24.2127 68.6392 23.9643 68.742 23.7811 68.9252C23.598 69.1083 23.4951 69.3567 23.4951 69.6157V75.4872C23.4951 75.7462 23.598 75.9946 23.7811 76.1777C23.9643 76.3609 24.2127 76.4638 24.4717 76.4638H26.6018C28.0053 76.4638 29.1469 75.322 29.1469 73.9188C29.1469 73.236 28.8754 72.6167 28.4365 72.1593ZM25.4484 70.5923H26.4127C26.6281 70.5923 26.8033 70.7675 26.8033 70.9829C26.8033 71.1983 26.6281 71.3735 26.4127 71.3735H25.4484V70.5923ZM26.6018 74.5105H25.4484V73.3265H26.602C26.7589 73.3266 26.9094 73.389 27.0204 73.5C27.1314 73.611 27.1938 73.7615 27.1939 73.9185C27.1937 74.0754 27.1313 74.2259 27.0203 74.3369C26.9092 74.4479 26.7587 74.5103 26.6018 74.5105Z" fill="#00D78F"/>
<path d="M36.4379 36.1163C35.4472 36.1157 34.4609 36.2471 33.5049 36.5069V25.3286C33.5049 24.2499 32.6305 23.3755 31.5518 23.3755H21.0908C20.0121 23.3755 19.1377 24.2499 19.1377 25.3286V40.4771C19.1377 41.5558 20.0121 42.4302 21.0908 42.4302H26.3832C25.7888 43.6612 25.4271 44.9915 25.3164 46.354C24.8081 46.2495 24.2906 46.1969 23.7717 46.1972C19.8332 46.1972 16.593 49.1853 16.1934 53.0179C11.8143 54.3091 8.69706 58.5438 9.13827 63.4331C9.5998 68.5472 13.9879 72.4138 19.1228 72.4138H19.1377V82.4692C19.1377 83.5479 20.0121 84.4224 21.0908 84.4224H31.5518C32.6305 84.4224 33.5049 83.5479 33.5049 82.4692V72.4138H37.0574C37.0574 72.4138 40.134 73.7409 42.0605 78.1095C42.1366 78.2837 42.2617 78.4319 42.4206 78.5363C42.5794 78.6406 42.7652 78.6965 42.9553 78.6972H46.6066C46.8656 78.6972 47.114 78.5943 47.2972 78.4111C47.4803 78.228 47.5832 77.9796 47.5832 77.7206V47.4419C47.5832 41.2571 42.6227 36.121 36.4379 36.1163Z" fill="url(#paint1_linear_1287_11971)"/>
<path d="M78.9102 84.4224H68.4492C67.3705 84.4224 66.4961 83.5479 66.4961 82.4692V77.7817H80.8633V82.4692C80.8633 83.5478 79.9889 84.4224 78.9102 84.4224Z" fill="#6582FD"/>
<path d="M78.9102 79.7349H68.4492C67.3705 79.7349 66.4961 78.8604 66.4961 77.7817V67.3208C66.4961 66.2421 67.3705 65.3677 68.4492 65.3677H78.9102C79.9889 65.3677 80.8633 66.2421 80.8633 67.3208V77.7817C80.8633 78.8603 79.9889 79.7349 78.9102 79.7349Z" fill="#9EAFFD"/>
<path d="M76.0555 29.5825H74.6561V28.1831C74.6561 27.6437 74.2189 27.2065 73.6795 27.2065C73.14 27.2065 72.7029 27.6437 72.7029 28.1831V29.5825H71.3037C70.7643 29.5825 70.3271 30.0196 70.3271 30.5591C70.3271 31.0985 70.7643 31.5356 71.3037 31.5356H72.7029V32.9349C72.7029 33.4743 73.14 33.9114 73.6795 33.9114C74.2189 33.9114 74.6561 33.4743 74.6561 32.9349V31.5356H76.0555C76.5949 31.5356 77.032 31.0985 77.032 30.5591C77.032 30.0196 76.5949 29.5825 76.0555 29.5825ZM76.0555 71.7083H71.3037C70.7643 71.7083 70.3271 71.2712 70.3271 70.7317C70.3271 70.1923 70.7643 69.7552 71.3037 69.7552H76.0555C76.5949 69.7552 77.032 70.1923 77.032 70.7317C77.032 71.2712 76.5949 71.7083 76.0555 71.7083ZM76.0555 75.347H71.3037C70.7643 75.347 70.3271 74.9099 70.3271 74.3704C70.3271 73.831 70.7643 73.3938 71.3037 73.3938H76.0555C76.5949 73.3938 77.032 73.831 77.032 74.3704C77.032 74.9099 76.5949 75.347 76.0555 75.347Z" fill="white"/>
<path d="M83.8068 53.0179C83.4072 49.1851 80.167 46.1972 76.2285 46.1972C75.6992 46.1972 75.1826 46.2513 74.6838 46.354C74.5731 44.9915 74.2114 43.6612 73.617 42.4302H78.9092C79.9879 42.4302 80.8623 41.5558 80.8623 40.4771V25.3286C80.8623 24.2499 79.9879 23.3755 78.9092 23.3755H68.4482C67.3695 23.3755 66.4951 24.2499 66.4951 25.3286V36.5069C65.5391 36.2471 64.5528 36.1157 63.5621 36.1163C57.3773 36.121 52.417 41.2569 52.417 47.4415V77.7204C52.417 77.9794 52.5199 78.2278 52.703 78.4109C52.8862 78.5941 53.1346 78.697 53.3936 78.697H57.0449C57.235 78.6963 57.4208 78.6404 57.5796 78.5361C57.7385 78.4318 57.8636 78.2835 57.9396 78.1093C59.8662 73.7407 62.9428 72.4136 62.9428 72.4136H66.4953V82.469C66.4953 83.5478 67.3697 84.4222 68.4484 84.4222H78.9094C79.9881 84.4222 80.8625 83.5478 80.8625 82.469V72.4136H80.8775C86.0125 72.4136 90.4004 68.547 90.8621 63.4329C91.3031 58.5438 88.1859 54.3091 83.8068 53.0179Z" fill="url(#paint2_linear_1287_11971)"/>
<path d="M50 51.6523C55.6631 51.6523 60.2539 47.0615 60.2539 41.3984C60.2539 35.7354 55.6631 31.1445 50 31.1445C44.3369 31.1445 39.7461 35.7354 39.7461 41.3984C39.7461 47.0615 44.3369 51.6523 50 51.6523Z" fill="#02FFB2"/>
<path d="M49.1689 47.6787C49.8118 47.6787 50.333 47.1575 50.333 46.5146C50.333 45.8718 49.8118 45.3506 49.1689 45.3506C48.526 45.3506 48.0049 45.8718 48.0049 46.5146C48.0049 47.1575 48.526 47.6787 49.1689 47.6787Z" fill="white"/>
<path d="M49.1686 44.2694C48.9096 44.2694 48.6612 44.1665 48.478 43.9834C48.2949 43.8003 48.192 43.5519 48.192 43.2929V42.3624C48.192 41.2854 49.0682 40.4093 50.1451 40.4093H52.0289C52.308 40.409 52.5756 40.298 52.773 40.1006C52.9703 39.9032 53.0813 39.6357 53.0816 39.3565V38.2093C53.0813 37.9302 52.9703 37.6626 52.7729 37.4653C52.5756 37.268 52.308 37.157 52.0289 37.1567H47.9705C47.6914 37.157 47.4239 37.268 47.2265 37.4653C47.0292 37.6626 46.9182 37.9302 46.918 38.2093C46.918 38.7487 46.4809 39.1858 45.9414 39.1858C45.402 39.1858 44.9648 38.7487 44.9648 38.2093C44.9648 36.552 46.3131 35.2036 47.9705 35.2036H52.0287C53.6861 35.2036 55.0346 36.5519 55.0346 38.2093V39.3565C55.0346 41.014 53.6863 42.3624 52.0287 42.3624H50.1449V43.2929C50.145 43.4211 50.1198 43.5481 50.0707 43.6666C50.0217 43.7851 49.9498 43.8928 49.8591 43.9834C49.7684 44.0741 49.6608 44.1461 49.5423 44.1951C49.4238 44.2442 49.2968 44.2695 49.1686 44.2694Z" fill="white"/>
<path d="M43.2531 19.1582C43.1249 19.1582 42.9979 19.1329 42.8794 19.0839C42.7609 19.0348 42.6533 18.9629 42.5626 18.8722C42.4719 18.7815 42.4 18.6738 42.3509 18.5554C42.3018 18.4369 42.2766 18.3099 42.2766 18.1816V18.1592C42.2766 17.6197 42.7137 17.1826 43.2531 17.1826C43.7926 17.1826 44.2297 17.6197 44.2297 18.1592V18.1816C44.2297 18.3099 44.2044 18.4369 44.1553 18.5554C44.1063 18.6738 44.0343 18.7815 43.9437 18.8722C43.853 18.9629 43.7453 19.0348 43.6268 19.0839C43.5084 19.1329 43.3814 19.1582 43.2531 19.1582ZM56.7477 19.1582H46.9898C46.4504 19.1582 46.0133 18.7211 46.0133 18.1816C46.0133 17.6422 46.4504 17.2051 46.9898 17.2051H56.7477C57.2871 17.2051 57.7242 17.6422 57.7242 18.1816C57.7242 18.7211 57.2871 19.1582 56.7477 19.1582ZM43.2531 23.1756C42.9941 23.1756 42.7457 23.0727 42.5626 22.8896C42.3794 22.7064 42.2766 22.458 42.2766 22.199V22.1766C42.2766 21.6371 42.7137 21.2 43.2531 21.2C43.7926 21.2 44.2297 21.6371 44.2297 22.1766V22.199C44.2297 22.458 44.1268 22.7064 43.9437 22.8896C43.7605 23.0727 43.5121 23.1756 43.2531 23.1756ZM56.7477 23.1756H46.9898C46.4504 23.1756 46.0133 22.7385 46.0133 22.199C46.0133 21.6596 46.4504 21.2225 46.9898 21.2225H56.7477C57.2871 21.2225 57.7242 21.6596 57.7242 22.199C57.7242 22.7385 57.2871 23.1756 56.7477 23.1756ZM43.2531 27.1932C42.9941 27.1932 42.7457 27.0903 42.5626 26.9071C42.3794 26.724 42.2766 26.4756 42.2766 26.2166V26.1941C42.2766 25.6547 42.7137 25.2176 43.2531 25.2176C43.7926 25.2176 44.2297 25.6547 44.2297 26.1941V26.2166C44.2297 26.4756 44.1268 26.724 43.9437 26.9071C43.7605 27.0903 43.5121 27.1932 43.2531 27.1932ZM56.7477 27.1932H46.9898C46.4504 27.1932 46.0133 26.7561 46.0133 26.2166C46.0133 25.6771 46.4504 25.24 46.9898 25.24H56.7477C57.2871 25.24 57.7242 25.6771 57.7242 26.2166C57.7242 26.7561 57.2871 27.1932 56.7477 27.1932ZM37.9508 93.3418C37.6918 93.3418 37.4434 93.2389 37.2602 93.0558C37.0771 92.8726 36.9742 92.6242 36.9742 92.3652C36.9739 92.0373 36.8434 91.7229 36.6115 91.491C36.3796 91.2591 36.0652 91.1287 35.7373 91.1283C35.1979 91.1283 34.7607 90.6912 34.7607 90.1518C34.7607 89.6123 35.1979 89.1752 35.7373 89.1752C36.0653 89.1748 36.3797 89.0443 36.6115 88.8124C36.8434 88.5805 36.9739 88.266 36.9742 87.9381C36.9742 87.3986 37.4113 86.9615 37.9508 86.9615C38.4902 86.9615 38.9273 87.3986 38.9273 87.9381C38.9278 88.2661 39.0582 88.5805 39.2901 88.8124C39.5221 89.0443 39.8365 89.1748 40.1645 89.1752C40.7039 89.1752 41.141 89.6123 41.141 90.1518C41.141 90.6912 40.7039 91.1283 40.1645 91.1283C39.8365 91.1287 39.5221 91.2591 39.2902 91.491C39.0582 91.7229 38.9278 92.0373 38.9273 92.3652C38.9273 92.6242 38.8245 92.8726 38.6413 93.0558C38.4582 93.2389 38.2098 93.3418 37.9508 93.3418Z" fill="#01EBA4"/>
<path d="M62.943 12.8119C62.684 12.8119 62.4356 12.709 62.2524 12.5259C62.0693 12.3427 61.9664 12.0944 61.9664 11.8354C61.966 11.5074 61.8356 11.193 61.6037 10.9611C61.3718 10.7292 61.0574 10.5988 60.7295 10.5984C60.19 10.5984 59.7529 10.1613 59.7529 9.62187C59.7529 9.08242 60.19 8.64531 60.7295 8.64531C61.0574 8.6449 61.3719 8.51442 61.6037 8.2825C61.8356 8.05058 61.966 7.73616 61.9664 7.4082C61.9664 6.86875 62.4035 6.43164 62.943 6.43164C63.4824 6.43164 63.9195 6.86875 63.9195 7.4082C63.9199 7.73618 64.0504 8.0506 64.2823 8.28251C64.5142 8.51443 64.8287 8.6449 65.1566 8.64531C65.6961 8.64531 66.1332 9.08242 66.1332 9.62187C66.1332 10.1613 65.6961 10.5984 65.1566 10.5984C64.8287 10.5988 64.5143 10.7292 64.2823 10.9611C64.0504 11.193 63.9199 11.5074 63.9195 11.8354C63.9195 12.0944 63.8166 12.3427 63.6335 12.5259C63.4504 12.709 63.202 12.8119 62.943 12.8119Z" fill="#FF7EB7"/>
<path d="M74.6846 16.7178C73.0691 16.7178 71.7549 15.4035 71.7549 13.7881C71.7549 12.1727 73.0691 10.8584 74.6846 10.8584C76.3 10.8584 77.6143 12.1727 77.6143 13.7881C77.6143 15.4035 76.3 16.7178 74.6846 16.7178ZM74.6846 12.8115C74.1461 12.8115 73.708 13.2496 73.708 13.7881C73.708 14.3266 74.1461 14.7646 74.6846 14.7646C75.223 14.7646 75.6611 14.3266 75.6611 13.7881C75.6611 13.2496 75.223 12.8115 74.6846 12.8115Z" fill="#8298FD"/>
<path d="M11.8311 82.6064C10.2156 82.6064 8.90137 81.2922 8.90137 79.6768C8.90137 78.0613 10.2156 76.7471 11.8311 76.7471C13.4465 76.7471 14.7607 78.0613 14.7607 79.6768C14.7607 81.2922 13.4467 82.6064 11.8311 82.6064ZM11.8311 78.7002C11.2926 78.7002 10.8545 79.1383 10.8545 79.6768C10.8545 80.2152 11.2926 80.6533 11.8311 80.6533C12.3695 80.6533 12.8076 80.2152 12.8076 79.6768C12.8076 79.1383 12.3695 78.7002 11.8311 78.7002Z" fill="#FF7EB7"/>
<path d="M88.9414 46.2227C87.326 46.2227 86.0117 44.9084 86.0117 43.293C86.0117 41.6775 87.326 40.3633 88.9414 40.3633C90.5568 40.3633 91.8711 41.6775 91.8711 43.293C91.8711 44.9084 90.5568 46.2227 88.9414 46.2227ZM88.9414 42.3164C88.4029 42.3164 87.9648 42.7545 87.9648 43.293C87.9648 43.8314 88.4029 44.2695 88.9414 44.2695C89.4799 44.2695 89.918 43.8314 89.918 43.293C89.918 42.7545 89.4799 42.3164 88.9414 42.3164Z" fill="#01EBA4"/>
</g>
<defs>
<linearGradient id="paint0_linear_1287_11971" x1="20.5992" y1="94.385" x2="96.581" y2="18.4032" gradientUnits="userSpaceOnUse">
<stop stop-color="#FF92FF" stop-opacity="0.1"/>
<stop offset="1" stop-color="#FFCDE5"/>
</linearGradient>
<linearGradient id="paint1_linear_1287_11971" x1="9.09668" y1="23.3755" x2="47.5832" y2="23.3755" gradientUnits="userSpaceOnUse">
<stop stop-color="#6582FD" stop-opacity="0.6"/>
<stop offset="0.05" stop-color="#839AFD" stop-opacity="0.57"/>
<stop offset="0.116" stop-color="#A4B5FE" stop-opacity="0.53"/>
<stop offset="0.19" stop-color="#C1CCFE" stop-opacity="0.486"/>
<stop offset="0.273" stop-color="#D8DFFE" stop-opacity="0.436"/>
<stop offset="0.368" stop-color="#E9EDFF" stop-opacity="0.379"/>
<stop offset="0.482" stop-color="#F6F8FF" stop-opacity="0.31"/>
<stop offset="0.635" stop-color="#FDFDFF" stop-opacity="0.218"/>
<stop offset="0.997" stop-color="white" stop-opacity="0"/>
</linearGradient>
<linearGradient id="paint2_linear_1287_11971" x1="52.417" y1="23.3755" x2="90.9037" y2="23.3755" gradientUnits="userSpaceOnUse">
<stop stop-color="#6582FD" stop-opacity="0.6"/>
<stop offset="0.05" stop-color="#839AFD" stop-opacity="0.57"/>
<stop offset="0.116" stop-color="#A4B5FE" stop-opacity="0.53"/>
<stop offset="0.19" stop-color="#C1CCFE" stop-opacity="0.486"/>
<stop offset="0.273" stop-color="#D8DFFE" stop-opacity="0.436"/>
<stop offset="0.368" stop-color="#E9EDFF" stop-opacity="0.379"/>
<stop offset="0.482" stop-color="#F6F8FF" stop-opacity="0.31"/>
<stop offset="0.635" stop-color="#FDFDFF" stop-opacity="0.218"/>
<stop offset="0.997" stop-color="white" stop-opacity="0"/>
</linearGradient>
<clipPath id="clip0_1287_11971">
<rect width="100" height="100" fill="white"/>
</clipPath>
</defs>
</svg>
