<svg width="938" height="454" viewBox="0 0 938 454" fill="none" xmlns="http://www.w3.org/2000/svg">
<g clip-path="url(#clip0_107_835)">
<path d="M147.935 237.529L81.1748 317.987V347.842H202.515V307.901H147.359L200.421 240.2V197.589H83.461V237.529H147.935ZM265.663 298.584V348.226H313.404V298.584L363.046 197.396H313.788L289.447 254.455L265.279 197.396H216.021L265.663 298.584ZM505.116 300.678V197.396H457.567V283.944C457.567 301.619 453.955 309.803 443.677 309.803H437.779C429.807 309.803 424.101 301.619 424.101 283.944V197.396H376.552V300.678C376.552 330.532 399.568 348.034 432.842 348.034H450.728C485.155 348.034 505.116 330.532 505.116 300.678ZM534.606 347.842H582.154V305.807H591.837L616.562 347.842H665.84L636.926 302.388C648.914 295.164 656.503 278.431 656.503 253.321C656.503 215.475 639.385 197.589 604.209 197.589H534.606V347.842ZM598.311 271.572H582.154V235.627H598.311C609.723 235.627 614.852 241.333 614.852 254.071C614.852 266.827 609.723 271.572 598.311 271.572ZM747.988 291.917L760.745 250.094L771.196 291.917H747.988ZM679.153 348.034H730.698L736.211 329.783H780.705L785.278 347.842H836.63L783.76 197.396H733.541L679.153 348.034Z" fill="#063C79"/>
<path d="M199.566 153.653C281.272 42.2957 434.148 -6.63726 567.225 31.699C612.532 44.7071 658.175 64.7392 692.285 98.244C717.372 124.816 683.816 163.767 653.882 143.153C637.508 131.207 621.744 118.85 604.841 107.639C479.121 23.5615 305.25 46.3105 199.566 153.653Z" fill="url(#paint0_linear_107_835)"/>
<path d="M15.6552 418.457H12.543C12.543 423.299 15.4055 426.142 20.3236 426.142H24.6847C29.2378 426.142 31.3511 424.144 31.3511 419.841V419.476C31.3511 416.556 29.8334 414.596 26.9708 413.827L17.7685 411.407C16.27 411.003 15.6552 410.197 15.6552 408.602V408.295C15.6552 406.047 17.0385 404.875 20.3236 404.875H23.5704C26.7211 404.875 28.2388 406.431 28.2388 409.678L31.3511 409.639C31.3511 404.798 28.4885 401.936 23.5704 401.936H20.3236C15.5208 401.936 12.543 404.222 12.543 408.256V408.602C12.543 411.522 14.0607 413.482 16.9424 414.25L26.1255 416.671C27.624 417.074 28.2388 417.881 28.2388 419.476V419.841C28.2388 422.088 27.2014 423.203 23.9162 423.203H20.6694C17.5188 423.203 15.6552 421.723 15.6552 418.457ZM54.2512 404.875V426.142H57.3635V404.875H65.6629V401.936H45.9518V404.875H54.2512ZM98.5146 418.457V401.936H95.4023V418.457C95.4023 421.723 93.8846 423.203 90.7339 423.203H87.833C84.6823 423.203 83.1646 421.723 83.1646 418.457V401.936H80.0523V418.457C80.0523 423.299 82.9148 426.142 87.833 426.142H90.7339C95.6329 426.142 98.5146 423.299 98.5146 418.457ZM127.908 423.203H118.956V404.875H127.908C131.059 404.875 132.577 406.431 132.577 409.678V418.457C132.577 421.723 131.059 423.203 127.908 423.203ZM127.908 401.936H115.843V426.142H127.908C132.807 426.142 135.689 423.299 135.689 418.457V409.678C135.689 404.836 132.807 401.936 127.908 401.936ZM158.551 418.189V426.142H161.663V418.189L169.789 401.936H166.351L160.107 414.903L153.844 401.936H150.424L158.551 418.189ZM208.232 418.457H205.119C205.119 423.299 208.001 426.142 212.9 426.142H217.261C221.833 426.142 223.928 424.144 223.928 419.841V419.476C223.928 416.556 222.41 414.596 219.547 413.827L210.345 411.407C208.866 411.003 208.232 410.197 208.232 408.602V408.295C208.232 406.047 209.615 404.875 212.9 404.875H216.147C219.298 404.875 220.815 406.431 220.815 409.678L223.928 409.639C223.928 404.798 221.065 401.936 216.147 401.936H212.9C208.097 401.936 205.119 404.222 205.119 408.256V408.602C205.119 411.522 206.637 413.482 209.519 414.25L218.721 416.671C220.2 417.074 220.815 417.881 220.815 419.476V419.841C220.815 422.088 219.778 423.203 216.493 423.203H213.246C210.095 423.203 208.232 421.723 208.232 418.457ZM240.911 401.936V426.142H244.023V408.852L250.939 426.142H254.397L261.313 408.852V426.142H264.425V401.936H260.833L252.668 422.338L244.503 401.936H240.911ZM296.317 417.747H286.903L291.61 405.816L296.317 417.747ZM303.021 426.142L293.166 401.936H290.054L280.198 426.142H283.618L285.769 420.686H297.45L299.602 426.142H303.021ZM328.688 413.655H321.906V404.875H328.688C331.973 404.875 332.799 406.297 332.799 409.101C332.799 412.56 331.82 413.655 328.688 413.655ZM321.906 426.142V416.594H328.016H328.092L333.376 426.142H337.295L331.762 416.191C334.759 415.345 335.912 413.251 335.912 409.236C335.912 404.106 333.76 401.936 328.707 401.936H318.794V426.142H321.906ZM360.157 404.875V426.142H363.269V404.875H371.568V401.936H351.857V404.875H360.157ZM387.495 401.936V426.142H405.131V423.203H390.607V415.499H403.402V412.56H390.607V404.875H405.131V401.936H387.495ZM431.662 413.655H424.88V404.875H431.662C434.947 404.875 435.773 406.297 435.773 409.101C435.773 412.56 434.813 413.655 431.662 413.655ZM424.88 426.142V416.594H431.009H431.066L436.369 426.142H440.269L434.736 416.191C437.752 415.345 438.885 413.251 438.885 409.236C438.885 404.106 436.753 401.936 431.7 401.936H421.768V426.142H424.88ZM460.633 422.377H456.387V426.911H460.633V422.377ZM508.777 415.595H501.899V404.913H508.777C511.928 404.913 513.445 406.431 513.445 409.678V410.85C513.445 414.116 511.928 415.595 508.777 415.595ZM501.899 426.142V418.534H508.777C513.695 418.534 516.558 415.691 516.558 410.85V409.678C516.558 404.836 513.695 401.974 508.777 401.974H498.787V426.142H501.899ZM544.568 417.747H535.154L539.861 405.816L544.568 417.747ZM551.273 426.142L541.417 401.936H538.305L528.45 426.142H531.869L534.021 420.686H545.702L547.853 426.142H551.273ZM569.044 418.457H565.931C565.931 423.299 568.813 426.142 573.712 426.142H578.073C582.645 426.142 584.759 424.144 584.759 419.841V419.476C584.759 416.556 583.222 414.596 580.359 413.827L571.157 411.407C569.678 411.003 569.044 410.197 569.044 408.602V408.295C569.044 406.047 570.427 404.875 573.712 404.875H576.978C580.109 404.875 581.646 406.431 581.646 409.678L584.759 409.639C584.759 404.798 581.877 401.936 576.978 401.936H573.712C568.909 401.936 565.931 404.222 565.931 408.256V408.602C565.931 411.522 567.468 413.482 570.331 414.25L579.533 416.671C581.012 417.074 581.646 417.881 581.646 419.476V419.841C581.646 422.088 580.609 423.203 577.324 423.203H574.058C570.926 423.203 569.044 421.723 569.044 418.457ZM604.316 418.457H601.204C601.204 423.299 604.085 426.142 608.984 426.142H613.345C617.918 426.142 620.031 424.144 620.031 419.841V419.476C620.031 416.556 618.494 414.596 615.632 413.827L606.429 411.407C604.95 411.003 604.316 410.197 604.316 408.602V408.295C604.316 406.047 605.699 404.875 608.984 404.875H612.25C615.382 404.875 616.919 406.431 616.919 409.678L620.031 409.639C620.031 404.798 617.149 401.936 612.25 401.936H608.984C604.182 401.936 601.204 404.222 601.204 408.256V408.602C601.204 411.522 602.741 413.482 605.603 414.25L614.805 416.671C616.285 417.074 616.919 417.881 616.919 419.476V419.841C616.919 422.088 615.881 423.203 612.596 423.203H609.33C606.199 423.203 604.316 421.723 604.316 418.457ZM660.202 418.457H657.09C657.09 423.299 659.972 426.142 664.871 426.142H669.232C673.804 426.142 675.898 424.144 675.898 419.841V419.476C675.898 416.556 674.381 414.596 671.518 413.827L662.316 411.407C660.836 411.003 660.202 410.197 660.202 408.602V408.295C660.202 406.047 661.586 404.875 664.871 404.875H668.118C671.268 404.875 672.786 406.431 672.786 409.678L675.898 409.639C675.898 404.798 673.036 401.936 668.118 401.936H664.871C660.068 401.936 657.09 404.222 657.09 408.256V408.602C657.09 411.522 658.608 413.482 661.49 414.25L670.692 416.671C672.171 417.074 672.786 417.881 672.786 419.476V419.841C672.786 422.088 671.749 423.203 668.463 423.203H665.217C662.066 423.203 660.202 421.723 660.202 418.457ZM698.798 404.875V426.142H701.911V404.875H710.21V401.936H690.499V404.875H698.798ZM736.05 413.655H729.268V404.875H736.05C739.335 404.875 740.161 406.297 740.161 409.101C740.161 412.56 739.181 413.655 736.05 413.655ZM729.268 426.142V416.594H735.377H735.454L740.737 426.142H744.656L739.123 416.191C742.12 415.345 743.273 413.251 743.273 409.236C743.273 404.106 741.121 401.936 736.069 401.936H726.156V426.142H729.268ZM772.667 423.203H768.383C765.232 423.203 763.714 421.723 763.714 418.457V409.678C763.714 406.431 765.232 404.913 768.383 404.913H772.667C775.817 404.913 777.335 406.431 777.335 409.678V418.457C777.335 421.723 775.817 423.203 772.667 423.203ZM768.383 426.142H772.667C777.566 426.142 780.447 423.299 780.447 418.457V409.678C780.447 404.836 777.566 401.974 772.667 401.974H768.383C763.464 401.974 760.602 404.836 760.602 409.678V418.457C760.602 423.299 763.464 426.142 768.383 426.142ZM797.776 401.936V426.142H800.812V406.258L814.029 426.142H817.833V401.936H814.778V421.819L801.58 401.936H797.776ZM855.007 418.457V412.56H845.498V415.499H851.895V418.457C851.895 421.723 850.358 423.203 847.227 423.203H842.923C839.792 423.203 838.255 421.723 838.255 418.457V409.678C838.255 406.431 839.792 404.913 842.923 404.913H847.227C850.358 404.913 851.895 406.431 851.895 409.678H855.007C855.007 404.836 852.126 401.974 847.227 401.974H842.923C838.024 401.974 835.143 404.836 835.143 409.678V418.457C835.143 423.299 838.024 426.142 842.923 426.142H847.227C852.126 426.142 855.007 423.299 855.007 418.457ZM872.317 401.936V426.142H889.953V423.203H875.429V415.499H888.224V412.56H875.429V404.875H889.953V401.936H872.317ZM916.484 413.655H909.703V404.875H916.484C919.769 404.875 920.596 406.297 920.596 409.101C920.596 412.56 919.635 413.655 916.484 413.655ZM909.703 426.142V416.594H915.831H915.889L921.191 426.142H925.091L919.558 416.191C922.574 415.345 923.708 413.251 923.708 409.236C923.708 404.106 921.575 401.936 916.523 401.936H906.59V426.142H909.703Z" fill="#063C79"/>
</g>
<defs>
<linearGradient id="paint0_linear_107_835" x1="318.655" y1="15.0719" x2="593.346" y2="253.857" gradientUnits="userSpaceOnUse">
<stop offset="0.175" stop-color="#69ABF7"/>
<stop offset="1" stop-color="#0A5BB8"/>
</linearGradient>
<clipPath id="clip0_107_835">
<rect width="938" height="454" fill="white"/>
</clipPath>
</defs>
</svg>
