<svg width="35" height="36" viewBox="0 0 35 36" fill="none" xmlns="http://www.w3.org/2000/svg">
<rect y="0.5" width="35" height="35" rx="8.75" fill="#DCFCE7"/>
<path d="M15.2254 9.19073C15.4996 8.93409 15.925 8.93761 16.1992 9.19425C17.1695 10.1048 18.0801 11.0857 18.9309 12.1474C19.3176 11.6411 19.757 11.0892 20.2316 10.6392C20.5094 10.379 20.9383 10.379 21.216 10.6427C22.4324 11.8028 23.4625 13.3357 24.1867 14.7911C24.9004 16.2255 25.375 17.6915 25.375 18.7251C25.375 23.211 21.8664 27.0009 17.5 27.0009C13.0844 27.0009 9.625 23.2075 9.625 18.7216C9.625 17.3716 10.2508 15.7228 11.2211 14.0915C12.202 12.4357 13.5871 10.7095 15.2254 9.19073ZM17.5598 23.6259C18.4492 23.6259 19.2367 23.3798 19.9785 22.8876C21.4586 21.854 21.8559 19.7868 20.9664 18.1626C20.8082 17.8462 20.4039 17.8251 20.1754 18.0923L19.2895 19.1224C19.0574 19.3896 18.6391 19.3825 18.4211 19.1048C17.841 18.3665 16.8039 17.0482 16.2133 16.2993C15.9918 16.0181 15.5699 16.0146 15.3449 16.2958C14.1566 17.79 13.559 18.7321 13.559 19.7903C13.5625 22.1985 15.3414 23.6259 17.5598 23.6259Z" fill="white"/>
<path d="M15.2254 9.19073C15.4996 8.93409 15.925 8.93761 16.1992 9.19425C17.1695 10.1048 18.0801 11.0857 18.9309 12.1474C19.3176 11.6411 19.757 11.0892 20.2316 10.6392C20.5094 10.379 20.9383 10.379 21.216 10.6427C22.4324 11.8028 23.4625 13.3357 24.1867 14.7911C24.9004 16.2255 25.375 17.6915 25.375 18.7251C25.375 23.211 21.8664 27.0009 17.5 27.0009C13.0844 27.0009 9.625 23.2075 9.625 18.7216C9.625 17.3716 10.2508 15.7228 11.2211 14.0915C12.202 12.4357 13.5871 10.7095 15.2254 9.19073ZM17.5598 23.6259C18.4492 23.6259 19.2367 23.3798 19.9785 22.8876C21.4586 21.854 21.8559 19.7868 20.9664 18.1626C20.8082 17.8462 20.4039 17.8251 20.1754 18.0923L19.2895 19.1224C19.0574 19.3896 18.6391 19.3825 18.4211 19.1048C17.841 18.3665 16.8039 17.0482 16.2133 16.2993C15.9918 16.0181 15.5699 16.0146 15.3449 16.2958C14.1566 17.79 13.559 18.7321 13.559 19.7903C13.5625 22.1985 15.3414 23.6259 17.5598 23.6259Z" fill="url(#paint0_linear_5597_175383)"/>
<defs>
<linearGradient id="paint0_linear_5597_175383" x1="9.625" y1="18.0004" x2="25.375" y2="18.0004" gradientUnits="userSpaceOnUse">
<stop stop-color="#22C55E"/>
<stop offset="1" stop-color="#0D9488"/>
</linearGradient>
</defs>
</svg>
