<svg width="100" height="101" viewBox="0 0 100 101" fill="none" xmlns="http://www.w3.org/2000/svg">
<g clip-path="url(#clip0_5818_25815)">
<path d="M87.9966 61.6628C81.0546 51.2739 90.9038 40.4602 90.9038 27.9858C90.9038 15.1753 86.9583 5.21744 76.7121 2.03131C62.29 -2.45346 44.6351 3.11666 35.6251 16.068C25.2579 30.9708 16.1394 47.6044 9.38158 64.4493C0.7267 86.0227 24.4048 99.6762 43.3333 99.71C55.0013 99.7309 67.4261 102.065 78.5302 98.609C92.4535 94.2753 96.5667 74.4882 87.9966 61.6628Z" fill="url(#paint0_linear_5818_25815)"/>
<path d="M78.9102 42.9302H68.4492C67.3705 42.9302 66.4961 42.0558 66.4961 40.9771V36.2896H80.8633V40.9771C80.8633 42.0556 79.9889 42.9302 78.9102 42.9302Z" fill="#6582FD"/>
<path d="M78.9102 38.2427H68.4492C67.3705 38.2427 66.4961 37.3683 66.4961 36.2896V25.8286C66.4961 24.7499 67.3705 23.8755 68.4492 23.8755H78.9102C79.9889 23.8755 80.8633 24.7499 80.8633 25.8286V36.2896C80.8633 37.3681 79.9889 38.2427 78.9102 38.2427Z" fill="#9EAFFD"/>
<path d="M31.5508 42.9302H21.0898C20.0111 42.9302 19.1367 42.0558 19.1367 40.9771V36.2896H33.5039V40.9771C33.5039 42.0556 32.6295 42.9302 31.5508 42.9302Z" fill="#FF5BA7"/>
<path d="M31.5508 38.2427H21.0898C20.0111 38.2427 19.1367 37.3683 19.1367 36.2896V25.8286C19.1367 24.7499 20.0111 23.8755 21.0898 23.8755H31.5508C32.6295 23.8755 33.5039 24.7499 33.5039 25.8286V36.2896C33.5039 37.3681 32.6295 38.2427 31.5508 38.2427Z" fill="#FFA7CE"/>
<path d="M26.8426 27.147H25.8014C24.5303 27.147 23.4961 28.1812 23.4961 29.4522V33.995C23.4961 34.5345 23.9332 34.9716 24.4727 34.9716C25.0121 34.9716 25.4492 34.5345 25.4492 33.995V33.719H27.1947V33.995C27.1947 34.5345 27.6318 34.9716 28.1713 34.9716C28.7107 34.9716 29.1479 34.5345 29.1479 33.995V29.4522C29.1477 28.1812 28.1137 27.147 26.8426 27.147ZM25.4492 31.7657V29.452C25.4492 29.2579 25.6072 29.0999 25.8014 29.0999H26.8426C27.0367 29.0999 27.1947 29.2579 27.1947 29.452V31.7657H25.4492Z" fill="#FF5BA7"/>
<path d="M42.9562 79.197H46.6076C46.8666 79.197 47.115 79.0941 47.2982 78.9109C47.4813 78.7278 47.5842 78.4794 47.5842 78.2204V72.9136L43.0658 71.937L37.0586 72.9136C37.0586 72.9136 40.1352 74.2407 42.0617 78.6093C42.1377 78.7835 42.2628 78.9318 42.4216 79.0361C42.5804 79.1405 42.7662 79.1964 42.9562 79.197Z" fill="#8298FD"/>
<path d="M36.4305 36.6162C30.5793 36.6162 25.7836 41.1229 25.3174 46.8539C24.8091 46.7494 24.2916 46.6968 23.7727 46.6971C19.8342 46.6971 16.5939 49.6852 16.1943 53.5178C12.0924 54.7273 9.09766 58.5193 9.09766 63.0131C9.09766 68.4811 13.5303 72.9137 18.9982 72.9137H47.5842V47.7699C47.5842 41.61 42.5904 36.6162 36.4305 36.6162Z" fill="#9EAFFD"/>
<path d="M47.584 47.7695V56.5527C43.0879 55.4668 39.748 51.416 39.748 46.5859C39.748 43.5313 41.084 40.7871 43.2051 38.9102C45.8672 40.9473 47.584 44.1582 47.584 47.7695ZM39.541 67.5254C39.541 68.0664 39.1035 68.502 38.5645 68.502C37.0801 68.502 35.9531 68.9043 35.2148 69.6953C34.0508 70.9434 34.1504 72.8262 34.1504 72.8457C34.1523 72.8672 34.1523 72.8906 34.1523 72.9141H32.1992C32.1816 72.4746 32.166 70.1035 33.7852 68.3652C34.9082 67.1602 36.5156 66.5488 38.5645 66.5488C39.1035 66.5488 39.541 66.9863 39.541 67.5254ZM39.7109 62.7539C39.7109 63.293 39.2734 63.7305 38.7344 63.7305C35.7227 63.7305 33.3711 62.9023 31.748 61.2715C29.8477 59.3594 28.9336 56.377 28.957 52.1563C28.9727 49.166 26.8574 47.5801 25.3203 46.8242C25.3789 46.1387 25.498 45.4727 25.6738 44.8281C28.0117 45.8438 30.9316 48.1484 30.9102 52.166C30.8906 55.8418 31.6172 58.3691 33.1328 59.8945C34.3945 61.1602 36.2266 61.7773 38.7344 61.7773C39.2734 61.7773 39.7109 62.2148 39.7109 62.7539Z" fill="#8298FD"/>
<path d="M23.9438 68.1955C23.6847 68.1955 23.4364 68.0926 23.2532 67.9095C23.0701 67.7263 22.9672 67.478 22.9672 67.219C22.9672 62.4596 26.8391 58.5877 31.5984 58.5877C32.1379 58.5877 32.575 59.0248 32.575 59.5643C32.575 60.1037 32.1379 60.5408 31.5984 60.5408C27.916 60.5408 24.9203 63.5367 24.9203 67.219C24.9203 67.478 24.8174 67.7263 24.6343 67.9095C24.4511 68.0926 24.2028 68.1955 23.9438 68.1955ZM23.3992 57.5762C23.2547 57.6523 23.1004 57.6875 22.9461 57.6875C22.5945 57.6875 22.2566 57.4981 22.0809 57.166C20.5379 54.2305 17.9539 53.5313 16.2039 53.4258C16.2801 52.7539 16.4461 52.1094 16.6883 51.502C19.1043 51.752 22.0633 52.9356 23.8094 56.2578C23.8692 56.3713 23.9061 56.4954 23.9179 56.6231C23.9297 56.7509 23.9161 56.8797 23.878 57.0021C23.8399 57.1246 23.778 57.2384 23.6958 57.3369C23.6137 57.4354 23.5129 57.5167 23.3992 57.5762ZM47.5809 53.4766V57.5742C46.5906 59.0078 44.9344 59.9473 43.0633 59.9473C40.034 59.9473 37.5691 57.4824 37.5691 54.4531C37.5691 53.9121 38.0047 53.4766 38.5457 53.4766C39.0848 53.4766 39.5223 53.9121 39.5223 54.4531C39.5223 56.4063 41.1102 57.9941 43.0633 57.9941C45.0164 57.9941 46.6043 56.4063 46.6043 54.4531C46.6043 53.9121 47.0418 53.4766 47.5809 53.4766ZM41.8131 48.2703C41.5541 48.2703 41.3057 48.1674 41.1226 47.9843C40.9394 47.8011 40.8365 47.5528 40.8365 47.2938C40.8365 44.9939 38.9654 43.1229 36.6656 43.1229C35.6147 43.1216 34.6023 43.5183 33.832 44.2332C33.642 44.4092 33.3898 44.5025 33.131 44.4926C32.8722 44.4826 32.6279 44.3703 32.452 44.1803C32.276 43.9903 32.1827 43.7381 32.1926 43.4793C32.2025 43.2205 32.3149 42.9762 32.5049 42.8002C33.636 41.7506 35.1225 41.1681 36.6656 41.1699C40.0424 41.1699 42.7896 43.9172 42.7896 47.294C42.7896 47.4222 42.7644 47.5492 42.7153 47.6676C42.6662 47.7861 42.5943 47.8937 42.5036 47.9844C42.4129 48.0751 42.3053 48.147 42.1868 48.1961C42.0683 48.2451 41.9413 48.2703 41.8131 48.2703ZM18.4289 67.8234C15.7801 67.8234 13.625 65.6686 13.625 63.0195C13.625 62.4801 14.0621 62.043 14.6016 62.043C15.141 62.043 15.5781 62.4801 15.5781 63.0195C15.5781 64.5914 16.857 65.8703 18.4289 65.8703C18.9684 65.8703 19.4055 66.3074 19.4055 66.8469C19.4055 67.3863 18.9684 67.8234 18.4289 67.8234Z" fill="#8298FD"/>
<path d="M57.0459 79.197H53.3945C53.1355 79.197 52.8871 79.0941 52.704 78.9109C52.5209 78.7278 52.418 78.4794 52.418 78.2204V72.9136L56.9363 71.937L62.9436 72.9136C62.9436 72.9136 59.867 74.2407 57.9404 78.6093C57.8644 78.7835 57.7394 78.9318 57.5805 79.0361C57.4217 79.1405 57.2359 79.1964 57.0459 79.197Z" fill="#FF5BA7"/>
<path d="M63.5717 36.6162C69.4228 36.6162 74.2186 41.1229 74.6848 46.8539C75.193 46.7494 75.7106 46.6968 76.2295 46.6971C80.168 46.6971 83.4082 49.6852 83.8078 53.5178C87.9098 54.7273 90.9045 58.5193 90.9045 63.0131C90.9045 68.4811 86.4719 72.9137 81.0039 72.9137H52.418V47.7699C52.418 41.61 57.4117 36.6162 63.5717 36.6162Z" fill="#FF7EB7"/>
<path d="M60.2539 46.5859C60.2539 51.416 56.9141 55.4668 52.418 56.5527V47.7695C52.418 44.1582 54.1348 40.9473 56.7969 38.9102C58.918 40.7871 60.2539 43.5313 60.2539 46.5859ZM67.8027 72.9141H65.8496C65.8496 72.8926 65.8496 72.8711 65.8516 72.8496C65.8535 72.8047 65.9453 70.9277 64.7773 69.6855C64.0391 68.9004 62.916 68.502 61.4375 68.502C60.8984 68.502 60.4609 68.0664 60.4609 67.5254C60.4609 66.9863 60.8984 66.5488 61.4375 66.5488C63.4863 66.5488 65.0937 67.1602 66.2168 68.3652C67.8359 70.1035 67.8203 72.4746 67.8027 72.9141ZM74.6816 46.8242C73.1504 47.5781 71.0449 49.1543 71.0449 52.125V52.1563C71.0684 56.377 70.1543 59.3594 68.2539 61.2715C66.6309 62.9023 64.2793 63.7305 61.2676 63.7305C60.7285 63.7305 60.291 63.293 60.291 62.7539C60.291 62.2148 60.7285 61.7773 61.2676 61.7773C63.7754 61.7773 65.6074 61.1602 66.8691 59.8945C68.3848 58.3691 69.1113 55.8418 69.0918 52.166C69.0703 48.1484 71.9902 45.8438 74.3281 44.8281C74.5039 45.4727 74.623 46.1387 74.6816 46.8242Z" fill="#FF5BA7"/>
<path d="M76.0549 68.1957C75.7959 68.1957 75.5475 68.0928 75.3643 67.9097C75.1812 67.7265 75.0783 67.4781 75.0783 67.2191C75.0783 63.5367 72.0826 60.541 68.4004 60.541C67.8609 60.541 67.4238 60.1039 67.4238 59.5645C67.4238 59.025 67.8609 58.5879 68.4004 58.5879C73.1596 58.5879 77.0314 62.4598 77.0314 67.2191C77.0314 67.4781 76.9286 67.7265 76.7454 67.9097C76.5623 68.0928 76.3139 68.1957 76.0549 68.1957ZM83.9062 53.549C82.2285 53.5842 79.502 54.1506 77.918 57.1662C77.7422 57.4982 77.4043 57.6877 77.0527 57.6877C76.8847 57.6879 76.7194 57.6447 76.5729 57.5622C76.4265 57.4797 76.3039 57.3608 76.217 57.2169C76.1301 57.073 76.0819 56.9091 76.0771 56.7411C76.0723 56.573 76.111 56.4066 76.1895 56.258C77.9453 52.9162 80.9648 51.8029 83.3555 51.6154C83.584 52.217 83.7383 52.8557 83.8066 53.5178C83.8398 53.5275 83.873 53.5373 83.9062 53.549ZM62.4297 54.4533C62.4297 57.4826 59.9648 59.9475 56.9355 59.9475C55.0645 59.9475 53.4082 59.008 52.418 57.5744V53.4768C52.957 53.4768 53.3945 53.9123 53.3945 54.4533C53.3945 56.4064 54.9824 57.9943 56.9355 57.9943C58.8887 57.9943 60.4766 56.4064 60.4766 54.4533C60.4766 53.9123 60.9141 53.4768 61.4531 53.4768C61.9941 53.4768 62.4297 53.9123 62.4297 54.4533ZM58.1855 48.2705C57.9265 48.2705 57.6782 48.1676 57.495 47.9845C57.3119 47.8013 57.209 47.5529 57.209 47.2939C57.209 43.9172 59.9563 41.1699 63.333 41.1699C64.8761 41.168 66.3627 41.7506 67.4937 42.8004C67.5902 42.8869 67.6684 42.9917 67.7239 43.1088C67.7794 43.2258 67.8111 43.3527 67.817 43.4821C67.823 43.6115 67.8032 43.7408 67.7587 43.8625C67.7143 43.9841 67.646 44.0957 67.558 44.1908C67.47 44.2858 67.364 44.3624 67.2461 44.4161C67.1282 44.4697 67.0008 44.4994 66.8713 44.5033C66.7418 44.5073 66.6128 44.4854 66.4919 44.4391C66.371 44.3927 66.2604 44.3227 66.1668 44.2332C65.3965 43.5183 64.3841 43.1217 63.3332 43.1231C61.0334 43.1231 59.1623 44.9941 59.1623 47.2939C59.1623 47.4222 59.137 47.5492 59.0879 47.6677C59.0389 47.7862 58.9669 47.8939 58.8762 47.9846C58.7855 48.0752 58.6778 48.1472 58.5593 48.1962C58.4408 48.2453 58.3138 48.2705 58.1855 48.2705ZM81.5697 67.8236C81.0303 67.8236 80.5932 67.3865 80.5932 66.8471C80.5932 66.3076 81.0303 65.8705 81.5697 65.8705C83.1418 65.8705 84.4207 64.5916 84.4207 63.0197C84.4207 62.4803 84.8578 62.0432 85.3973 62.0432C85.9367 62.0432 86.3738 62.4803 86.3738 63.0197C86.3736 65.6688 84.2186 67.8236 81.5697 67.8236Z" fill="#FF5BA7"/>
<path d="M31.5508 84.9224H21.0898C20.0111 84.9224 19.1367 84.0479 19.1367 82.9692V78.2817H33.5039V82.9692C33.5039 84.0478 32.6295 84.9224 31.5508 84.9224Z" fill="#01EBA4"/>
<path d="M31.5508 80.2349H21.0898C20.0111 80.2349 19.1367 79.3604 19.1367 78.2817V67.8208C19.1367 66.7421 20.0111 65.8677 21.0898 65.8677H31.5508C32.6295 65.8677 33.5039 66.7421 33.5039 67.8208V78.2817C33.5039 79.3603 32.6295 80.2349 31.5508 80.2349Z" fill="#96FFD1"/>
<path d="M28.4336 72.6593C28.6428 72.3025 28.7532 71.8965 28.7533 71.4829C28.7533 70.1905 27.702 69.1392 26.4096 69.1392H24.4688C24.2097 69.1392 23.9614 69.242 23.7782 69.4252C23.5951 69.6083 23.4922 69.8567 23.4922 70.1157V75.9872C23.4922 76.2462 23.5951 76.4946 23.7782 76.6777C23.9614 76.8609 24.2097 76.9638 24.4688 76.9638H26.5988C28.0023 76.9638 29.1439 75.822 29.1439 74.4188C29.1439 73.736 28.8725 73.1167 28.4336 72.6593ZM25.4455 71.0923H26.4098C26.6252 71.0923 26.8004 71.2675 26.8004 71.4829C26.8004 71.6983 26.6252 71.8735 26.4098 71.8735H25.4455V71.0923ZM26.5988 75.0105H25.4455V73.8265H26.599C26.756 73.8266 26.9065 73.889 27.0175 74C27.1284 74.111 27.1909 74.2615 27.191 74.4185C27.1908 74.5754 27.1283 74.7259 27.0173 74.8369C26.9063 74.9479 26.7558 75.0103 26.5988 75.0105Z" fill="#00D78F"/>
<path d="M36.4389 36.6163C35.4482 36.6157 34.4618 36.7471 33.5059 37.0069V25.8286C33.5059 24.7499 32.6314 23.8755 31.5527 23.8755H21.0918C20.0131 23.8755 19.1387 24.7499 19.1387 25.8286V40.9771C19.1387 42.0558 20.0131 42.9302 21.0918 42.9302H26.3842C25.7897 44.1612 25.4281 45.4915 25.3174 46.854C24.8091 46.7495 24.2915 46.6969 23.7726 46.6972C19.8342 46.6972 16.5939 49.6853 16.1943 53.5179C11.8152 54.8091 8.69804 59.0438 9.13925 63.9331C9.60077 69.0472 13.9889 72.9138 19.1238 72.9138H19.1387V82.9692C19.1387 84.0479 20.0131 84.9224 21.0918 84.9224H31.5527C32.6314 84.9224 33.5059 84.0479 33.5059 82.9692V72.9138H37.0584C37.0584 72.9138 40.135 74.2409 42.0615 78.6095C42.1376 78.7837 42.2627 78.9319 42.4215 79.0363C42.5804 79.1406 42.7662 79.1965 42.9562 79.1972H46.6076C46.8666 79.1972 47.115 79.0943 47.2981 78.9111C47.4813 78.728 47.5842 78.4796 47.5842 78.2206V47.9419C47.5842 41.7571 42.6236 36.621 36.4389 36.6163Z" fill="url(#paint1_linear_5818_25815)"/>
<path d="M78.9102 84.9224H68.4492C67.3705 84.9224 66.4961 84.0479 66.4961 82.9692V78.2817H80.8633V82.9692C80.8633 84.0478 79.9889 84.9224 78.9102 84.9224Z" fill="#6582FD"/>
<path d="M78.9102 80.2349H68.4492C67.3705 80.2349 66.4961 79.3604 66.4961 78.2817V67.8208C66.4961 66.7421 67.3705 65.8677 68.4492 65.8677H78.9102C79.9889 65.8677 80.8633 66.7421 80.8633 67.8208V78.2817C80.8633 79.3603 79.9889 80.2349 78.9102 80.2349Z" fill="#9EAFFD"/>
<path d="M76.0564 30.0825H74.657V28.6831C74.657 28.1437 74.2199 27.7065 73.6805 27.7065C73.141 27.7065 72.7039 28.1437 72.7039 28.6831V30.0825H71.3047C70.7652 30.0825 70.3281 30.5196 70.3281 31.0591C70.3281 31.5985 70.7652 32.0356 71.3047 32.0356H72.7039V33.4349C72.7039 33.9743 73.141 34.4114 73.6805 34.4114C74.2199 34.4114 74.657 33.9743 74.657 33.4349V32.0356H76.0564C76.5959 32.0356 77.033 31.5985 77.033 31.0591C77.033 30.5196 76.5959 30.0825 76.0564 30.0825ZM76.0564 72.2083H71.3047C70.7652 72.2083 70.3281 71.7712 70.3281 71.2317C70.3281 70.6923 70.7652 70.2552 71.3047 70.2552H76.0564C76.5959 70.2552 77.033 70.6923 77.033 71.2317C77.033 71.7712 76.5959 72.2083 76.0564 72.2083ZM76.0564 75.847H71.3047C70.7652 75.847 70.3281 75.4099 70.3281 74.8704C70.3281 74.331 70.7652 73.8938 71.3047 73.8938H76.0564C76.5959 73.8938 77.033 74.331 77.033 74.8704C77.033 75.4099 76.5959 75.847 76.0564 75.847Z" fill="white"/>
<path d="M83.8078 53.5179C83.4082 49.6851 80.168 46.6972 76.2295 46.6972C75.7002 46.6972 75.1836 46.7513 74.6848 46.854C74.5741 45.4915 74.2124 44.1612 73.618 42.9302H78.9102C79.9889 42.9302 80.8633 42.0558 80.8633 40.9771V25.8286C80.8633 24.7499 79.9889 23.8755 78.9102 23.8755H68.4492C67.3705 23.8755 66.4961 24.7499 66.4961 25.8286V37.0069C65.5401 36.7471 64.5538 36.6157 63.5631 36.6163C57.3783 36.621 52.418 41.7569 52.418 47.9415V78.2204C52.418 78.4794 52.5209 78.7278 52.704 78.9109C52.8871 79.0941 53.1355 79.197 53.3945 79.197H57.0459C57.236 79.1963 57.4217 79.1404 57.5806 79.0361C57.7395 78.9318 57.8646 78.7835 57.9406 78.6093C59.8672 74.2407 62.9437 72.9136 62.9437 72.9136H66.4963V82.969C66.4963 84.0478 67.3707 84.9222 68.4494 84.9222H78.9104C79.9891 84.9222 80.8635 84.0478 80.8635 82.969V72.9136H80.8785C86.0135 72.9136 90.4014 69.047 90.8631 63.9329C91.3041 59.0438 88.1869 54.8091 83.8078 53.5179Z" fill="url(#paint2_linear_5818_25815)"/>
<path d="M50 52.1523C55.6631 52.1523 60.2539 47.5615 60.2539 41.8984C60.2539 36.2354 55.6631 31.6445 50 31.6445C44.3369 31.6445 39.7461 36.2354 39.7461 41.8984C39.7461 47.5615 44.3369 52.1523 50 52.1523Z" fill="#02FFB2"/>
<path d="M49.1719 48.1787C49.8148 48.1787 50.3359 47.6575 50.3359 47.0146C50.3359 46.3718 49.8148 45.8506 49.1719 45.8506C48.529 45.8506 48.0078 46.3718 48.0078 47.0146C48.0078 47.6575 48.529 48.1787 49.1719 48.1787Z" fill="white"/>
<path d="M49.1686 44.7694C48.9096 44.7694 48.6612 44.6665 48.478 44.4834C48.2949 44.3003 48.192 44.0519 48.192 43.7929V42.8624C48.192 41.7854 49.0682 40.9093 50.1451 40.9093H52.0289C52.308 40.909 52.5756 40.798 52.773 40.6006C52.9703 40.4032 53.0813 40.1357 53.0816 39.8565V38.7093C53.0813 38.4302 52.9703 38.1626 52.7729 37.9653C52.5756 37.768 52.308 37.657 52.0289 37.6567H47.9705C47.6914 37.657 47.4239 37.768 47.2265 37.9653C47.0292 38.1626 46.9182 38.4302 46.918 38.7093C46.918 39.2487 46.4809 39.6858 45.9414 39.6858C45.402 39.6858 44.9648 39.2487 44.9648 38.7093C44.9648 37.052 46.3131 35.7036 47.9705 35.7036H52.0287C53.6861 35.7036 55.0346 37.0519 55.0346 38.7093V39.8565C55.0346 41.514 53.6863 42.8624 52.0287 42.8624H50.1449V43.7929C50.145 43.9211 50.1198 44.0481 50.0707 44.1666C50.0217 44.2851 49.9498 44.3928 49.8591 44.4834C49.7684 44.5741 49.6608 44.6461 49.5423 44.6951C49.4238 44.7442 49.2968 44.7695 49.1686 44.7694Z" fill="white"/>
<path d="M43.2541 19.6582C43.1259 19.6582 42.9989 19.6329 42.8804 19.5839C42.7619 19.5348 42.6542 19.4629 42.5636 19.3722C42.4729 19.2815 42.4009 19.1738 42.3519 19.0554C42.3028 18.9369 42.2775 18.8099 42.2775 18.6816V18.6592C42.2775 18.1197 42.7146 17.6826 43.2541 17.6826C43.7936 17.6826 44.2307 18.1197 44.2307 18.6592V18.6816C44.2307 18.8099 44.2054 18.9369 44.1563 19.0554C44.1072 19.1738 44.0353 19.2815 43.9446 19.3722C43.854 19.4629 43.7463 19.5348 43.6278 19.5839C43.5093 19.6329 43.3823 19.6582 43.2541 19.6582ZM56.7486 19.6582H46.9908C46.4514 19.6582 46.0143 19.2211 46.0143 18.6816C46.0143 18.1422 46.4514 17.7051 46.9908 17.7051H56.7486C57.2881 17.7051 57.7252 18.1422 57.7252 18.6816C57.7252 19.2211 57.2881 19.6582 56.7486 19.6582ZM43.2541 23.6756C42.9951 23.6756 42.7467 23.5727 42.5636 23.3896C42.3804 23.2064 42.2775 22.958 42.2775 22.699V22.6766C42.2775 22.1371 42.7146 21.7 43.2541 21.7C43.7936 21.7 44.2307 22.1371 44.2307 22.6766V22.699C44.2307 22.958 44.1278 23.2064 43.9446 23.3896C43.7615 23.5727 43.5131 23.6756 43.2541 23.6756ZM56.7486 23.6756H46.9908C46.4514 23.6756 46.0143 23.2385 46.0143 22.699C46.0143 22.1596 46.4514 21.7225 46.9908 21.7225H56.7486C57.2881 21.7225 57.7252 22.1596 57.7252 22.699C57.7252 23.2385 57.2881 23.6756 56.7486 23.6756ZM43.2541 27.6932C42.9951 27.6932 42.7467 27.5903 42.5636 27.4071C42.3804 27.224 42.2775 26.9756 42.2775 26.7166V26.6941C42.2775 26.1547 42.7146 25.7176 43.2541 25.7176C43.7936 25.7176 44.2307 26.1547 44.2307 26.6941V26.7166C44.2307 26.9756 44.1278 27.224 43.9446 27.4071C43.7615 27.5903 43.5131 27.6932 43.2541 27.6932ZM56.7486 27.6932H46.9908C46.4514 27.6932 46.0143 27.2561 46.0143 26.7166C46.0143 26.1771 46.4514 25.74 46.9908 25.74H56.7486C57.2881 25.74 57.7252 26.1771 57.7252 26.7166C57.7252 27.2561 57.2881 27.6932 56.7486 27.6932ZM37.9518 93.8418C37.6928 93.8418 37.4444 93.7389 37.2612 93.5558C37.0781 93.3726 36.9752 93.1242 36.9752 92.8652C36.9748 92.5373 36.8444 92.2229 36.6125 91.991C36.3806 91.7591 36.0662 91.6287 35.7383 91.6283C35.1988 91.6283 34.7617 91.1912 34.7617 90.6518C34.7617 90.1123 35.1988 89.6752 35.7383 89.6752C36.0662 89.6748 36.3806 89.5443 36.6125 89.3124C36.8444 89.0805 36.9748 88.766 36.9752 88.4381C36.9752 87.8986 37.4123 87.4615 37.9518 87.4615C38.4912 87.4615 38.9283 87.8986 38.9283 88.4381C38.9287 88.7661 39.0592 89.0805 39.2911 89.3124C39.523 89.5443 39.8375 89.6748 40.1654 89.6752C40.7049 89.6752 41.142 90.1123 41.142 90.6518C41.142 91.1912 40.7049 91.6283 40.1654 91.6283C39.8375 91.6287 39.523 91.7591 39.2911 91.991C39.0592 92.2229 38.9287 92.5373 38.9283 92.8652C38.9283 93.1242 38.8254 93.3726 38.6423 93.5558C38.4592 93.7389 38.2108 93.8418 37.9518 93.8418Z" fill="#01EBA4"/>
<path d="M62.94 13.3119C62.681 13.3119 62.4326 13.209 62.2495 13.0259C62.0664 12.8427 61.9635 12.5944 61.9635 12.3354C61.9631 12.0074 61.8327 11.693 61.6008 11.4611C61.3689 11.2292 61.0545 11.0988 60.7266 11.0984C60.1871 11.0984 59.75 10.6613 59.75 10.1219C59.75 9.58242 60.1871 9.14531 60.7266 9.14531C61.0545 9.1449 61.3689 9.01442 61.6008 8.7825C61.8327 8.55058 61.9631 8.23616 61.9635 7.9082C61.9635 7.36875 62.4006 6.93164 62.94 6.93164C63.4795 6.93164 63.9166 7.36875 63.9166 7.9082C63.917 8.23618 64.0475 8.5506 64.2794 8.78251C64.5113 9.01443 64.8257 9.1449 65.1537 9.14531C65.6932 9.14531 66.1303 9.58242 66.1303 10.1219C66.1303 10.6613 65.6932 11.0984 65.1537 11.0984C64.8258 11.0988 64.5113 11.2292 64.2794 11.4611C64.0475 11.693 63.917 12.0074 63.9166 12.3354C63.9166 12.5944 63.8137 12.8427 63.6306 13.0259C63.4474 13.209 63.199 13.3119 62.94 13.3119Z" fill="#FF7EB7"/>
<path d="M74.6836 17.2178C73.0682 17.2178 71.7539 15.9035 71.7539 14.2881C71.7539 12.6727 73.0682 11.3584 74.6836 11.3584C76.299 11.3584 77.6133 12.6727 77.6133 14.2881C77.6133 15.9035 76.299 17.2178 74.6836 17.2178ZM74.6836 13.3115C74.1451 13.3115 73.707 13.7496 73.707 14.2881C73.707 14.8266 74.1451 15.2646 74.6836 15.2646C75.2221 15.2646 75.6602 14.8266 75.6602 14.2881C75.6602 13.7496 75.2221 13.3115 74.6836 13.3115Z" fill="#8298FD"/>
<path d="M11.832 83.1064C10.2166 83.1064 8.90234 81.7922 8.90234 80.1768C8.90234 78.5613 10.2166 77.2471 11.832 77.2471C13.4475 77.2471 14.7617 78.5613 14.7617 80.1768C14.7617 81.7922 13.4477 83.1064 11.832 83.1064ZM11.832 79.2002C11.2936 79.2002 10.8555 79.6383 10.8555 80.1768C10.8555 80.7152 11.2936 81.1533 11.832 81.1533C12.3705 81.1533 12.8086 80.7152 12.8086 80.1768C12.8086 79.6383 12.3705 79.2002 11.832 79.2002Z" fill="#FF7EB7"/>
<path d="M88.9414 46.7227C87.326 46.7227 86.0117 45.4084 86.0117 43.793C86.0117 42.1775 87.326 40.8633 88.9414 40.8633C90.5568 40.8633 91.8711 42.1775 91.8711 43.793C91.8711 45.4084 90.5568 46.7227 88.9414 46.7227ZM88.9414 42.8164C88.4029 42.8164 87.9648 43.2545 87.9648 43.793C87.9648 44.3314 88.4029 44.7695 88.9414 44.7695C89.4799 44.7695 89.918 44.3314 89.918 43.793C89.918 43.2545 89.4799 42.8164 88.9414 42.8164Z" fill="#01EBA4"/>
</g>
<defs>
<linearGradient id="paint0_linear_5818_25815" x1="20.5992" y1="94.885" x2="96.581" y2="18.9032" gradientUnits="userSpaceOnUse">
<stop stop-color="#FF92FF" stop-opacity="0.1"/>
<stop offset="1" stop-color="#FFCDE5"/>
</linearGradient>
<linearGradient id="paint1_linear_5818_25815" x1="9.09766" y1="23.8755" x2="47.5842" y2="23.8755" gradientUnits="userSpaceOnUse">
<stop stop-color="#6582FD" stop-opacity="0.6"/>
<stop offset="0.05" stop-color="#839AFD" stop-opacity="0.57"/>
<stop offset="0.116" stop-color="#A4B5FE" stop-opacity="0.53"/>
<stop offset="0.19" stop-color="#C1CCFE" stop-opacity="0.486"/>
<stop offset="0.273" stop-color="#D8DFFE" stop-opacity="0.436"/>
<stop offset="0.368" stop-color="#E9EDFF" stop-opacity="0.379"/>
<stop offset="0.482" stop-color="#F6F8FF" stop-opacity="0.31"/>
<stop offset="0.635" stop-color="#FDFDFF" stop-opacity="0.218"/>
<stop offset="0.997" stop-color="white" stop-opacity="0"/>
</linearGradient>
<linearGradient id="paint2_linear_5818_25815" x1="52.418" y1="23.8755" x2="90.9046" y2="23.8755" gradientUnits="userSpaceOnUse">
<stop stop-color="#6582FD" stop-opacity="0.6"/>
<stop offset="0.05" stop-color="#839AFD" stop-opacity="0.57"/>
<stop offset="0.116" stop-color="#A4B5FE" stop-opacity="0.53"/>
<stop offset="0.19" stop-color="#C1CCFE" stop-opacity="0.486"/>
<stop offset="0.273" stop-color="#D8DFFE" stop-opacity="0.436"/>
<stop offset="0.368" stop-color="#E9EDFF" stop-opacity="0.379"/>
<stop offset="0.482" stop-color="#F6F8FF" stop-opacity="0.31"/>
<stop offset="0.635" stop-color="#FDFDFF" stop-opacity="0.218"/>
<stop offset="0.997" stop-color="white" stop-opacity="0"/>
</linearGradient>
<clipPath id="clip0_5818_25815">
<rect width="100" height="100" fill="white" transform="translate(0 0.5)"/>
</clipPath>
</defs>
</svg>
