<svg width="100" height="102" viewBox="0 0 100 102" fill="none" xmlns="http://www.w3.org/2000/svg">
<path d="M91.4291 65.3674C70.4047 53.9293 112.038 23.7658 91.9024 7.81345C77.5596 -3.54964 56.1473 9.84021 45.775 21.4312C30.0666 38.9855 8.78577 16.3902 1.12288 28.2732C-3.14548 34.8924 6.54358 41.4627 0.820145 65.4476C-2.40173 78.9492 6.58909 95.8154 20.2989 97.8703C40.7535 100.936 59.7397 87.2631 79.7229 94.4615C95.4321 100.12 109.688 75.3006 91.4291 65.3674Z" fill="url(#paint0_linear_5818_25776)"/>
<path d="M23.8867 56.0762H88.4996C89.5783 56.0762 90.4527 56.9506 90.4527 58.0293V81.4527C90.4527 82.5314 89.5783 83.4059 88.4996 83.4059H81.626L78.5949 86.7521C78.5034 86.8532 78.3917 86.934 78.267 86.9893C78.1423 87.0446 78.0075 87.0732 77.8711 87.0732C77.7347 87.0732 77.5999 87.0446 77.4752 86.9893C77.3505 86.934 77.2388 86.8532 77.1473 86.7521L74.1162 83.4059H23.8867C22.808 83.4059 21.9336 82.5314 21.9336 81.4527V58.0293C21.9336 56.9506 22.808 56.0762 23.8867 56.0762Z" fill="#02FFB2"/>
<path d="M65.6211 79.7974C65.3621 79.7974 65.1137 79.6945 64.9306 79.5113C64.7474 79.3282 64.6445 79.0798 64.6445 78.8208V60.6616C64.6445 60.4026 64.7474 60.1542 64.9306 59.9711C65.1137 59.7879 65.3621 59.6851 65.6211 59.6851C65.8801 59.6851 66.1285 59.7879 66.3116 59.9711C66.4948 60.1542 66.5977 60.4026 66.5977 60.6616V78.8208C66.5977 79.0798 66.4948 79.3282 66.3116 79.5113C66.1285 79.6945 65.8801 79.7974 65.6211 79.7974Z" fill="#01EBA4"/>
<path d="M72.9883 66.8475V76.0127C72.9883 76.2717 73.0912 76.5201 73.2743 76.7032C73.4574 76.8864 73.7058 76.9893 73.9648 76.9893H75.2238C75.4828 76.9893 75.7312 76.8864 75.9144 76.7032C76.0975 76.5201 76.2004 76.2717 76.2004 76.0127V73.8627H79.9377V76.0127C79.9377 76.2717 80.0406 76.5201 80.2237 76.7032C80.4069 76.8864 80.6553 76.9893 80.9143 76.9893H82.1732C82.4322 76.9893 82.6806 76.8864 82.8638 76.7032C83.0469 76.5201 83.1498 76.2717 83.1498 76.0127V66.8475C83.1498 64.5818 81.3131 62.7451 79.0475 62.7451H77.091C74.825 62.7451 72.9883 64.5818 72.9883 66.8475ZM76.2004 70.6506V66.8475C76.2004 66.6113 76.2942 66.3848 76.4612 66.2178C76.6282 66.0508 76.8547 65.957 77.0908 65.957H79.0473C79.1642 65.957 79.28 65.9801 79.388 66.0248C79.496 66.0696 79.5942 66.1351 79.6769 66.2178C79.7596 66.3005 79.8252 66.3987 79.8699 66.5067C79.9147 66.6147 79.9377 66.7305 79.9377 66.8475V70.6506H76.2004Z" fill="white"/>
<path d="M78.0664 22.2725V45.6963C78.0664 46.7744 77.1934 47.6494 76.1133 47.6494H25.8848L22.8535 50.9951C22.4648 51.4229 21.793 51.4229 21.4062 50.9951L18.375 47.6494H11.5C10.4219 47.6494 9.54688 46.7744 9.54688 45.6963V22.2725C9.54688 21.1943 10.4219 20.3193 11.5 20.3193H76.1133C77.1934 20.3193 78.0664 21.1943 78.0664 22.2725Z" fill="#9EAFFD"/>
<path d="M78.0664 22.2725V35.2607C72.4043 35.2607 67.8125 30.6689 67.8125 25.0068C67.8125 23.3174 68.2207 21.7256 68.9453 20.3193H76.1133C77.1934 20.3193 78.0664 21.1943 78.0664 22.2725Z" fill="#8298FD"/>
<path d="M27.2563 38.0198H26.9127C26.9766 37.7327 27.0129 37.4354 27.0129 37.1294V31.0901C27.0129 28.828 25.1727 26.9878 22.9105 26.9878H20.9539C18.6918 26.9878 16.8516 28.828 16.8516 31.0901V37.1294C16.8516 39.3917 18.6918 41.2319 20.9539 41.2319H27.2563C27.6779 41.2254 28.08 41.0533 28.3758 40.7528C28.6716 40.4523 28.8375 40.0475 28.8375 39.6259C28.8375 39.2042 28.6716 38.7995 28.3758 38.499C28.08 38.1985 27.6779 38.0264 27.2563 38.0198ZM20.0635 37.1294V31.0901C20.0638 30.8541 20.1577 30.6278 20.3246 30.4608C20.4915 30.2939 20.7178 30.2 20.9539 30.1997H22.9105C23.1466 30.2 23.3729 30.2939 23.5398 30.4608C23.7068 30.6278 23.8007 30.8541 23.801 31.0901V37.1294C23.8007 37.3655 23.7068 37.5918 23.5399 37.7587C23.373 37.9257 23.1466 38.0196 22.9105 38.0198H20.9539C20.7178 38.0195 20.4915 37.9256 20.3246 37.7587C20.1577 37.5918 20.0638 37.3655 20.0635 37.1294Z" fill="white"/>
<path d="M34.3789 44.04C34.1199 44.04 33.8715 43.9372 33.6884 43.754C33.5052 43.5709 33.4023 43.3225 33.4023 43.0635V24.9043C33.4023 24.6453 33.5052 24.3969 33.6884 24.2138C33.8715 24.0306 34.1199 23.9277 34.3789 23.9277C34.6379 23.9277 34.8863 24.0306 35.0694 24.2138C35.2526 24.3969 35.3555 24.6453 35.3555 24.9043V43.0635C35.3555 43.3225 35.2526 43.5709 35.0694 43.754C34.8863 43.9372 34.6379 44.04 34.3789 44.04Z" fill="#B6C4FF"/>
<path d="M28.2969 65.6826C28.0379 65.6826 27.7895 65.5797 27.6063 65.3966C27.4232 65.2134 27.3203 64.9651 27.3203 64.7061V64.6836C27.3203 64.4246 27.4232 64.1762 27.6063 63.9931C27.7895 63.8099 28.0379 63.707 28.2969 63.707C28.5559 63.707 28.8043 63.8099 28.9874 63.9931C29.1706 64.1762 29.2734 64.4246 29.2734 64.6836V64.7061C29.2734 64.9651 29.1706 65.2134 28.9874 65.3966C28.8043 65.5797 28.5559 65.6826 28.2969 65.6826Z" fill="#6582FD"/>
<path d="M41.7928 65.6826H32.0352C31.7762 65.6826 31.5278 65.5797 31.3446 65.3966C31.1615 65.2135 31.0586 64.9651 31.0586 64.7061C31.0586 64.4471 31.1615 64.1987 31.3446 64.0155C31.5278 63.8324 31.7762 63.7295 32.0352 63.7295H41.7928C42.0518 63.7295 42.3002 63.8324 42.4833 64.0155C42.6664 64.1987 42.7693 64.4471 42.7693 64.7061C42.7693 64.9651 42.6664 65.2135 42.4833 65.3966C42.3002 65.5797 42.0518 65.6826 41.7928 65.6826Z" fill="white"/>
<path d="M28.2969 70.855C28.0379 70.855 27.7895 70.7521 27.6063 70.5689C27.4232 70.3858 27.3203 70.1374 27.3203 69.8784V69.856C27.3203 69.597 27.4232 69.3486 27.6063 69.1654C27.7895 68.9823 28.0379 68.8794 28.2969 68.8794C28.5559 68.8794 28.8043 68.9823 28.9874 69.1654C29.1706 69.3486 29.2734 69.597 29.2734 69.856V69.8784C29.2734 70.1374 29.1706 70.3858 28.9874 70.5689C28.8043 70.7521 28.5559 70.855 28.2969 70.855Z" fill="#FF7EB7"/>
<path d="M41.7928 70.855H32.0352C31.7762 70.855 31.5278 70.7521 31.3446 70.5689C31.1615 70.3858 31.0586 70.1374 31.0586 69.8784C31.0586 69.6194 31.1615 69.371 31.3446 69.1879C31.5278 69.0047 31.7762 68.9019 32.0352 68.9019H41.7928C42.0518 68.9019 42.3002 69.0047 42.4833 69.1879C42.6664 69.371 42.7693 69.6194 42.7693 69.8784C42.7693 70.1374 42.6664 70.3858 42.4833 70.5689C42.3002 70.7521 42.0518 70.855 41.7928 70.855Z" fill="white"/>
<path d="M28.2969 76.0273C28.0379 76.0273 27.7895 75.9245 27.6063 75.7413C27.4232 75.5582 27.3203 75.3098 27.3203 75.0508V75.0283C27.3203 74.7693 27.4232 74.5209 27.6063 74.3378C27.7895 74.1546 28.0379 74.0518 28.2969 74.0518C28.5559 74.0518 28.8043 74.1546 28.9874 74.3378C29.1706 74.5209 29.2734 74.7693 29.2734 75.0283V75.0508C29.2734 75.3098 29.1706 75.5582 28.9874 75.7413C28.8043 75.9245 28.5559 76.0273 28.2969 76.0273Z" fill="#6582FD"/>
<path d="M41.7928 76.0273H32.0352C31.7762 76.0273 31.5278 75.9245 31.3446 75.7413C31.1615 75.5582 31.0586 75.3098 31.0586 75.0508C31.0586 74.7918 31.1615 74.5434 31.3446 74.3602C31.5278 74.1771 31.7762 74.0742 32.0352 74.0742H41.7928C42.0518 74.0742 42.3002 74.1771 42.4833 74.3602C42.6664 74.5434 42.7693 74.7918 42.7693 75.0508C42.7693 75.3098 42.6664 75.5582 42.4833 75.7413C42.3002 75.9245 42.0518 76.0273 41.7928 76.0273Z" fill="white"/>
<path d="M46.6055 65.6826C46.3465 65.6826 46.0981 65.5797 45.9149 65.3966C45.7318 65.2134 45.6289 64.9651 45.6289 64.7061V64.6836C45.6289 64.4246 45.7318 64.1762 45.9149 63.9931C46.0981 63.8099 46.3465 63.707 46.6055 63.707C46.8645 63.707 47.1129 63.8099 47.296 63.9931C47.4791 64.1762 47.582 64.4246 47.582 64.6836V64.7061C47.582 64.9651 47.4791 65.2134 47.296 65.3966C47.1129 65.5797 46.8645 65.6826 46.6055 65.6826Z" fill="#6582FD"/>
<path d="M60.1014 65.6826H50.3438C50.0848 65.6826 49.8364 65.5797 49.6532 65.3966C49.4701 65.2135 49.3672 64.9651 49.3672 64.7061C49.3672 64.4471 49.4701 64.1987 49.6532 64.0155C49.8364 63.8324 50.0848 63.7295 50.3438 63.7295H60.1014C60.3604 63.7295 60.6088 63.8324 60.7919 64.0155C60.975 64.1987 61.0779 64.4471 61.0779 64.7061C61.0779 64.9651 60.975 65.2135 60.7919 65.3966C60.6088 65.5797 60.3604 65.6826 60.1014 65.6826Z" fill="white"/>
<path d="M46.6055 70.855C46.3465 70.855 46.0981 70.7521 45.9149 70.5689C45.7318 70.3858 45.6289 70.1374 45.6289 69.8784V69.856C45.6289 69.597 45.7318 69.3486 45.9149 69.1654C46.0981 68.9823 46.3465 68.8794 46.6055 68.8794C46.8645 68.8794 47.1129 68.9823 47.296 69.1654C47.4791 69.3486 47.582 69.597 47.582 69.856V69.8784C47.582 70.1374 47.4791 70.3858 47.296 70.5689C47.1129 70.7521 46.8645 70.855 46.6055 70.855Z" fill="#6582FD"/>
<path d="M60.1014 70.855H50.3438C50.0848 70.855 49.8364 70.7521 49.6532 70.5689C49.4701 70.3858 49.3672 70.1374 49.3672 69.8784C49.3672 69.6194 49.4701 69.371 49.6532 69.1879C49.8364 69.0047 50.0848 68.9019 50.3438 68.9019H60.1014C60.3604 68.9019 60.6088 69.0047 60.7919 69.1879C60.975 69.371 61.0779 69.6194 61.0779 69.8784C61.0779 70.1374 60.975 70.3858 60.7919 70.5689C60.6088 70.7521 60.3604 70.855 60.1014 70.855Z" fill="white"/>
<path d="M23.8867 56.0762H88.4996C89.5783 56.0762 90.4527 56.9506 90.4527 58.0293V81.4527C90.4527 82.5314 89.5783 83.4059 88.4996 83.4059H81.626L78.5949 86.7521C78.5034 86.8532 78.3917 86.934 78.267 86.9893C78.1423 87.0446 78.0075 87.0732 77.8711 87.0732C77.7347 87.0732 77.5999 87.0446 77.4752 86.9893C77.3505 86.934 77.2388 86.8532 77.1473 86.7521L74.1162 83.4059H23.8867C22.808 83.4059 21.9336 82.5314 21.9336 81.4527V58.0293C21.9336 56.9506 22.808 56.0762 23.8867 56.0762Z" fill="url(#paint1_linear_5818_25776)"/>
<path d="M64.7805 30.146H40.2891C40.0301 30.146 39.7817 30.0431 39.5985 29.86C39.4154 29.6768 39.3125 29.4284 39.3125 29.1694C39.3125 28.9104 39.4154 28.662 39.5985 28.4789C39.7817 28.2958 40.0301 28.1929 40.2891 28.1929H64.7805C65.0395 28.1929 65.2879 28.2958 65.471 28.4789C65.6541 28.662 65.757 28.9104 65.757 29.1694C65.757 29.4284 65.6541 29.6768 65.471 29.86C65.2879 30.0431 65.0395 30.146 64.7805 30.146ZM69.7354 35.0866H40.2891C40.0301 35.0866 39.7817 34.9837 39.5985 34.8006C39.4154 34.6175 39.3125 34.3691 39.3125 34.1101C39.3125 33.8511 39.4154 33.6027 39.5985 33.4195C39.7817 33.2364 40.0301 33.1335 40.2891 33.1335H69.7354C69.9944 33.1335 70.2427 33.2364 70.4259 33.4195C70.609 33.6027 70.7119 33.8511 70.7119 34.1101C70.7119 34.3691 70.609 34.6175 70.4259 34.8006C70.2427 34.9837 69.9944 35.0866 69.7354 35.0866Z" fill="white"/>
<path d="M53.0932 40.0273H40.2891C40.0301 40.0273 39.7817 39.9245 39.5985 39.7413C39.4154 39.5582 39.3125 39.3098 39.3125 39.0508C39.3125 38.7918 39.4154 38.5434 39.5985 38.3602C39.7817 38.1771 40.0301 38.0742 40.2891 38.0742H53.0932C53.3522 38.0742 53.6006 38.1771 53.7837 38.3602C53.9668 38.5434 54.0697 38.7918 54.0697 39.0508C54.0697 39.3098 53.9668 39.5582 53.7837 39.7413C53.6006 39.9245 53.3522 40.0273 53.0932 40.0273Z" fill="#FF7EB7"/>
<path d="M67.1863 43.4404H65.6211C65.3621 43.4404 65.1137 43.3375 64.9306 43.1544C64.7474 42.9713 64.6445 42.7229 64.6445 42.4639C64.6445 42.2049 64.7474 41.9565 64.9306 41.7733C65.1137 41.5902 65.3621 41.4873 65.6211 41.4873H67.1863C67.4453 41.4873 67.6937 41.5902 67.8769 41.7733C68.06 41.9565 68.1629 42.2049 68.1629 42.4639C68.1629 42.7229 68.06 42.9713 67.8769 43.1544C67.6937 43.3375 67.4453 43.4404 67.1863 43.4404ZM72.6324 43.4404H71.0672C70.8082 43.4404 70.5598 43.3375 70.3767 43.1544C70.1935 42.9713 70.0906 42.7229 70.0906 42.4639C70.0906 42.2049 70.1935 41.9565 70.3767 41.7733C70.5598 41.5902 70.8082 41.4873 71.0672 41.4873H72.6324C72.8914 41.4873 73.1398 41.5902 73.323 41.7733C73.5061 41.9565 73.609 42.2049 73.609 42.4639C73.609 42.7229 73.5061 42.9713 73.323 43.1544C73.1398 43.3375 72.8914 43.4404 72.6324 43.4404Z" fill="#B6C4FF"/>
<path d="M78.0664 22.2725V45.6963C78.0664 46.7744 77.1934 47.6494 76.1133 47.6494H25.8848L22.8535 50.9951C22.4648 51.4229 21.793 51.4229 21.4062 50.9951L18.375 47.6494H11.5C10.4219 47.6494 9.54688 46.7744 9.54688 45.6963V22.2725C9.54688 21.1943 10.4219 20.3193 11.5 20.3193H76.1133C77.1934 20.3193 78.0664 21.1943 78.0664 22.2725Z" fill="url(#paint2_linear_5818_25776)"/>
<path d="M78.0664 30.5732C83.7295 30.5732 88.3203 25.9824 88.3203 20.3193C88.3203 14.6563 83.7295 10.0654 78.0664 10.0654C72.4033 10.0654 67.8125 14.6563 67.8125 20.3193C67.8125 25.9824 72.4033 30.5732 78.0664 30.5732Z" fill="#FF7EB7"/>
<path d="M77.2344 26.5996C77.8773 26.5996 78.3984 26.0784 78.3984 25.4355C78.3984 24.7927 77.8773 24.2715 77.2344 24.2715C76.5915 24.2715 76.0703 24.7927 76.0703 25.4355C76.0703 26.0784 76.5915 26.5996 77.2344 26.5996Z" fill="white"/>
<path d="M77.2348 23.1906C76.9758 23.1906 76.7274 23.0877 76.5442 22.9046C76.3611 22.7215 76.2582 22.4731 76.2582 22.2141V21.2836C76.2582 20.2066 77.1344 19.3305 78.2113 19.3305H80.0951C80.3742 19.3302 80.6418 19.2192 80.8391 19.0219C81.0364 18.8246 81.1474 18.557 81.1477 18.2779V17.1307C81.1474 16.8516 81.0364 16.584 80.8391 16.3867C80.6418 16.1894 80.3742 16.0784 80.0951 16.0781H76.0369C75.7578 16.0784 75.4903 16.1894 75.2929 16.3867C75.0956 16.584 74.9846 16.8516 74.9844 17.1307C74.9844 17.3897 74.8815 17.6381 74.6984 17.8212C74.5152 18.0043 74.2668 18.1072 74.0078 18.1072C73.7488 18.1072 73.5004 18.0043 73.3173 17.8212C73.1341 17.6381 73.0312 17.3897 73.0312 17.1307C73.0312 15.4732 74.3795 14.125 76.0369 14.125H80.0951C81.7525 14.125 83.1008 15.4732 83.1008 17.1307V18.2779C83.1008 19.9354 81.7525 21.2836 80.0951 21.2836H78.2113V22.2141C78.2113 22.4731 78.1084 22.7215 77.9253 22.9046C77.7422 23.0877 77.4938 23.1906 77.2348 23.1906Z" fill="white"/>
<path d="M45.6002 14.4626C45.3412 14.4626 45.0928 14.3597 44.9097 14.1766C44.7265 13.9934 44.6236 13.745 44.6236 13.486C44.6233 13.1581 44.4928 12.8437 44.2609 12.6118C44.0291 12.3799 43.7147 12.2495 43.3867 12.2491C43.1277 12.2491 42.8793 12.1462 42.6962 11.9631C42.513 11.78 42.4102 11.5316 42.4102 11.2726C42.4102 11.0136 42.513 10.7652 42.6962 10.582C42.8793 10.3989 43.1277 10.296 43.3867 10.296C43.7147 10.2956 44.0291 10.1652 44.2609 9.93331C44.4928 9.70142 44.6233 9.38702 44.6236 9.05908C44.6236 8.80008 44.7265 8.55169 44.9097 8.36855C45.0928 8.18541 45.3412 8.08252 45.6002 8.08252C45.8592 8.08252 46.1076 8.18541 46.2907 8.36855C46.4739 8.55169 46.5768 8.80008 46.5768 9.05908C46.5771 9.38702 46.7076 9.70142 46.9394 9.93331C47.1713 10.1652 47.4857 10.2956 47.8137 10.296C48.0727 10.296 48.3211 10.3989 48.5042 10.582C48.6873 10.7652 48.7902 11.0136 48.7902 11.2726C48.7902 11.5316 48.6873 11.78 48.5042 11.9631C48.3211 12.1462 48.0727 12.2491 47.8137 12.2491C47.4857 12.2495 47.1713 12.3799 46.9394 12.6118C46.7076 12.8437 46.5771 13.1581 46.5768 13.486C46.5768 13.745 46.4739 13.9934 46.2907 14.1766C46.1076 14.3597 45.8592 14.4626 45.6002 14.4626Z" fill="#01EBA4"/>
<path d="M64.1904 94.9511C63.9314 94.9511 63.683 94.8482 63.4999 94.665C63.3168 94.4819 63.2139 94.2335 63.2139 93.9745C63.2135 93.6466 63.0831 93.3322 62.8512 93.1003C62.6193 92.8684 62.3049 92.738 61.977 92.7376C61.718 92.7376 61.4696 92.6347 61.2864 92.4516C61.1033 92.2684 61.0004 92.02 61.0004 91.761C61.0004 91.502 61.1033 91.2536 61.2864 91.0705C61.4696 90.8874 61.718 90.7845 61.977 90.7845C62.3049 90.7841 62.6193 90.6537 62.8512 90.4218C63.0831 90.1899 63.2135 89.8755 63.2139 89.5476C63.2139 89.2886 63.3168 89.0402 63.4999 88.857C63.683 88.6739 63.9314 88.571 64.1904 88.571C64.4494 88.571 64.6978 88.6739 64.881 88.857C65.0641 89.0402 65.167 89.2886 65.167 89.5476C65.1674 89.8755 65.2978 90.1899 65.5297 90.4218C65.7616 90.6537 66.076 90.7841 66.4039 90.7845C66.6629 90.7845 66.9113 90.8874 67.0944 91.0705C67.2776 91.2536 67.3805 91.502 67.3805 91.761C67.3805 92.02 67.2776 92.2684 67.0944 92.4516C66.9113 92.6347 66.6629 92.7376 66.4039 92.7376C66.076 92.738 65.7616 92.8684 65.5297 93.1003C65.2978 93.3322 65.1674 93.6466 65.167 93.9745C65.167 94.2335 65.0641 94.4819 64.881 94.665C64.6978 94.8482 64.4494 94.9511 64.1904 94.9511ZM11.0182 61.8474C10.7592 61.8474 10.5108 61.7445 10.3276 61.5613C10.1445 61.3782 10.0416 61.1298 10.0416 60.8708C10.0412 60.5429 9.91081 60.2285 9.67892 59.9966C9.44703 59.7647 9.13263 59.6343 8.80469 59.6339C8.54569 59.6339 8.29729 59.531 8.11415 59.3479C7.93101 59.1647 7.82812 58.9163 7.82812 58.6573C7.82812 58.3983 7.93101 58.1499 8.11415 57.9668C8.29729 57.7837 8.54569 57.6808 8.80469 57.6808C9.13263 57.6804 9.44703 57.55 9.67892 57.3181C9.91081 57.0862 10.0412 56.7718 10.0416 56.4438C10.0416 56.1848 10.1445 55.9365 10.3276 55.7533C10.5108 55.5702 10.7592 55.4673 11.0182 55.4673C11.2772 55.4673 11.5256 55.5702 11.7087 55.7533C11.8918 55.9365 11.9947 56.1848 11.9947 56.4438C11.9951 56.7718 12.1255 57.0862 12.3574 57.3181C12.5893 57.55 12.9037 57.6804 13.2316 57.6808C13.4906 57.6808 13.739 57.7837 13.9222 57.9668C14.1053 58.1499 14.2082 58.3983 14.2082 58.6573C14.2082 58.9163 14.1053 59.1647 13.9222 59.3479C13.739 59.531 13.4906 59.6339 13.2316 59.6339C12.9037 59.6343 12.5893 59.7647 12.3574 59.9966C12.1255 60.2285 11.9951 60.5429 11.9947 60.8708C11.9947 61.1298 11.8918 61.3782 11.7087 61.5613C11.5256 61.7445 11.2772 61.8474 11.0182 61.8474Z" fill="#FF7EB7"/>
<path d="M88.3203 40.3101C86.7049 40.3101 85.3906 38.9958 85.3906 37.3804C85.3906 35.7649 86.7049 34.4507 88.3203 34.4507C89.9357 34.4507 91.25 35.7649 91.25 37.3804C91.25 38.9958 89.9357 40.3101 88.3203 40.3101ZM88.3203 36.4038C87.7818 36.4038 87.3438 36.8419 87.3438 37.3804C87.3438 37.9188 87.7818 38.3569 88.3203 38.3569C88.8588 38.3569 89.2969 37.9188 89.2969 37.3804C89.2969 36.8419 88.8588 36.4038 88.3203 36.4038Z" fill="#8298FD"/>
<path d="M13.2344 73.5801C11.6189 73.5801 10.3047 72.2658 10.3047 70.6504C10.3047 69.035 11.6189 67.7207 13.2344 67.7207C14.8498 67.7207 16.1641 69.035 16.1641 70.6504C16.1641 72.2658 14.8498 73.5801 13.2344 73.5801ZM13.2344 69.6738C12.6959 69.6738 12.2578 70.1119 12.2578 70.6504C12.2578 71.1889 12.6959 71.627 13.2344 71.627C13.7729 71.627 14.2109 71.1889 14.2109 70.6504C14.2109 70.1119 13.7729 69.6738 13.2344 69.6738Z" fill="#01EBA4"/>
<defs>
<linearGradient id="paint0_linear_5818_25776" x1="12.0996" y1="95.2131" x2="95.7889" y2="11.5238" gradientUnits="userSpaceOnUse">
<stop stop-color="#FFFCFF" stop-opacity="0"/>
<stop offset="1" stop-color="#FFDAEC"/>
</linearGradient>
<linearGradient id="paint1_linear_5818_25776" x1="21.9336" y1="56.0762" x2="90.4527" y2="56.0762" gradientUnits="userSpaceOnUse">
<stop stop-color="#6582FD" stop-opacity="0.6"/>
<stop offset="0.05" stop-color="#839AFD" stop-opacity="0.57"/>
<stop offset="0.116" stop-color="#A4B5FE" stop-opacity="0.53"/>
<stop offset="0.19" stop-color="#C1CCFE" stop-opacity="0.486"/>
<stop offset="0.273" stop-color="#D8DFFE" stop-opacity="0.436"/>
<stop offset="0.368" stop-color="#E9EDFF" stop-opacity="0.379"/>
<stop offset="0.482" stop-color="#F6F8FF" stop-opacity="0.31"/>
<stop offset="0.635" stop-color="#FDFDFF" stop-opacity="0.218"/>
<stop offset="0.997" stop-color="white" stop-opacity="0"/>
</linearGradient>
<linearGradient id="paint2_linear_5818_25776" x1="9.54688" y1="20.3193" x2="78.0664" y2="20.3193" gradientUnits="userSpaceOnUse">
<stop stop-color="#6582FD" stop-opacity="0.6"/>
<stop offset="0.05" stop-color="#839AFD" stop-opacity="0.57"/>
<stop offset="0.116" stop-color="#A4B5FE" stop-opacity="0.53"/>
<stop offset="0.19" stop-color="#C1CCFE" stop-opacity="0.486"/>
<stop offset="0.273" stop-color="#D8DFFE" stop-opacity="0.436"/>
<stop offset="0.368" stop-color="#E9EDFF" stop-opacity="0.379"/>
<stop offset="0.482" stop-color="#F6F8FF" stop-opacity="0.31"/>
<stop offset="0.635" stop-color="#FDFDFF" stop-opacity="0.218"/>
<stop offset="0.997" stop-color="white" stop-opacity="0"/>
</linearGradient>
</defs>
</svg>
