<svg width="36" height="26" viewBox="0 0 36 26" fill="none" xmlns="http://www.w3.org/2000/svg">
<path d="M7.9987 11.3335H14.6654M11.332 8.00016V14.6668M22.9987 13.0002H23.0154M27.9987 9.66683H28.0154M26.8654 1.3335H9.13203C7.4825 1.33388 5.89168 1.94579 4.66709 3.05094C3.4425 4.15608 2.67111 5.67598 2.50203 7.31683C2.49203 7.4035 2.48536 7.48516 2.4737 7.57016C2.3387 8.6935 1.33203 17.0935 1.33203 19.6668C1.33203 20.9929 1.85882 22.2647 2.7965 23.2024C3.73418 24.14 5.00595 24.6668 6.33203 24.6668C7.9987 24.6668 8.83203 23.8335 9.66536 23.0002L12.022 20.6435C12.647 20.0183 13.4947 19.667 14.3787 19.6668H21.6187C22.5027 19.667 23.3504 20.0183 23.9754 20.6435L26.332 23.0002C27.1654 23.8335 27.9987 24.6668 29.6654 24.6668C30.9914 24.6668 32.2632 24.14 33.2009 23.2024C34.1386 22.2647 34.6654 20.9929 34.6654 19.6668C34.6654 17.0918 33.6587 8.6935 33.5237 7.57016C33.512 7.48683 33.5054 7.4035 33.4954 7.3185C33.3267 5.67735 32.5554 4.15704 31.3308 3.05155C30.1062 1.94606 28.5152 1.33392 26.8654 1.3335Z" stroke="#16A34A" stroke-width="2.5" stroke-linecap="round" stroke-linejoin="round"/>
</svg>
