<svg width="16" height="16" viewBox="0 0 16 16" fill="none" xmlns="http://www.w3.org/2000/svg">
<path d="M4 7.9974H10C10.7072 7.9974 11.3855 8.27835 11.8856 8.77844C12.3857 9.27854 12.6667 9.95682 12.6667 10.6641C12.6667 11.3713 12.3857 12.0496 11.8856 12.5497C11.3855 13.0498 10.7072 13.3307 10 13.3307H4.66667C4.48986 13.3307 4.32029 13.2605 4.19526 13.1355C4.07024 13.0104 4 12.8409 4 12.6641V3.33073C4 3.15392 4.07024 2.98435 4.19526 2.85932C4.32029 2.7343 4.48986 2.66406 4.66667 2.66406H9.33333C10.0406 2.66406 10.7189 2.94501 11.219 3.44511C11.719 3.94521 12 4.62349 12 5.33073C12 6.03797 11.719 6.71625 11.219 7.21635C10.7189 7.71644 10.0406 7.9974 9.33333 7.9974" stroke="#0A0A0A" stroke-width="1.33333" stroke-linecap="round" stroke-linejoin="round"/>
</svg>
