<svg width="16" height="16" viewBox="0 0 16 16" fill="none" xmlns="http://www.w3.org/2000/svg">
<path fill-rule="evenodd" clip-rule="evenodd" d="M2 2.16699C2.13261 2.16699 2.25979 2.21967 2.35355 2.31344C2.44732 2.40721 2.5 2.53438 2.5 2.66699V13.3337C2.5 13.4663 2.44732 13.5934 2.35355 13.6872C2.25979 13.781 2.13261 13.8337 2 13.8337C1.86739 13.8337 1.74021 13.781 1.64645 13.6872C1.55268 13.5934 1.5 13.4663 1.5 13.3337V2.66699C1.5 2.53438 1.55268 2.40721 1.64645 2.31344C1.74021 2.21967 1.86739 2.16699 2 2.16699ZM8 2.16699C8.13261 2.16699 8.25979 2.21967 8.35355 2.31344C8.44732 2.40721 8.5 2.53438 8.5 2.66699V13.3337C8.5 13.4663 8.44732 13.5934 8.35355 13.6872C8.25979 13.781 8.13261 13.8337 8 13.8337C7.86739 13.8337 7.74022 13.781 7.64645 13.6872C7.55268 13.5934 7.5 13.4663 7.5 13.3337V2.66699C7.5 2.53438 7.55268 2.40721 7.64645 2.31344C7.74022 2.21967 7.86739 2.16699 8 2.16699Z" fill="black"/>
<path fill-rule="evenodd" clip-rule="evenodd" d="M1.83203 8.00033C1.83203 7.86772 1.88471 7.74054 1.97848 7.64677C2.07225 7.553 2.19942 7.50033 2.33203 7.50033H7.66536C7.79797 7.50033 7.92515 7.553 8.01892 7.64677C8.11269 7.74054 8.16536 7.86772 8.16536 8.00033C8.16536 8.13293 8.11269 8.26011 8.01892 8.35388C7.92515 8.44765 7.79797 8.50033 7.66536 8.50033H2.33203C2.19942 8.50033 2.07225 8.44765 1.97848 8.35388C1.88471 8.26011 1.83203 8.13293 1.83203 8.00033ZM12.332 7.16699C11.7747 7.16699 11.1654 7.60699 11.1654 8.33366C11.1654 8.46627 11.1127 8.59344 11.0189 8.68721C10.9252 8.78098 10.798 8.83366 10.6654 8.83366C10.5328 8.83366 10.4056 8.78098 10.3118 8.68721C10.218 8.59344 10.1654 8.46627 10.1654 8.33366C10.1654 6.94966 11.334 6.16699 12.332 6.16699C13.3307 6.16699 14.4987 6.94966 14.4987 8.33366C14.4987 8.95899 14.224 9.50699 13.8807 9.97499C13.5387 10.441 13.0907 10.877 12.6787 11.273L12.6147 11.3343C12.2134 11.7203 11.8514 12.0677 11.58 12.415C11.4754 12.5456 11.3832 12.6858 11.3047 12.8337H13.9987C14.1313 12.8337 14.2585 12.8863 14.3523 12.9801C14.446 13.0739 14.4987 13.2011 14.4987 13.3337C14.4987 13.4663 14.446 13.5934 14.3523 13.6872C14.2585 13.781 14.1313 13.8337 13.9987 13.8337H10.6654C10.5328 13.8337 10.4056 13.781 10.3118 13.6872C10.218 13.5934 10.1654 13.4663 10.1654 13.3337C10.1654 12.7457 10.454 12.231 10.792 11.799C11.1094 11.3937 11.52 10.999 11.9047 10.6297L11.9854 10.5523C12.4067 10.1477 12.792 9.76899 13.0747 9.38299C13.3567 8.99899 13.4987 8.65833 13.4987 8.33366C13.4987 7.60699 12.8894 7.16699 12.332 7.16699Z" fill="black"/>
</svg>
